<svg width="39" height="40" viewBox="0 0 39 40" fill="none" xmlns="http://www.w3.org/2000/svg">
<path d="M36.1612 10.4117C34.4281 7.44264 32.0774 5.09186 29.1082 3.3589C26.1386 1.62603 22.8968 0.759766 19.3804 0.759766C15.8644 0.759766 12.6216 1.62603 9.65251 3.3589C6.68322 5.0916 4.33245 7.44237 2.5994 10.4117C0.86626 13.3811 0 16.6239 0 20.1397C0 23.6556 0.866526 26.8978 2.59913 29.8675C4.3321 32.8365 6.68287 35.1873 9.65216 36.9204C12.6216 38.6532 15.8641 39.5195 19.3801 39.5195C22.896 39.5195 26.1389 38.6532 29.1082 36.9204C32.0773 35.1879 34.4279 32.8365 36.1608 29.8675C37.8934 26.8981 38.7596 23.6554 38.7596 20.1397C38.7597 16.6235 37.8934 13.3807 36.1612 10.4117ZM30.6854 21.7546C30.6854 22.192 30.5253 22.5709 30.2056 22.8901C29.8857 23.2095 29.5073 23.3699 29.0701 23.3699H22.61V29.8294C22.61 30.2667 22.4498 30.6453 22.1303 30.9655C21.8109 31.2848 21.4323 31.4446 20.9948 31.4446H17.7649C17.3276 31.4446 16.949 31.2848 16.6294 30.9655C16.3098 30.6454 16.1499 30.2668 16.1499 29.8294V23.3699H9.6899C9.25257 23.3699 8.8742 23.2096 8.55442 22.8901C8.23482 22.571 8.07502 22.192 8.07502 21.7546V18.5244C8.07502 18.0871 8.23491 17.7085 8.55442 17.3889C8.87411 17.0693 9.25248 16.9094 9.6899 16.9094H16.1501V10.4494C16.1501 10.012 16.31 9.6337 16.6297 9.31392C16.9493 8.99432 17.3278 8.83452 17.7652 8.83452H20.9954C21.4327 8.83452 21.8114 8.99441 22.1309 9.31392C22.4503 9.63361 22.6106 10.012 22.6106 10.4494V16.9094H29.0701C29.5075 16.9094 29.8861 17.0693 30.2056 17.3889C30.5253 17.7085 30.6854 18.087 30.6854 18.5244V21.7546Z" fill="#006ECC" fill-opacity="0.65"/>
<path d="M30.6854 21.7546C30.6854 22.192 30.5253 22.5709 30.2056 22.8901C29.8857 23.2095 29.5073 23.3699 29.0701 23.3699H22.61V29.8294C22.61 30.2667 22.4498 30.6453 22.1303 30.9655C21.8109 31.2848 21.4323 31.4446 20.9948 31.4446H17.7649C17.3276 31.4446 16.949 31.2848 16.6294 30.9655C16.3098 30.6454 16.1499 30.2668 16.1499 29.8294V23.3699H9.6899C9.25257 23.3699 8.8742 23.2096 8.55442 22.8901C8.23482 22.571 8.07502 22.192 8.07502 21.7546V18.5244C8.07502 18.0871 8.23491 17.7085 8.55442 17.3889C8.87411 17.0693 9.25248 16.9094 9.6899 16.9094H16.1501V10.4494C16.1501 10.012 16.31 9.6337 16.6297 9.31392C16.9493 8.99432 17.3278 8.83452 17.7652 8.83452H20.9954C21.4327 8.83452 21.8114 8.99441 22.1309 9.31392C22.4503 9.63361 22.6106 10.012 22.6106 10.4494V16.9094H29.0701C29.5075 16.9094 29.8861 17.0693 30.2056 17.3889C30.5253 17.7085 30.6854 18.087 30.6854 18.5244V21.7546Z" fill="white"/>
</svg>
