<svg width="26" height="26" viewBox="0 0 26 26" fill="none" xmlns="http://www.w3.org/2000/svg">
<circle cx="13" cy="13" r="13" fill="#F2006A"/>
<path d="M6.50321 20.1938C6.39227 20.1938 6.28827 20.1522 6.19121 20.069C6.10801 19.9719 6.06641 19.8679 6.06641 19.757C6.06641 19.6738 6.07334 19.6114 6.08721 19.5698L10.9752 6.21619C11.0168 6.04979 11.1069 5.91112 11.2456 5.80019C11.3843 5.68926 11.5645 5.63379 11.7864 5.63379H14.8648C15.0867 5.63379 15.2669 5.68926 15.4056 5.80019C15.5443 5.91112 15.6344 6.04979 15.676 6.21619L20.5432 19.5698L20.5848 19.757C20.5848 19.8679 20.5363 19.9719 20.4392 20.069C20.356 20.1522 20.252 20.1938 20.1272 20.1938H17.5688C17.236 20.1938 17.0141 20.0482 16.9032 19.757L16.092 17.6354H10.5384L9.74801 19.757C9.63707 20.0482 9.40827 20.1938 9.06161 20.1938H6.50321ZM15.26 14.6402L13.3256 9.14899L11.3912 14.6402H15.26Z" fill="white"/>
</svg>
