<svg width="154" height="166" viewBox="0 0 154 166" fill="none" xmlns="http://www.w3.org/2000/svg">
<circle cx="74.8778" cy="74.8778" r="74.8778" fill="#9A1E73"/>
<path d="M34.9632 116.31C34.3242 116.31 33.7252 116.071 33.1661 115.592C32.6869 115.032 32.4473 114.433 32.4473 113.794C32.4473 113.315 32.4872 112.956 32.5671 112.716L60.7211 35.8018C60.9607 34.8434 61.4799 34.0447 62.2786 33.4057C63.0773 32.7667 64.1156 32.4473 65.3935 32.4473H83.1245C84.4025 32.4473 85.4408 32.7667 86.2395 33.4057C87.0382 34.0447 87.5573 34.8434 87.7969 35.8018L115.831 112.716L116.071 113.794C116.071 114.433 115.791 115.032 115.232 115.592C114.753 116.071 114.154 116.31 113.435 116.31H98.6991C96.7822 116.31 95.5043 115.472 94.8654 113.794L90.193 101.574H58.2052L53.6527 113.794C53.0137 115.472 51.6958 116.31 49.6991 116.31H34.9632ZM85.4008 84.3226L74.259 52.6942L63.1172 84.3226H85.4008Z" fill="white"/>
<path d="M111.943 165.606C111.028 165.606 110.237 165.273 109.572 164.608C108.906 163.942 108.573 163.152 108.573 162.237V142.144H89.2299C88.3147 142.144 87.5243 141.812 86.8587 141.146C86.1931 140.48 85.8604 139.69 85.8604 138.775V125.172C85.8604 124.257 86.1931 123.467 86.8587 122.801C87.5243 122.135 88.3147 121.803 89.2299 121.803H108.573V102.334C108.573 101.419 108.906 100.629 109.572 99.9632C110.237 99.2976 111.028 98.9648 111.943 98.9648H127.168C128.083 98.9648 128.873 99.2976 129.539 99.9632C130.205 100.629 130.537 101.419 130.537 102.334V121.803H149.631C150.546 121.803 151.337 122.135 152.002 122.801C152.668 123.467 153.001 124.257 153.001 125.172V138.775C153.001 139.69 152.668 140.48 152.002 141.146C151.337 141.812 150.546 142.144 149.631 142.144H130.537V162.237C130.537 163.152 130.205 163.942 129.539 164.608C128.873 165.273 128.083 165.606 127.168 165.606H111.943Z" fill="#F2006A"/>
</svg>
