<svg width="140" height="44" viewBox="0 0 140 44" fill="none" xmlns="http://www.w3.org/2000/svg">
<path fill-rule="evenodd" clip-rule="evenodd" d="M4 1C2.34315 1 1 2.34315 1 4V40C1 41.6569 2.34315 43 4 43H136C137.657 43 139 41.6569 139 40V4C139 2.34315 137.657 1 136 1H4Z" fill="#111111" stroke="#555555" stroke-width="2"/>
<path fill-rule="evenodd" clip-rule="evenodd" d="M25.5001 13.7352C23.3185 13.7352 22.1602 14.82 20.4462 14.7979C18.7318 14.82 17.574 13.7352 15.392 13.7352C13.6554 13.7352 11.4508 14.7979 10.4491 16.348C8.60121 19.1824 8.77918 22.2605 9.55851 25.4485C10.4046 28.8371 13.3881 33 15.7483 33C17.6851 33 18.5539 31.9587 20.4462 31.9587C22.3381 31.9587 23.1843 33 25.0996 33C27.2812 33 29.8862 29.4344 31 26.2678C28.8621 25.4264 27.4146 23.3231 27.4146 21.0865C27.4146 18.8723 28.5506 17.1673 30.2873 16.1932C29.2188 14.7536 27.17 13.7352 25.5001 13.7352ZM24.9209 8C21.7821 8.33223 19.4445 10.945 19.6447 13.9122C22.7839 13.6021 25.0996 10.9671 24.9209 8Z" fill="white"/>
<path d="M46.236 20.964H48.089L53.274 33H50.826L49.704 30.246H44.485L43.397 33H41L46.236 20.964ZM48.956 28.41L47.103 23.514L45.216 28.41H48.956ZM54.4246 24.84H56.3626V26.064H56.3966C56.6912 25.5653 57.0879 25.2027 57.5866 24.976C58.0852 24.7493 58.6236 24.636 59.2016 24.636C59.8249 24.636 60.3859 24.7493 60.8846 24.976C61.3832 25.1913 61.8082 25.4917 62.1596 25.877C62.5109 26.2623 62.7772 26.7157 62.9586 27.237C63.1399 27.7583 63.2306 28.3193 63.2306 28.92C63.2306 29.5207 63.1342 30.0817 62.9416 30.603C62.7489 31.1243 62.4769 31.5777 62.1256 31.963C61.7856 32.3483 61.3719 32.6543 60.8846 32.881C60.3972 33.0963 59.8646 33.204 59.2866 33.204C58.9012 33.204 58.5612 33.1643 58.2666 33.085C57.9719 33.0057 57.7112 32.9037 57.4846 32.779C57.2579 32.6543 57.0652 32.524 56.9066 32.388C56.7479 32.2407 56.6176 32.099 56.5156 31.963H56.4646V36.876H54.4246V24.84ZM61.1906 28.92C61.1906 28.6027 61.1339 28.2967 61.0206 28.002C60.9186 27.7073 60.7599 27.4467 60.5446 27.22C60.3406 26.9933 60.0912 26.812 59.7966 26.676C59.5019 26.54 59.1676 26.472 58.7936 26.472C58.4196 26.472 58.0852 26.54 57.7906 26.676C57.4959 26.812 57.2409 26.9933 57.0256 27.22C56.8216 27.4467 56.6629 27.7073 56.5496 28.002C56.4476 28.2967 56.3966 28.6027 56.3966 28.92C56.3966 29.2373 56.4476 29.5433 56.5496 29.838C56.6629 30.1327 56.8216 30.3933 57.0256 30.62C57.2409 30.8467 57.4959 31.028 57.7906 31.164C58.0852 31.3 58.4196 31.368 58.7936 31.368C59.1676 31.368 59.5019 31.3 59.7966 31.164C60.0912 31.028 60.3406 30.8467 60.5446 30.62C60.7599 30.3933 60.9186 30.1327 61.0206 29.838C61.1339 29.5433 61.1906 29.2373 61.1906 28.92ZM65.1326 24.84H67.0706V26.064H67.1046C67.3992 25.5653 67.7959 25.2027 68.2946 24.976C68.7932 24.7493 69.3316 24.636 69.9096 24.636C70.5329 24.636 71.0939 24.7493 71.5926 24.976C72.0912 25.1913 72.5162 25.4917 72.8676 25.877C73.2189 26.2623 73.4852 26.7157 73.6666 27.237C73.8479 27.7583 73.9386 28.3193 73.9386 28.92C73.9386 29.5207 73.8422 30.0817 73.6496 30.603C73.4569 31.1243 73.1849 31.5777 72.8336 31.963C72.4936 32.3483 72.0799 32.6543 71.5926 32.881C71.1052 33.0963 70.5726 33.204 69.9946 33.204C69.6092 33.204 69.2692 33.1643 68.9746 33.085C68.6799 33.0057 68.4192 32.9037 68.1926 32.779C67.9659 32.6543 67.7732 32.524 67.6146 32.388C67.4559 32.2407 67.3256 32.099 67.2236 31.963H67.1726V36.876H65.1326V24.84ZM71.8986 28.92C71.8986 28.6027 71.8419 28.2967 71.7286 28.002C71.6266 27.7073 71.4679 27.4467 71.2526 27.22C71.0486 26.9933 70.7992 26.812 70.5046 26.676C70.2099 26.54 69.8756 26.472 69.5016 26.472C69.1276 26.472 68.7932 26.54 68.4986 26.676C68.2039 26.812 67.9489 26.9933 67.7336 27.22C67.5296 27.4467 67.3709 27.7073 67.2576 28.002C67.1556 28.2967 67.1046 28.6027 67.1046 28.92C67.1046 29.2373 67.1556 29.5433 67.2576 29.838C67.3709 30.1327 67.5296 30.3933 67.7336 30.62C67.9489 30.8467 68.2039 31.028 68.4986 31.164C68.7932 31.3 69.1276 31.368 69.5016 31.368C69.8756 31.368 70.2099 31.3 70.5046 31.164C70.7992 31.028 71.0486 30.8467 71.2526 30.62C71.4679 30.3933 71.6266 30.1327 71.7286 29.838C71.8419 29.5433 71.8986 29.2373 71.8986 28.92ZM86.9568 23.548C86.7302 23.2193 86.4242 22.9813 86.0388 22.834C85.6648 22.6753 85.2682 22.596 84.8488 22.596C84.5995 22.596 84.3558 22.6243 84.1178 22.681C83.8912 22.7377 83.6815 22.8283 83.4888 22.953C83.3075 23.0777 83.1602 23.242 83.0468 23.446C82.9335 23.6387 82.8768 23.871 82.8768 24.143C82.8768 24.551 83.0185 24.8627 83.3018 25.078C83.5852 25.2933 83.9365 25.4803 84.3558 25.639C84.7752 25.7977 85.2342 25.9507 85.7328 26.098C86.2315 26.2453 86.6905 26.4493 87.1098 26.71C87.5292 26.9707 87.8805 27.3163 88.1638 27.747C88.4472 28.1777 88.5888 28.75 88.5888 29.464C88.5888 30.11 88.4698 30.6767 88.2318 31.164C87.9938 31.64 87.6708 32.0367 87.2628 32.354C86.8662 32.6713 86.4015 32.9093 85.8688 33.068C85.3362 33.2267 84.7752 33.306 84.1858 33.306C83.4378 33.306 82.7182 33.1813 82.0268 32.932C81.3355 32.6827 80.7405 32.2633 80.2418 31.674L81.8568 30.11C82.1175 30.5067 82.4575 30.8183 82.8768 31.045C83.3075 31.2603 83.7608 31.368 84.2368 31.368C84.4862 31.368 84.7355 31.334 84.9848 31.266C85.2342 31.198 85.4608 31.096 85.6648 30.96C85.8688 30.824 86.0332 30.654 86.1578 30.45C86.2825 30.2347 86.3448 29.991 86.3448 29.719C86.3448 29.277 86.2032 28.937 85.9198 28.699C85.6365 28.461 85.2852 28.2627 84.8658 28.104C84.4465 27.934 83.9875 27.7753 83.4888 27.628C82.9902 27.4807 82.5312 27.2823 82.1118 27.033C81.6925 26.7723 81.3412 26.4323 81.0578 26.013C80.7745 25.5823 80.6328 25.01 80.6328 24.296C80.6328 23.6727 80.7575 23.1343 81.0068 22.681C81.2675 22.2277 81.6018 21.8537 82.0098 21.559C82.4292 21.253 82.9052 21.0263 83.4378 20.879C83.9705 20.7317 84.5145 20.658 85.0698 20.658C85.7045 20.658 86.3165 20.7543 86.9058 20.947C87.5065 21.1397 88.0448 21.457 88.5208 21.899L86.9568 23.548ZM89.6806 26.574V24.84H91.3636V22.477H93.4036V24.84H95.6476V26.574H93.4036V30.144C93.4036 30.552 93.4772 30.875 93.6246 31.113C93.7832 31.351 94.0892 31.47 94.5426 31.47C94.7239 31.47 94.9222 31.453 95.1376 31.419C95.3529 31.3737 95.5229 31.3057 95.6476 31.215V32.932C95.4322 33.034 95.1659 33.102 94.8486 33.136C94.5426 33.1813 94.2706 33.204 94.0326 33.204C93.4886 33.204 93.0409 33.1417 92.6896 33.017C92.3496 32.9037 92.0776 32.728 91.8736 32.49C91.6809 32.2407 91.5449 31.9347 91.4656 31.572C91.3976 31.2093 91.3636 30.79 91.3636 30.314V26.574H89.6806ZM96.832 28.92C96.832 28.274 96.9453 27.6903 97.172 27.169C97.41 26.6363 97.7273 26.183 98.124 25.809C98.5207 25.435 98.991 25.146 99.535 24.942C100.079 24.738 100.657 24.636 101.269 24.636C101.881 24.636 102.459 24.738 103.003 24.942C103.547 25.146 104.017 25.435 104.414 25.809C104.811 26.183 105.122 26.6363 105.349 27.169C105.587 27.6903 105.706 28.274 105.706 28.92C105.706 29.566 105.587 30.1553 105.349 30.688C105.122 31.2093 104.811 31.657 104.414 32.031C104.017 32.405 103.547 32.694 103.003 32.898C102.459 33.102 101.881 33.204 101.269 33.204C100.657 33.204 100.079 33.102 99.535 32.898C98.991 32.694 98.5207 32.405 98.124 32.031C97.7273 31.657 97.41 31.2093 97.172 30.688C96.9453 30.1553 96.832 29.566 96.832 28.92ZM98.872 28.92C98.872 29.2373 98.923 29.5433 99.025 29.838C99.1383 30.1327 99.297 30.3933 99.501 30.62C99.7163 30.8467 99.9713 31.028 100.266 31.164C100.561 31.3 100.895 31.368 101.269 31.368C101.643 31.368 101.977 31.3 102.272 31.164C102.567 31.028 102.816 30.8467 103.02 30.62C103.235 30.3933 103.394 30.1327 103.496 29.838C103.609 29.5433 103.666 29.2373 103.666 28.92C103.666 28.6027 103.609 28.2967 103.496 28.002C103.394 27.7073 103.235 27.4467 103.02 27.22C102.816 26.9933 102.567 26.812 102.272 26.676C101.977 26.54 101.643 26.472 101.269 26.472C100.895 26.472 100.561 26.54 100.266 26.676C99.9713 26.812 99.7163 26.9933 99.501 27.22C99.297 27.4467 99.1383 27.7073 99.025 28.002C98.923 28.2967 98.872 28.6027 98.872 28.92ZM107.616 24.84H109.656V26.132H109.69C109.917 25.656 110.24 25.2877 110.659 25.027C111.078 24.7663 111.56 24.636 112.104 24.636C112.229 24.636 112.348 24.6473 112.461 24.67C112.586 24.6927 112.71 24.721 112.835 24.755V26.727C112.665 26.6817 112.495 26.6477 112.325 26.625C112.166 26.591 112.008 26.574 111.849 26.574C111.373 26.574 110.988 26.6647 110.693 26.846C110.41 27.016 110.189 27.2143 110.03 27.441C109.883 27.6677 109.781 27.8943 109.724 28.121C109.679 28.3477 109.656 28.5177 109.656 28.631V33H107.616V24.84ZM115.557 29.634C115.625 30.246 115.863 30.722 116.271 31.062C116.679 31.402 117.172 31.572 117.75 31.572C118.26 31.572 118.685 31.47 119.025 31.266C119.376 31.0507 119.682 30.7843 119.943 30.467L121.405 31.572C120.929 32.1613 120.396 32.5807 119.807 32.83C119.217 33.0793 118.6 33.204 117.954 33.204C117.342 33.204 116.764 33.102 116.22 32.898C115.676 32.694 115.205 32.405 114.809 32.031C114.412 31.657 114.095 31.2093 113.857 30.688C113.63 30.1553 113.517 29.566 113.517 28.92C113.517 28.274 113.63 27.6903 113.857 27.169C114.095 26.6363 114.412 26.183 114.809 25.809C115.205 25.435 115.676 25.146 116.22 24.942C116.764 24.738 117.342 24.636 117.954 24.636C118.52 24.636 119.036 24.738 119.501 24.942C119.977 25.1347 120.379 25.418 120.708 25.792C121.048 26.166 121.308 26.6307 121.49 27.186C121.682 27.73 121.779 28.359 121.779 29.073V29.634H115.557ZM119.739 28.104C119.727 27.5033 119.54 27.033 119.178 26.693C118.815 26.3417 118.311 26.166 117.665 26.166C117.053 26.166 116.565 26.3417 116.203 26.693C115.851 27.0443 115.636 27.5147 115.557 28.104H119.739Z" fill="white"/>
<path d="M43.937 8.146H45.4L48.425 16H46.951L46.214 13.921H43.079L42.342 16H40.923L43.937 8.146ZM43.453 12.876H45.851L44.674 9.499H44.641L43.453 12.876ZM48.2426 10.313H49.6066L51.0476 14.68H51.0696L52.4556 10.313H53.7536L51.7186 16H50.3106L48.2426 10.313ZM59.2707 14.735C59.2707 14.889 59.289 14.999 59.3257 15.065C59.3697 15.131 59.4503 15.164 59.5677 15.164C59.6043 15.164 59.6483 15.164 59.6997 15.164C59.751 15.164 59.8097 15.1567 59.8757 15.142V16.011C59.8317 16.0257 59.773 16.0403 59.6997 16.055C59.6337 16.077 59.564 16.0953 59.4907 16.11C59.4173 16.1247 59.344 16.1357 59.2707 16.143C59.1973 16.1503 59.135 16.154 59.0837 16.154C58.827 16.154 58.6143 16.1027 58.4457 16C58.277 15.8973 58.167 15.7177 58.1157 15.461C57.8663 15.703 57.5583 15.879 57.1917 15.989C56.8323 16.099 56.484 16.154 56.1467 16.154C55.89 16.154 55.6443 16.1173 55.4097 16.044C55.175 15.978 54.966 15.879 54.7827 15.747C54.6067 15.6077 54.4637 15.4353 54.3537 15.23C54.251 15.0173 54.1997 14.7717 54.1997 14.493C54.1997 14.141 54.262 13.855 54.3867 13.635C54.5187 13.415 54.6873 13.2427 54.8927 13.118C55.1053 12.9933 55.34 12.9053 55.5967 12.854C55.8607 12.7953 56.1247 12.7513 56.3887 12.722C56.616 12.678 56.8323 12.6487 57.0377 12.634C57.243 12.612 57.4227 12.579 57.5767 12.535C57.738 12.491 57.8627 12.425 57.9507 12.337C58.046 12.2417 58.0937 12.1023 58.0937 11.919C58.0937 11.7577 58.0533 11.6257 57.9727 11.523C57.8993 11.4203 57.804 11.3433 57.6867 11.292C57.5767 11.2333 57.452 11.1967 57.3127 11.182C57.1733 11.16 57.0413 11.149 56.9167 11.149C56.5647 11.149 56.275 11.2223 56.0477 11.369C55.8203 11.5157 55.692 11.743 55.6627 12.051H54.4087C54.4307 11.6843 54.5187 11.38 54.6727 11.138C54.8267 10.896 55.021 10.7017 55.2557 10.555C55.4977 10.4083 55.769 10.3057 56.0697 10.247C56.3703 10.1883 56.6783 10.159 56.9937 10.159C57.2723 10.159 57.5473 10.1883 57.8187 10.247C58.09 10.3057 58.332 10.401 58.5447 10.533C58.7647 10.665 58.9407 10.8373 59.0727 11.05C59.2047 11.2553 59.2707 11.5083 59.2707 11.809V14.735ZM58.0167 13.151C57.826 13.2757 57.5913 13.3527 57.3127 13.382C57.034 13.404 56.7553 13.4407 56.4767 13.492C56.3447 13.514 56.2163 13.547 56.0917 13.591C55.967 13.6277 55.857 13.6827 55.7617 13.756C55.6663 13.822 55.5893 13.9137 55.5307 14.031C55.4793 14.141 55.4537 14.2767 55.4537 14.438C55.4537 14.5773 55.494 14.6947 55.5747 14.79C55.6553 14.8853 55.7507 14.9623 55.8607 15.021C55.978 15.0723 56.1027 15.109 56.2347 15.131C56.374 15.153 56.4987 15.164 56.6087 15.164C56.748 15.164 56.8983 15.1457 57.0597 15.109C57.221 15.0723 57.3713 15.01 57.5107 14.922C57.6573 14.834 57.7783 14.724 57.8737 14.592C57.969 14.4527 58.0167 14.284 58.0167 14.086V13.151ZM60.653 8.146H61.907V9.334H60.653V8.146ZM60.653 10.313H61.907V16H60.653V10.313ZM63.3063 8.146H64.5603V16H63.3063V8.146ZM70.6896 14.735C70.6896 14.889 70.7079 14.999 70.7446 15.065C70.7886 15.131 70.8693 15.164 70.9866 15.164C71.0233 15.164 71.0673 15.164 71.1186 15.164C71.1699 15.164 71.2286 15.1567 71.2946 15.142V16.011C71.2506 16.0257 71.1919 16.0403 71.1186 16.055C71.0526 16.077 70.9829 16.0953 70.9096 16.11C70.8363 16.1247 70.7629 16.1357 70.6896 16.143C70.6163 16.1503 70.5539 16.154 70.5026 16.154C70.2459 16.154 70.0333 16.1027 69.8646 16C69.6959 15.8973 69.5859 15.7177 69.5346 15.461C69.2853 15.703 68.9773 15.879 68.6106 15.989C68.2513 16.099 67.9029 16.154 67.5656 16.154C67.3089 16.154 67.0633 16.1173 66.8286 16.044C66.5939 15.978 66.3849 15.879 66.2016 15.747C66.0256 15.6077 65.8826 15.4353 65.7726 15.23C65.6699 15.0173 65.6186 14.7717 65.6186 14.493C65.6186 14.141 65.6809 13.855 65.8056 13.635C65.9376 13.415 66.1063 13.2427 66.3116 13.118C66.5243 12.9933 66.7589 12.9053 67.0156 12.854C67.2796 12.7953 67.5436 12.7513 67.8076 12.722C68.0349 12.678 68.2513 12.6487 68.4566 12.634C68.6619 12.612 68.8416 12.579 68.9956 12.535C69.1569 12.491 69.2816 12.425 69.3696 12.337C69.4649 12.2417 69.5126 12.1023 69.5126 11.919C69.5126 11.7577 69.4723 11.6257 69.3916 11.523C69.3183 11.4203 69.2229 11.3433 69.1056 11.292C68.9956 11.2333 68.8709 11.1967 68.7316 11.182C68.5923 11.16 68.4603 11.149 68.3356 11.149C67.9836 11.149 67.6939 11.2223 67.4666 11.369C67.2393 11.5157 67.1109 11.743 67.0816 12.051H65.8276C65.8496 11.6843 65.9376 11.38 66.0916 11.138C66.2456 10.896 66.4399 10.7017 66.6746 10.555C66.9166 10.4083 67.1879 10.3057 67.4886 10.247C67.7893 10.1883 68.0973 10.159 68.4126 10.159C68.6913 10.159 68.9663 10.1883 69.2376 10.247C69.5089 10.3057 69.7509 10.401 69.9636 10.533C70.1836 10.665 70.3596 10.8373 70.4916 11.05C70.6236 11.2553 70.6896 11.5083 70.6896 11.809V14.735ZM69.4356 13.151C69.2449 13.2757 69.0103 13.3527 68.7316 13.382C68.4529 13.404 68.1743 13.4407 67.8956 13.492C67.7636 13.514 67.6353 13.547 67.5106 13.591C67.3859 13.6277 67.2759 13.6827 67.1806 13.756C67.0853 13.822 67.0083 13.9137 66.9496 14.031C66.8983 14.141 66.8726 14.2767 66.8726 14.438C66.8726 14.5773 66.9129 14.6947 66.9936 14.79C67.0743 14.8853 67.1696 14.9623 67.2796 15.021C67.3969 15.0723 67.5216 15.109 67.6536 15.131C67.7929 15.153 67.9176 15.164 68.0276 15.164C68.1669 15.164 68.3173 15.1457 68.4786 15.109C68.6399 15.0723 68.7903 15.01 68.9296 14.922C69.0763 14.834 69.1973 14.724 69.2926 14.592C69.3879 14.4527 69.4356 14.284 69.4356 14.086V13.151ZM72.0719 8.146H73.3259V11.05H73.3479C73.4359 10.9107 73.5422 10.786 73.6669 10.676C73.7916 10.566 73.9272 10.4743 74.0739 10.401C74.2279 10.3203 74.3856 10.2617 74.5469 10.225C74.7156 10.181 74.8806 10.159 75.0419 10.159C75.4892 10.159 75.8779 10.2397 76.2079 10.401C76.5452 10.555 76.8239 10.7713 77.0439 11.05C77.2639 11.3213 77.4289 11.6403 77.5389 12.007C77.6489 12.3737 77.7039 12.766 77.7039 13.184C77.7039 13.5653 77.6526 13.9357 77.5499 14.295C77.4546 14.6543 77.3042 14.9733 77.0989 15.252C76.9009 15.5233 76.6479 15.7433 76.3399 15.912C76.0319 16.0733 75.6689 16.154 75.2509 16.154C75.0602 16.154 74.8659 16.1393 74.6679 16.11C74.4772 16.088 74.2939 16.0403 74.1179 15.967C73.9419 15.8937 73.7806 15.7983 73.6339 15.681C73.4946 15.5637 73.3772 15.4097 73.2819 15.219H73.2599V16H72.0719V8.146ZM76.4499 13.162C76.4499 12.9053 76.4169 12.656 76.3509 12.414C76.2849 12.172 76.1859 11.9593 76.0539 11.776C75.9219 11.5853 75.7569 11.435 75.5589 11.325C75.3609 11.2077 75.1336 11.149 74.8769 11.149C74.3489 11.149 73.9492 11.3323 73.6779 11.699C73.4139 12.0657 73.2819 12.5533 73.2819 13.162C73.2819 13.448 73.3149 13.7157 73.3809 13.965C73.4542 14.207 73.5606 14.416 73.6999 14.592C73.8392 14.768 74.0042 14.9073 74.1949 15.01C74.3929 15.1127 74.6202 15.164 74.8769 15.164C75.1629 15.164 75.4049 15.1053 75.6029 14.988C75.8009 14.8707 75.9622 14.7203 76.0869 14.537C76.2189 14.3463 76.3106 14.1337 76.3619 13.899C76.4206 13.657 76.4499 13.4113 76.4499 13.162ZM78.7965 8.146H80.0505V16H78.7965V8.146ZM85.3218 12.656C85.3072 12.458 85.2632 12.2673 85.1898 12.084C85.1238 11.9007 85.0285 11.743 84.9038 11.611C84.7865 11.4717 84.6398 11.3617 84.4638 11.281C84.2952 11.193 84.1045 11.149 83.8918 11.149C83.6718 11.149 83.4702 11.1893 83.2868 11.27C83.1108 11.3433 82.9568 11.4497 82.8248 11.589C82.7002 11.721 82.5975 11.8787 82.5168 12.062C82.4435 12.2453 82.4032 12.4433 82.3958 12.656H85.3218ZM82.3958 13.481C82.3958 13.701 82.4252 13.9137 82.4838 14.119C82.5498 14.3243 82.6452 14.504 82.7698 14.658C82.8945 14.812 83.0522 14.9367 83.2428 15.032C83.4335 15.12 83.6608 15.164 83.9248 15.164C84.2915 15.164 84.5848 15.087 84.8048 14.933C85.0322 14.7717 85.2008 14.5333 85.3108 14.218H86.4988C86.4328 14.526 86.3192 14.801 86.1578 15.043C85.9965 15.285 85.8022 15.4903 85.5748 15.659C85.3475 15.8203 85.0908 15.9413 84.8048 16.022C84.5262 16.11 84.2328 16.154 83.9248 16.154C83.4775 16.154 83.0815 16.0807 82.7368 15.934C82.3922 15.7873 82.0988 15.582 81.8568 15.318C81.6222 15.054 81.4425 14.7387 81.3178 14.372C81.2005 14.0053 81.1418 13.602 81.1418 13.162C81.1418 12.7587 81.2042 12.3773 81.3288 12.018C81.4608 11.6513 81.6442 11.3323 81.8788 11.061C82.1208 10.7823 82.4105 10.5623 82.7478 10.401C83.0852 10.2397 83.4665 10.159 83.8918 10.159C84.3392 10.159 84.7388 10.2543 85.0908 10.445C85.4502 10.6283 85.7472 10.874 85.9818 11.182C86.2165 11.49 86.3852 11.8457 86.4878 12.249C86.5978 12.645 86.6272 13.0557 86.5758 13.481H82.3958ZM93.1977 16.154C92.743 16.154 92.336 16.0807 91.9767 15.934C91.6247 15.78 91.324 15.571 91.0747 15.307C90.8327 15.043 90.6457 14.7277 90.5137 14.361C90.389 13.9943 90.3267 13.591 90.3267 13.151C90.3267 12.7183 90.389 12.3187 90.5137 11.952C90.6457 11.5853 90.8327 11.27 91.0747 11.006C91.324 10.742 91.6247 10.5367 91.9767 10.39C92.336 10.236 92.743 10.159 93.1977 10.159C93.6523 10.159 94.0557 10.236 94.4077 10.39C94.767 10.5367 95.0677 10.742 95.3097 11.006C95.559 11.27 95.746 11.5853 95.8707 11.952C96.0027 12.3187 96.0687 12.7183 96.0687 13.151C96.0687 13.591 96.0027 13.9943 95.8707 14.361C95.746 14.7277 95.559 15.043 95.3097 15.307C95.0677 15.571 94.767 15.78 94.4077 15.934C94.0557 16.0807 93.6523 16.154 93.1977 16.154ZM93.1977 15.164C93.4763 15.164 93.7183 15.1053 93.9237 14.988C94.129 14.8707 94.2977 14.7167 94.4297 14.526C94.5617 14.3353 94.657 14.1227 94.7157 13.888C94.7817 13.646 94.8147 13.4003 94.8147 13.151C94.8147 12.909 94.7817 12.667 94.7157 12.425C94.657 12.183 94.5617 11.9703 94.4297 11.787C94.2977 11.5963 94.129 11.4423 93.9237 11.325C93.7183 11.2077 93.4763 11.149 93.1977 11.149C92.919 11.149 92.677 11.2077 92.4717 11.325C92.2663 11.4423 92.0977 11.5963 91.9657 11.787C91.8337 11.9703 91.7347 12.183 91.6687 12.425C91.61 12.667 91.5807 12.909 91.5807 13.151C91.5807 13.4003 91.61 13.646 91.6687 13.888C91.7347 14.1227 91.8337 14.3353 91.9657 14.526C92.0977 14.7167 92.2663 14.8707 92.4717 14.988C92.677 15.1053 92.919 15.164 93.1977 15.164ZM97.1112 10.313H98.2992V11.149L98.3212 11.171C98.5118 10.8557 98.7612 10.61 99.0692 10.434C99.3772 10.2507 99.7182 10.159 100.092 10.159C100.716 10.159 101.207 10.3203 101.566 10.643C101.926 10.9657 102.105 11.4497 102.105 12.095V16H100.851V12.425C100.837 11.9777 100.741 11.655 100.565 11.457C100.389 11.2517 100.114 11.149 99.7402 11.149C99.5275 11.149 99.3368 11.1893 99.1682 11.27C98.9995 11.3433 98.8565 11.4497 98.7392 11.589C98.6218 11.721 98.5302 11.8787 98.4642 12.062C98.3982 12.2453 98.3652 12.4397 98.3652 12.645V16H97.1112V10.313ZM105.917 10.313H106.863V8.608H108.117V10.313H109.25V11.248H108.117V14.284C108.117 14.416 108.121 14.5297 108.128 14.625C108.143 14.7203 108.168 14.801 108.205 14.867C108.249 14.933 108.311 14.9843 108.392 15.021C108.473 15.0503 108.583 15.065 108.722 15.065C108.81 15.065 108.898 15.065 108.986 15.065C109.074 15.0577 109.162 15.043 109.25 15.021V15.989C109.111 16.0037 108.975 16.0183 108.843 16.033C108.711 16.0477 108.575 16.055 108.436 16.055C108.106 16.055 107.838 16.0257 107.633 15.967C107.435 15.901 107.277 15.8093 107.16 15.692C107.05 15.5673 106.973 15.4133 106.929 15.23C106.892 15.0467 106.87 14.8377 106.863 14.603V11.248H105.917V10.313ZM110.152 8.146H111.406V11.061H111.428C111.582 10.8043 111.81 10.5917 112.11 10.423C112.418 10.247 112.759 10.159 113.133 10.159C113.757 10.159 114.248 10.3203 114.607 10.643C114.967 10.9657 115.146 11.4497 115.146 12.095V16H113.892V12.425C113.878 11.9777 113.782 11.655 113.606 11.457C113.43 11.2517 113.155 11.149 112.781 11.149C112.569 11.149 112.378 11.1893 112.209 11.27C112.041 11.3433 111.898 11.4497 111.78 11.589C111.663 11.721 111.571 11.8787 111.505 12.062C111.439 12.2453 111.406 12.4397 111.406 12.645V16H110.152V8.146ZM120.374 12.656C120.359 12.458 120.315 12.2673 120.242 12.084C120.176 11.9007 120.08 11.743 119.956 11.611C119.838 11.4717 119.692 11.3617 119.516 11.281C119.347 11.193 119.156 11.149 118.944 11.149C118.724 11.149 118.522 11.1893 118.339 11.27C118.163 11.3433 118.009 11.4497 117.877 11.589C117.752 11.721 117.649 11.8787 117.569 12.062C117.495 12.2453 117.455 12.4433 117.448 12.656H120.374ZM117.448 13.481C117.448 13.701 117.477 13.9137 117.536 14.119C117.602 14.3243 117.697 14.504 117.822 14.658C117.946 14.812 118.104 14.9367 118.295 15.032C118.485 15.12 118.713 15.164 118.977 15.164C119.343 15.164 119.637 15.087 119.857 14.933C120.084 14.7717 120.253 14.5333 120.363 14.218H121.551C121.485 14.526 121.371 14.801 121.21 15.043C121.048 15.285 120.854 15.4903 120.627 15.659C120.399 15.8203 120.143 15.9413 119.857 16.022C119.578 16.11 119.285 16.154 118.977 16.154C118.529 16.154 118.133 16.0807 117.789 15.934C117.444 15.7873 117.151 15.582 116.909 15.318C116.674 15.054 116.494 14.7387 116.37 14.372C116.252 14.0053 116.194 13.602 116.194 13.162C116.194 12.7587 116.256 12.3773 116.381 12.018C116.513 11.6513 116.696 11.3323 116.931 11.061C117.173 10.7823 117.462 10.5623 117.8 10.401C118.137 10.2397 118.518 10.159 118.944 10.159C119.391 10.159 119.791 10.2543 120.143 10.445C120.502 10.6283 120.799 10.874 121.034 11.182C121.268 11.49 121.437 11.8457 121.54 12.249C121.65 12.645 121.679 13.0557 121.628 13.481H117.448Z" fill="#DEDEDE"/>
</svg>
