<svg width="16" height="16" viewBox="0 0 16 16" fill="none" xmlns="http://www.w3.org/2000/svg">
<path d="M0.379994 8.92427L7.06556 15.6098C7.32552 15.87 7.6372 16 8.00006 16C8.35616 16 8.66421 15.87 8.92438 15.6098L9.69454 14.8396C9.95474 14.5931 10.0848 14.285 10.0848 13.9153C10.0848 13.5456 9.95474 13.2375 9.69454 12.991L6.68554 9.97175L13.9155 9.97175C14.2714 9.97175 14.5607 9.84341 14.7832 9.58662C15.0057 9.32983 15.1169 9.02002 15.1169 8.65726L15.1169 7.3427C15.1169 6.97984 15.0057 6.67014 14.7832 6.41335C14.5607 6.15656 14.2714 6.02832 13.9155 6.02832L6.68568 6.02832L9.69464 3.01914C9.95485 2.75915 10.0849 2.44758 10.0849 2.08461C10.0849 1.72171 9.95485 1.41017 9.69465 1.15018L8.92449 0.379988C8.65738 0.126651 8.34933 1.04023e-06 8.00017 1.0097e-06C7.6441 9.78573e-07 7.3325 0.126651 7.06563 0.379988L0.380103 7.06552C0.126766 7.31885 7.36894e-06 7.63028 7.33662e-06 8.00005C7.3037e-06 8.37655 0.126765 8.68478 0.379994 8.92427Z" fill="black"/>
</svg>
