<svg width="12" height="12" viewBox="0 0 12 12" fill="none" xmlns="http://www.w3.org/2000/svg">
<path d="M11.7396 5.43839C11.9758 5.19813 12.0592 4.8455 11.9573 4.5177C11.8552 4.1899 11.5892 3.9559 11.2624 3.90624L8.35677 3.46558C8.23302 3.44677 8.12609 3.36577 8.07082 3.24864L6.77181 0.500601C6.62596 0.191864 6.32992 0 6 0C5.67032 0 5.37428 0.191864 5.22843 0.500601L3.92918 3.24864C3.87391 3.36577 3.76674 3.44677 3.64299 3.46558L0.737401 3.90649C0.410847 3.9559 0.144845 4.1899 0.0427218 4.5177C-0.0591613 4.8455 0.0242195 5.19813 0.260425 5.43839L2.36272 7.57723C2.45235 7.66853 2.49344 7.79995 2.4723 7.92836L1.9761 10.9488C1.92035 11.2881 2.05131 11.6244 2.31827 11.8271C2.58499 12.03 2.93221 12.0563 3.22465 11.8955L5.82315 10.4695C5.93392 10.4088 6.06608 10.4088 6.17685 10.4695L8.77559 11.8955C8.90247 11.9653 9.03991 11.9996 9.17664 11.9996C9.35421 11.9996 9.53107 11.9417 9.68197 11.8271C9.94893 11.6244 10.0799 11.2881 10.0241 10.9488L9.5277 7.92861C9.50656 7.79995 9.54765 7.66878 9.63727 7.57749L11.7396 5.43839ZM9.05433 8.01338L9.55053 11.0335C9.57552 11.1855 9.51905 11.3307 9.39939 11.4215C9.27948 11.5121 9.13026 11.5231 8.9993 11.4519L6.40056 10.0256C6.27537 9.9571 6.13745 9.92249 6 9.92249C5.86255 9.92249 5.72487 9.9571 5.59944 10.0258L3.00118 11.4519C2.86974 11.5231 2.72052 11.5121 2.60085 11.4215C2.48119 11.3307 2.42496 11.1858 2.44971 11.0335L2.94591 8.01338C2.99373 7.72195 2.90122 7.4245 2.69841 7.21834L0.59587 5.07925C0.489902 4.9714 0.453859 4.81941 0.499754 4.67269C0.545409 4.52572 0.660028 4.4249 0.806364 4.40258L3.71171 3.96192C3.99213 3.91954 4.23459 3.73595 4.35978 3.4706L5.65903 0.722561C5.72439 0.584118 5.85198 0.501604 5.99976 0.501604C6.14778 0.501604 6.27513 0.584118 6.34073 0.722561L7.63998 3.4706C7.76517 3.73595 8.00739 3.91954 8.2878 3.96192L11.1934 4.40258C11.3397 4.4249 11.4544 4.52572 11.5 4.67269C11.5457 4.81941 11.5099 4.9714 11.4039 5.07925L9.30159 7.21809C9.09878 7.4245 9.00627 7.7217 9.05433 8.01338Z" fill="#999999"/>
</svg>
