<svg width="18" height="18" viewBox="0 0 18 18" fill="none" xmlns="http://www.w3.org/2000/svg">
<path d="M9 0C4.05 0 0 4.05 0 9C0 13.95 4.05 18 9 18C13.95 18 18 13.95 18 9C18 4.05 13.95 0 9 0ZM12.15 5.4C12.87 5.4 13.5 6.03 13.5 6.75C13.5 7.47 12.87 8.1 12.15 8.1C11.43 8.1 10.8 7.47 10.8 6.75C10.8 6.03 11.43 5.4 12.15 5.4ZM5.85 5.4C6.57 5.4 7.2 6.03 7.2 6.75C7.2 7.47 6.57 8.1 5.85 8.1C5.13 8.1 4.5 7.47 4.5 6.75C4.5 6.03 5.13 5.4 5.85 5.4ZM9 14.4C6.66 14.4 4.68 12.87 3.96 10.8H14.04C13.32 12.87 11.34 14.4 9 14.4Z" fill="#999999"/>
</svg>
