<svg width="18" height="18" viewBox="0 0 18 18" fill="none" xmlns="http://www.w3.org/2000/svg">
<path d="M16.714 11.9927L9.24412 5.14847C8.72116 4.65368 8.08265 4.40633 7.3284 4.40633C6.62554 4.40633 6.02999 4.63012 5.54135 5.0778C5.05257 5.52539 4.80836 6.07126 4.80836 6.71528C4.80836 7.40639 5.07837 7.9915 5.61835 8.47053L10.8898 13.3004C10.9755 13.3789 11.07 13.4181 11.1728 13.4181C11.3099 13.4181 11.5114 13.2963 11.7769 13.053C12.0425 12.8096 12.1752 12.6248 12.1752 12.4992C12.1752 12.4051 12.1326 12.3187 12.0468 12.2401L6.77555 7.41027C6.56128 7.19819 6.45415 6.96656 6.45415 6.71528C6.45415 6.48741 6.53552 6.29897 6.6984 6.14977C6.8612 6.00054 7.06704 5.92598 7.31562 5.92598C7.60702 5.92598 7.86411 6.02009 8.08706 6.20857L15.5568 13.0528C16.0971 13.5474 16.3671 14.1167 16.3671 14.7606C16.3671 15.2635 16.1869 15.6797 15.8271 16.0094C15.4668 16.3392 15.0128 16.5044 14.464 16.5044C13.7611 16.5044 13.1398 16.2568 12.6001 15.762L2.62277 6.60896C1.97133 6.01213 1.64579 5.30134 1.64579 4.47672C1.64579 3.64421 1.95854 2.93343 2.58431 2.34448C3.20999 1.75562 3.97706 1.46106 4.88572 1.46106C5.75989 1.46106 6.53552 1.76341 7.21267 2.36792L15.0041 9.51837C15.0897 9.59701 15.1882 9.636 15.2998 9.636C15.4369 9.636 15.6364 9.51627 15.8975 9.27679C16.1591 9.03732 16.2895 8.85474 16.2895 8.72911C16.2895 8.63499 16.2468 8.54851 16.1612 8.46999L8.38265 1.33122C7.39699 0.443793 6.2271 0 4.8728 0C3.50994 0 2.35717 0.435954 1.41433 1.30766C0.471397 2.1794 0 3.23966 0 4.48827C0 5.71337 0.484186 6.7775 1.45274 7.68065L11.4428 16.8221C12.2999 17.6072 13.3068 18 14.464 18C15.4668 18 16.307 17.6897 16.984 17.0692C17.6611 16.4491 18 15.6792 18 14.7602C17.9997 13.6844 17.571 12.7618 16.714 11.9927Z" fill="#999999"/>
</svg>
