<svg width="34" height="30" viewBox="0 0 34 30" fill="none" xmlns="http://www.w3.org/2000/svg">
<path d="M16.6956 6.52173C16.3357 6.52173 16.0435 6.81393 16.0435 7.1739C16.0435 7.53387 16.3357 7.82608 16.6956 7.82608C17.0556 7.82608 17.3478 7.53387 17.3478 7.1739C17.3478 6.81393 17.0556 6.52173 16.6956 6.52173Z" fill="#555555"/>
<path d="M5.86946 18.2609C6.22943 18.2609 6.52163 17.9687 6.52163 17.6087C6.52163 17.2487 6.22943 16.9565 5.86946 16.9565C5.50949 16.9565 5.21729 17.2487 5.21729 17.6087C5.21729 17.9687 5.50949 18.2609 5.86946 18.2609Z" fill="#555555"/>
<path d="M21.913 0C16.0417 0 11.2227 4.04806 10.85 9.14699C5.25841 9.42748 0 13.4595 0 18.913C0 21.1921 0.901834 23.4003 2.54348 25.15C2.86829 26.489 2.47393 27.9082 1.49541 28.8867C1.30893 29.0732 1.25314 29.3537 1.35403 29.5975C1.45491 29.841 1.6926 30 1.95652 30C3.81649 30 5.60895 29.2706 6.94081 27.9854C8.23828 28.4276 9.93113 28.6957 11.4783 28.6957C17.3488 28.6957 22.1673 24.6486 22.541 19.5507C23.9065 19.4901 25.3268 19.2379 26.4505 18.855C27.7824 20.1402 29.5748 20.8696 31.4348 20.8696C31.6987 20.8696 31.9364 20.7106 32.0373 20.4671C32.1382 20.2233 32.0824 19.9428 31.8959 19.7563C30.9174 18.7778 30.523 17.3585 30.8478 16.0195C32.4895 14.2699 33.3913 12.0617 33.3913 9.78261C33.3913 4.11608 27.7278 0 21.913 0ZM11.4783 27.3913C9.93903 27.3913 8.18504 27.0892 7.01011 26.6217C6.75841 26.5213 6.47079 26.5873 6.28762 26.7873C5.50017 27.6481 4.47631 28.2483 3.36073 28.5242C3.97546 27.3465 4.13239 25.958 3.75841 24.6425C3.72886 24.5388 3.67408 24.444 3.59893 24.3668C2.11931 22.8429 1.30435 20.906 1.30435 18.913C1.30435 14.3173 5.96332 10.4348 11.4783 10.4348C16.686 10.4348 21.2609 14.0561 21.2609 18.913C21.2609 23.5881 16.8725 27.3913 11.4783 27.3913ZM29.7924 15.2364C29.7172 15.3139 29.6624 15.4086 29.6329 15.5121C29.2589 16.8276 29.4158 18.216 30.0306 19.3938C28.915 19.1181 27.8911 18.5177 27.1037 17.6568C26.9205 17.4571 26.6329 17.3909 26.3812 17.4913C25.3629 17.8963 23.9103 18.1768 22.539 18.2446C22.3484 15.7783 21.1182 13.4603 19.0149 11.7391H27.5217C27.882 11.7391 28.1739 11.4472 28.1739 11.087C28.1739 10.7267 27.882 10.4348 27.5217 10.4348H17.0113C15.5309 9.68122 13.8686 9.24176 12.1577 9.14954C12.5324 4.76928 16.7647 1.30435 21.913 1.30435C27.428 1.30435 32.087 5.18682 32.087 9.78261C32.087 11.7756 31.272 13.7125 29.7924 15.2364Z" fill="#555555"/>
<path d="M16.6957 16.9565H8.47835C8.11812 16.9565 7.82617 17.2485 7.82617 17.6087C7.82617 17.9689 8.11812 18.2609 8.47835 18.2609H16.6957C17.056 18.2609 17.3479 17.9689 17.3479 17.6087C17.3479 17.2485 17.056 16.9565 16.6957 16.9565Z" fill="#555555"/>
<path d="M16.6955 20.8696H5.86946C5.50923 20.8696 5.21729 21.1615 5.21729 21.5217C5.21729 21.882 5.50923 22.1739 5.86946 22.1739H16.6955C17.0558 22.1739 17.3477 21.882 17.3477 21.5217C17.3477 21.1615 17.0558 20.8696 16.6955 20.8696Z" fill="#555555"/>
<path d="M27.5217 6.52173H19.3043C18.944 6.52173 18.6521 6.81368 18.6521 7.1739C18.6521 7.53413 18.944 7.82608 19.3043 7.82608H27.5217C27.8819 7.82608 28.1738 7.53413 28.1738 7.1739C28.1738 6.81368 27.8819 6.52173 27.5217 6.52173Z" fill="#555555"/>
</svg>
