<svg width="16" height="16" viewBox="0 0 16 16" fill="none" xmlns="http://www.w3.org/2000/svg">
<path d="M8 16C12.4183 16 16 12.4183 16 8C16 3.58172 12.4183 0 8 0C3.58172 0 0 3.58172 0 8C0 12.4183 3.58172 16 8 16Z" fill="#D90100"/>
<path fill-rule="evenodd" clip-rule="evenodd" d="M10.9883 4.13346C11.1604 3.95551 11.4396 3.95551 11.6118 4.13346C11.784 4.31142 11.784 4.59993 11.6118 4.77789L8.62281 7.8669L11.8694 11.2221C12.0416 11.4 12.0416 11.6886 11.8694 11.8665C11.6972 12.0445 11.418 12.0445 11.2458 11.8665L7.99925 8.51133L4.7527 11.8665C4.58051 12.0445 4.30133 12.0445 4.12914 11.8665C3.95695 11.6886 3.95695 11.4 4.12914 11.2221L7.3757 7.8669L4.38669 4.77789C4.2145 4.59993 4.2145 4.31142 4.38669 4.13346C4.55888 3.95551 4.83806 3.95551 5.01025 4.13346L7.99925 7.22248L10.9883 4.13346Z" fill="white"/>
</svg>
