<svg width="30" height="30" viewBox="0 0 30 30" fill="none" xmlns="http://www.w3.org/2000/svg">
<path d="M26.7896 21.3744C27.1518 20.8217 27.3633 20.1618 27.3633 19.4531C27.3633 17.5146 25.7862 15.9375 23.8477 15.9375C23.523 15.9375 23.2089 15.9827 22.9102 16.0654V14.0328C24.9135 13.6245 26.4258 11.8487 26.4258 9.72656V6.15234C26.4258 3.7292 24.4544 1.75781 22.0312 1.75781H18.5132C17.7107 0.691172 16.4346 0 15 0H7.96875C5.54561 0 3.57422 1.97139 3.57422 4.39453V9.72656C3.57422 11.8488 5.08652 13.6245 7.08984 14.0328V16.0654C6.79113 15.9826 6.47701 15.9375 6.15234 15.9375C4.21383 15.9375 2.63672 17.5146 2.63672 19.4531C2.63672 20.1618 2.84818 20.8217 3.21035 21.3744C1.36078 21.8927 0 23.5926 0 25.6055V29.1211C0 29.6065 0.393516 30 0.878906 30H11.4258C11.9112 30 12.3047 29.6065 12.3047 29.1211V25.6055C12.3047 23.5926 10.9439 21.8927 9.09434 21.3744C9.4565 20.8217 9.66797 20.1618 9.66797 19.4531C9.66797 18.5763 9.34459 17.7742 8.8118 17.1577L11.8484 14.1211H15H18.1516L21.1882 17.1577C20.6554 17.7742 20.332 18.5763 20.332 19.4531C20.332 20.1618 20.5435 20.8217 20.9057 21.3744C19.0561 21.8927 17.6953 23.5926 17.6953 25.6055V29.1211C17.6953 29.6065 18.0888 30 18.5742 30H29.1211C29.6065 30 30 29.6065 30 29.1211V25.6055C30 23.5926 28.6392 21.8927 26.7896 21.3744ZM6.15234 17.6953C7.1216 17.6953 7.91016 18.4839 7.91016 19.4531C7.91016 20.4224 7.1216 21.2109 6.15234 21.2109C5.18309 21.2109 4.39453 20.4224 4.39453 19.4531C4.39453 18.4839 5.18309 17.6953 6.15234 17.6953ZM10.5469 25.6055V28.2422H1.75781V25.6055C1.75781 24.1516 2.94064 22.9688 4.39453 22.9688H7.91016C9.36404 22.9688 10.5469 24.1516 10.5469 25.6055ZM17.6367 9.72656C17.6367 11.1804 16.4539 12.3633 15 12.3633H11.4844C11.2512 12.3633 11.0277 12.4559 10.8629 12.6207L8.84766 14.636V13.2422C8.84766 12.7568 8.45414 12.3633 7.96875 12.3633C6.51486 12.3633 5.33203 11.1804 5.33203 9.72656V4.39453C5.33203 2.94064 6.51486 1.75781 7.96875 1.75781H15C16.4539 1.75781 17.6367 2.94064 17.6367 4.39453V9.72656ZM23.8477 17.6953C24.8169 17.6953 25.6055 18.4839 25.6055 19.4531C25.6055 20.4224 24.8169 21.2109 23.8477 21.2109C22.8784 21.2109 22.0898 20.4224 22.0898 19.4531C22.0898 18.4839 22.8784 17.6953 23.8477 17.6953ZM21.1523 13.2422V14.636L19.1371 12.6207C18.9723 12.4559 18.7488 12.3633 18.5156 12.3633H18.5132C19.0662 11.6283 19.3945 10.7151 19.3945 9.72656V4.39453C19.3945 4.09359 19.364 3.79969 19.3061 3.51562H22.0312C23.4851 3.51562 24.668 4.69846 24.668 6.15234V9.72656C24.668 11.1804 23.4851 12.3633 22.0312 12.3633C21.5459 12.3633 21.1523 12.7568 21.1523 13.2422ZM28.2422 28.2422H19.4531V25.6055C19.4531 24.1516 20.636 22.9688 22.0898 22.9688H25.6055C27.0594 22.9688 28.2422 24.1516 28.2422 25.6055V28.2422Z" fill="#555555"/>
<path d="M14.7426 3.77303C14.3994 3.42978 13.8429 3.42978 13.4996 3.77303L10.6055 6.66721L9.46913 5.53084C9.12595 5.1876 8.56942 5.1876 8.22618 5.53084C7.88294 5.87408 7.88294 6.43055 8.22618 6.77379L9.98399 8.5316C10.3272 8.87478 10.8837 8.87484 11.2269 8.5316L14.7426 5.01598C15.0859 4.67279 15.0859 4.11627 14.7426 3.77303Z" fill="#555555"/>
</svg>
