<svg width="17" height="16" viewBox="0 0 17 16" fill="none" xmlns="http://www.w3.org/2000/svg">
<path d="M8.34914 15C12.2125 15 15.3443 11.866 15.3443 8C15.3443 4.13401 12.2125 1 8.34914 1C4.48583 1 1.354 4.13401 1.354 8C1.354 11.866 4.48583 15 8.34914 15Z" fill="#00AFF0"/>
<path d="M5.85018 11C8.88564 11 11.3464 8.53757 11.3464 5.5C11.3464 2.46243 8.88564 0 5.85018 0C2.81473 0 0.354004 2.46243 0.354004 5.5C0.354004 8.53757 2.81473 11 5.85018 11Z" fill="#00AFF0"/>
<path d="M10.8468 16C13.8822 16 16.3429 13.5376 16.3429 10.5C16.3429 7.46243 13.8822 5 10.8468 5C7.81131 5 5.35059 7.46243 5.35059 10.5C5.35059 13.5376 7.81131 16 10.8468 16Z" fill="#00AFF0"/>
<path d="M11.884 11.1303C11.5904 11.5478 11.1606 11.876 10.5949 12.112C10.0291 12.3499 9.35914 12.4676 8.584 12.4676C7.65435 12.4676 6.88765 12.306 6.28297 11.9823C5.85527 11.7498 5.50685 11.4385 5.23866 11.0504C4.97145 10.6623 4.8374 10.2842 4.8374 9.91657C4.8374 9.70407 4.91768 9.5215 5.07817 9.37032C5.23866 9.21717 5.44356 9.14188 5.69133 9.14188C5.89272 9.14188 6.06367 9.20024 6.20226 9.31947C6.34184 9.43772 6.46099 9.61279 6.55867 9.84572C6.67881 10.1226 6.80792 10.3536 6.94799 10.5386C7.08658 10.7236 7.28299 10.8773 7.5352 10.9975C7.78845 11.1167 8.12093 11.1776 8.53166 11.1776C9.09696 11.1776 9.55653 11.0568 9.91048 10.8139C10.2634 10.572 10.4409 10.2682 10.4409 9.9055C10.4409 9.61816 10.3451 9.3832 10.1547 9.20511C9.96376 9.02555 9.71752 8.88835 9.41543 8.7941C9.11383 8.69881 8.71005 8.59805 8.20361 8.4918C7.52715 8.34665 6.96037 8.17503 6.50479 7.98051C6.04867 7.78446 5.6858 7.51859 5.41859 7.18188C5.15039 6.84369 5.01678 6.42468 5.01678 5.92435C5.01678 5.44649 5.15784 5.02298 5.44098 4.65235C5.72364 4.28122 6.1319 3.9964 6.66824 3.79684C7.20359 3.59733 7.83373 3.49805 8.55701 3.49805C9.13524 3.49805 9.63571 3.5644 10.0579 3.69558C10.4802 3.82829 10.8296 4.00386 11.1077 4.22287C11.3864 4.44188 11.5902 4.67131 11.7184 4.91224C11.847 5.15169 11.9113 5.38813 11.9113 5.61558C11.9113 5.82457 11.8315 6.01416 11.671 6.18128C11.5105 6.3489 11.3101 6.43317 11.0703 6.43317C10.8515 6.43317 10.6855 6.38227 10.5718 6.28205C10.4582 6.18128 10.3351 6.01668 10.2029 5.78769C10.0309 5.46046 9.8261 5.20506 9.58583 5.02199C9.34556 4.83843 8.96073 4.74665 8.42932 4.74665C7.93733 4.74665 7.53952 4.84544 7.23743 5.04544C6.93534 5.24396 6.78383 5.4844 6.78383 5.76424C6.78383 5.93684 6.83618 6.08747 6.93835 6.21366C7.04053 6.34084 7.18213 6.44813 7.36304 6.53843C7.54199 6.62922 7.72444 6.70007 7.90836 6.7524C8.09229 6.8038 8.3969 6.8781 8.82159 6.9769C9.35196 7.09114 9.833 7.21783 10.2637 7.35553C10.6939 7.49372 11.0608 7.66183 11.3629 7.85783C11.6645 8.05536 11.9008 8.30577 12.0697 8.60807C12.2387 8.90939 12.324 9.27898 12.324 9.71701C12.3241 10.2408 12.1766 10.7122 11.884 11.1303Z" fill="white"/>
</svg>
