<svg width="17" height="16" viewBox="0 0 17 16" fill="none" xmlns="http://www.w3.org/2000/svg">
<path fill-rule="evenodd" clip-rule="evenodd" d="M8.01696 13.9988L5.35053 16V13.8803C4.45956 13.8003 3.6803 13.6802 3.01275 13.5199C1.92593 13.259 1.07439 12.4147 0.803584 11.3296C0.503864 10.1286 0.354004 8.68545 0.354004 7C0.354004 5.31454 0.503866 3.87133 0.803589 2.67038L0.803601 2.67038C1.07441 1.58528 1.92594 0.741019 3.01275 0.480087C4.34583 0.160029 6.1244 0 8.34845 0C10.5725 0 12.3511 0.160029 13.6841 0.480088C14.771 0.741022 15.6225 1.58529 15.8933 2.6704C16.193 3.87135 16.3429 5.31455 16.3429 7C16.3429 8.68546 16.193 10.1287 15.8933 11.3296L15.8933 11.3296C15.6225 12.4147 14.771 13.259 13.6841 13.5199C12.3511 13.84 10.5725 14 8.34845 14C8.23683 14 8.12633 13.9996 8.01696 13.9988L8.01696 13.9988Z" fill="#8C40C7"/>
<path d="M10.7185 12C10.5341 11.9445 10.3584 11.9072 10.1952 11.8401C8.50446 11.1448 6.94838 10.2478 5.71579 8.8727C5.01486 8.09075 4.46625 7.20795 4.00249 6.2737C3.78257 5.83065 3.59724 5.37024 3.40833 4.91284C3.23608 4.49573 3.48979 4.0648 3.75695 3.75052C4.00764 3.45557 4.33021 3.22984 4.67956 3.06349C4.95223 2.93364 5.22121 3.0085 5.42035 3.23759C5.85086 3.73287 6.2463 4.25349 6.56651 4.82759C6.76341 5.18072 6.70939 5.61236 6.35253 5.85268C6.2658 5.91109 6.18676 5.97965 6.10596 6.04563C6.0351 6.10344 5.96842 6.16185 5.91984 6.24014C5.83105 6.38338 5.82681 6.55232 5.88399 6.70805C6.32406 7.90681 7.06582 8.83896 8.28309 9.34103C8.47787 9.42135 8.6735 9.51488 8.8979 9.48895C9.27371 9.44543 9.39539 9.03683 9.65873 8.82335C9.91614 8.61473 10.2451 8.61197 10.5224 8.78589C10.7997 8.95987 11.0685 9.14664 11.3358 9.33538C11.5981 9.52065 11.8592 9.70189 12.1012 9.91309C12.3338 10.1162 12.414 10.3826 12.283 10.6582C12.0431 11.163 11.6941 11.5829 11.1907 11.851C11.0486 11.9266 10.8788 11.9511 10.7185 12C10.5341 11.9445 10.8788 11.9511 10.7185 12Z" fill="white"/>
<path d="M8.34863 1.5H8.84829C11.6078 1.5 13.8448 3.73858 13.8448 6.5V7" stroke="white"/>
<path d="M8.34863 3.5C10.2803 3.5 11.8462 5.067 11.8462 7" stroke="white"/>
<path d="M8.34863 5.5C9.17648 5.5 9.84759 6.17157 9.84759 7" stroke="white"/>
</svg>
