<svg width="17" height="15" viewBox="0 0 17 15" fill="none" xmlns="http://www.w3.org/2000/svg">
<path fill-rule="evenodd" clip-rule="evenodd" d="M4.68343 13.2227L1.35331 15L2.38088 11.6581C1.12019 10.4207 0.354004 8.78869 0.354004 7C0.354004 3.13401 3.93324 0 8.34845 0C12.7637 0 16.3429 3.13401 16.3429 7C16.3429 10.866 12.7637 14 8.34845 14C7.02745 14 5.78129 13.7195 4.68343 13.2227ZM5.35053 8C5.90243 8 6.34984 7.55228 6.34984 7C6.34984 6.44772 5.90243 6 5.35053 6C4.79863 6 4.35123 6.44772 4.35123 7C4.35123 7.55228 4.79863 8 5.35053 8ZM11.3464 8C11.8983 8 12.3457 7.55228 12.3457 7C12.3457 6.44772 11.8983 6 11.3464 6C10.7945 6 10.3471 6.44772 10.3471 7C10.3471 7.55228 10.7945 8 11.3464 8ZM8.34845 8C8.90035 8 9.34775 7.55228 9.34775 7C9.34775 6.44772 8.90035 6 8.34845 6C7.79655 6 7.34914 6.44772 7.34914 7C7.34914 7.55228 7.79655 8 8.34845 8Z" fill="#555555"/>
</svg>
