<svg width="17" height="16" viewBox="0 0 17 16" fill="none" xmlns="http://www.w3.org/2000/svg">
<path fill-rule="evenodd" clip-rule="evenodd" d="M4.07139 14.76L0.354004 16L1.59313 12.28C0.808412 11.0423 0.354004 9.57428 0.354004 8C0.354004 3.58172 3.93324 0 8.34845 0C12.7637 0 16.3429 3.58172 16.3429 8C16.3429 12.4183 12.7637 16 8.34845 16C6.77527 16 5.30822 15.5453 4.07139 14.76Z" fill="#0CBC2F"/>
<path d="M5.68549 3.52633L5.06234 3.49234C4.86662 3.48165 4.67463 3.5471 4.52669 3.67571C4.22459 3.93823 3.74154 4.44576 3.59318 5.10713C3.37193 6.09328 3.71385 7.30082 4.59879 8.50837C5.48373 9.71592 7.13287 11.648 10.0491 12.4732C10.9888 12.7391 11.728 12.5598 12.2984 12.1947C12.7501 11.9056 13.0615 11.4414 13.1737 10.9168L13.2732 10.4517C13.3048 10.3039 13.2298 10.154 13.0926 10.0907L10.9866 9.11927C10.8499 9.05623 10.6878 9.09608 10.5958 9.21533L9.76905 10.2879C9.7066 10.3689 9.59969 10.401 9.50315 10.3671C8.93696 10.168 7.04038 9.3731 5.99972 7.36712C5.95458 7.28011 5.96581 7.17451 6.02982 7.10031L6.81998 6.18559C6.9007 6.09219 6.9211 5.96087 6.87259 5.84736L5.96478 3.72202C5.91645 3.60887 5.80815 3.53303 5.68549 3.52633Z" fill="white"/>
</svg>
