<svg width="17" height="12" viewBox="0 0 17 12" fill="none" xmlns="http://www.w3.org/2000/svg">
<path fill-rule="evenodd" clip-rule="evenodd" d="M15.3596 11.7231C15.062 11.899 14.7149 12 14.3443 12H2.35261C1.98197 12 1.63489 11.899 1.33734 11.7231L5.74764 7.30972L8.34845 9.67573L10.9493 7.30972L15.3596 11.7231ZM16.0662 11.016L11.6895 6.63628L16.3429 2.403V10C16.3429 10.3709 16.242 10.7182 16.0662 11.016ZM0.630721 11.016C0.454898 10.7182 0.354004 10.3709 0.354004 10V2.403L5.00738 6.63628L0.630721 11.016ZM16.1775 1.20203L8.34845 8.32427L0.519422 1.20203C0.827367 0.494583 1.53227 0 2.35261 0H14.3443C15.1646 0 15.8695 0.494583 16.1775 1.20203Z" fill="#555555"/>
</svg>
