<svg width="20" height="20" viewBox="0 0 20 20" fill="none" xmlns="http://www.w3.org/2000/svg">
<path d="M14.5276 1.71558H10.763V0H5.65099V1.71558H1.88647V4.42438H14.5276V1.71558ZM7.00539 1.3544H9.40864V1.71558H7.00539V1.3544Z" fill="#999999"/>
<path d="M13.3246 9.67542L13.5801 5.77881H2.83374L3.69225 18.8714H8.84674C8.17582 17.9203 7.78119 16.7609 7.78119 15.5111C7.78119 12.3896 10.2414 9.83204 13.3246 9.67542Z" fill="#999999"/>
<path d="M13.6247 11.0225C11.1495 11.0225 9.13574 13.0362 9.13574 15.5114C9.13574 17.9865 11.1495 20.0003 13.6247 20.0003C16.0999 20.0003 18.1136 17.9866 18.1136 15.5114C18.1136 13.0361 16.0999 11.0225 13.6247 11.0225ZM16.0706 16.9995L15.1129 17.9572L13.6247 16.469L12.1365 17.9572L11.1788 16.9995L12.667 15.5114L11.1788 14.0232L12.1365 13.0655L13.6247 14.5537L15.1129 13.0655L16.0706 14.0232L14.5824 15.5114L16.0706 16.9995Z" fill="#999999"/>
</svg>
