<svg width="21" height="20" viewBox="0 0 21 20" fill="none" xmlns="http://www.w3.org/2000/svg">
<path fill-rule="evenodd" clip-rule="evenodd" d="M15.9339 1.34115C17.466 2.23536 18.679 3.44835 19.5733 4.98037C20.4671 6.51238 20.9141 8.18568 20.9141 10C20.9141 11.8141 20.4671 13.4873 19.5731 15.0195C18.6789 16.5516 17.466 17.7649 15.9339 18.6588C14.4017 19.553 12.7284 20 10.9142 20C9.09996 20 7.42684 19.553 5.89459 18.6588C4.36243 17.7646 3.14943 16.5516 2.25522 15.0195C1.36119 13.4872 0.914062 11.8142 0.914062 10C0.914062 8.18586 1.36105 6.51261 2.25536 4.98037C3.14961 3.44822 4.36261 2.23522 5.89477 1.34115C7.42684 0.446989 9.1001 0 10.9144 0C12.7288 0 14.4016 0.446989 15.9339 1.34115ZM16.5002 11.4192C16.6652 11.2545 16.7478 11.059 16.7478 10.8333V9.16654C16.7478 8.94083 16.6652 8.7455 16.5002 8.58064C16.3353 8.41568 16.14 8.33317 15.9143 8.33317H12.5812H9.24755H5.91406C5.68835 8.33317 5.49311 8.41568 5.32815 8.58064C5.16328 8.74555 5.08078 8.94088 5.08078 9.16654V10.8333C5.08078 11.059 5.16324 11.2546 5.32815 11.4192C5.49316 11.5841 5.6884 11.6668 5.91406 11.6668H9.24741H12.5809H15.9143C16.1399 11.6668 16.3351 11.5841 16.5002 11.4192Z" fill="#FCBB7E"/>
<path d="M16.8337 10.8333C16.8337 11.059 16.7511 11.2545 16.5861 11.4192C16.421 11.5841 16.2258 11.6668 16.0002 11.6668H12.6668H9.33335H6C5.77434 11.6668 5.5791 11.5841 5.41409 11.4192C5.24918 11.2546 5.16672 11.059 5.16672 10.8333V9.16654C5.16672 8.94088 5.24922 8.74555 5.41409 8.58064C5.57905 8.41568 5.77429 8.33317 6 8.33317H9.33349H12.6671H16.0002C16.2259 8.33317 16.4213 8.41568 16.5861 8.58064C16.7511 8.7455 16.8337 8.94083 16.8337 9.16654V10.8333Z" fill="white"/>
</svg>
