<svg width="30" height="30" viewBox="0 0 30 30" fill="none" xmlns="http://www.w3.org/2000/svg">
<path d="M29.225 9.44104C28.197 8.41295 26.5242 8.41301 25.4958 9.44127C25.1795 9.75785 23.1601 11.7789 22.8516 12.0877V5.12262C22.8516 4.41832 22.5773 3.75621 22.0792 3.25822L19.5934 0.772266C19.0954 0.274219 18.4332 0 17.7289 0H2.63672C1.18283 0 0 1.18283 0 2.63672V27.3633C0 28.8172 1.18283 30 2.63672 30H20.2148C21.6687 30 22.8516 28.8172 22.8516 27.3633V19.5487L29.2249 13.1699C30.2554 12.1395 30.2556 10.4716 29.225 9.44104ZM17.5782 1.75781C17.7442 1.75781 18.0642 1.72904 18.3504 2.01521L20.8363 4.50117C21.1153 4.78014 21.0938 5.08582 21.0938 5.27344H17.5782V1.75781ZM21.0938 27.3633C21.0938 27.8479 20.6995 28.2422 20.2148 28.2422H2.63672C2.15209 28.2422 1.75781 27.8479 1.75781 27.3633V2.63672C1.75781 2.15209 2.15209 1.75781 2.63672 1.75781H15.8203V6.15234C15.8203 6.63773 16.2138 7.03125 16.6992 7.03125H21.0938V13.8471C21.0938 13.8471 18.5007 16.4423 18.5006 16.4423L17.2583 17.6848C17.1618 17.7812 17.089 17.8989 17.0459 18.0283L15.8029 21.7572C15.6976 22.073 15.7798 22.4212 16.0153 22.6566C16.251 22.8923 16.5993 22.9741 16.9147 22.869L20.6436 21.626C20.773 21.5829 20.8907 21.5102 20.9871 21.4137L21.0938 21.307V27.3633ZM19.1227 18.3063L20.3656 19.5492L19.8908 20.024L18.0264 20.6454L18.6479 18.781L19.1227 18.3063ZM21.6083 18.306L20.3654 17.063C21.0272 16.4006 23.9668 13.4585 24.5903 12.8346L25.8332 14.0775L21.6083 18.306ZM27.9817 11.9272L27.0757 12.834L25.8328 11.5911L26.7391 10.684C27.082 10.3413 27.6394 10.3413 27.9821 10.684C28.3247 11.0268 28.3265 11.5824 27.9817 11.9272Z" fill="#555555"/>
<path d="M16.6992 8.78906H4.39453C3.90914 8.78906 3.51562 9.18258 3.51562 9.66797C3.51562 10.1534 3.90914 10.5469 4.39453 10.5469H16.6992C17.1846 10.5469 17.5781 10.1534 17.5781 9.66797C17.5781 9.18258 17.1846 8.78906 16.6992 8.78906Z" fill="#555555"/>
<path d="M13.1836 12.3047H4.39453C3.90914 12.3047 3.51562 12.6982 3.51562 13.1836C3.51562 13.669 3.90914 14.0625 4.39453 14.0625H13.1836C13.669 14.0625 14.0625 13.669 14.0625 13.1836C14.0625 12.6982 13.669 12.3047 13.1836 12.3047Z" fill="#555555"/>
<path d="M13.1836 15.8203H4.39453C3.90914 15.8203 3.51562 16.2138 3.51562 16.6992C3.51562 17.1846 3.90914 17.5781 4.39453 17.5781H13.1836C13.669 17.5781 14.0625 17.1846 14.0625 16.6992C14.0625 16.2138 13.669 15.8203 13.1836 15.8203Z" fill="#555555"/>
<path d="M13.1836 19.3359H4.39453C3.90914 19.3359 3.51562 19.7295 3.51562 20.2148C3.51562 20.7002 3.90914 21.0938 4.39453 21.0938H13.1836C13.669 21.0938 14.0625 20.7002 14.0625 20.2148C14.0625 19.7295 13.669 19.3359 13.1836 19.3359Z" fill="#555555"/>
<path d="M16.6992 24.7266H11.4258C10.9404 24.7266 10.5469 25.1201 10.5469 25.6055C10.5469 26.0909 10.9404 26.4844 11.4258 26.4844H16.6992C17.1846 26.4844 17.5781 26.0909 17.5781 25.6055C17.5781 25.1201 17.1846 24.7266 16.6992 24.7266Z" fill="#555555"/>
</svg>
