<svg width="32" height="32" viewBox="0 0 32 32" fill="none" xmlns="http://www.w3.org/2000/svg">
<path d="M16 32C24.8366 32 32 24.8366 32 16C32 7.16344 24.8366 0 16 0C7.16344 0 0 7.16344 0 16C0 24.8366 7.16344 32 16 32Z" fill="white"/>
<mask id="mask0" mask-type="alpha" maskUnits="userSpaceOnUse" x="9" y="9" width="14" height="14">
<path d="M17 12L10.0607 18.9393C9.38153 19.6185 9 20.5396 9 21.5V22.5C9 22.7761 9.22386 23 9.5 23H10.5C11.4604 23 12.3815 22.6185 13.0607 21.9393L20 15L17 12ZM18 11L20 9C20.6667 9 21.3333 9.33333 22 10C22.6667 10.6667 23 11.3333 23 12L21 14L18 11Z" fill="white"/>
</mask>
<g mask="url(#mask0)">
<path d="M24 8H8V24H24V8Z" fill="#555555"/>
</g>
</svg>
