<svg width="20" height="20" viewBox="0 0 20 20" fill="none" xmlns="http://www.w3.org/2000/svg">
<path d="M1.25 17.5V2.5C1.25 1.81031 1.81156 1.25 2.5 1.25H15C15.6897 1.25 16.25 1.81031 16.25 2.5V9.84859L17.5 8.59859V2.5C17.5 1.11937 16.3806 0 15 0H2.5C1.11937 0 0 1.11937 0 2.5V17.5C0 18.8806 1.11937 20 2.5 20H9.375V18.75H2.5C1.81156 18.75 1.25 18.1897 1.25 17.5ZM13.75 3.75H3.75V5H13.75V3.75ZM13.75 6.25H3.75V7.5H13.75V6.25ZM13.75 8.75H3.75V10H13.75V8.75ZM3.75 12.5H8.75V11.25H3.75V12.5ZM19.6337 11.25L18.75 10.3663C18.5058 10.122 18.1861 10 17.8663 10C17.5464 10 17.2266 10.122 16.9825 10.3663L11.6163 15.7325C11.372 15.9766 10.625 16.9208 10.625 17.2406L10 20L12.7587 19.375C12.7587 19.375 14.0234 18.628 14.2675 18.3837L19.6337 13.0175C20.122 12.5294 20.122 11.7377 19.6337 11.25ZM13.8269 17.9406C13.7561 18.0078 13.5112 18.1731 13.2122 18.3636L11.593 16.7444C11.7591 16.5167 11.9439 16.2878 12.0581 16.1744L16.0986 12.1339L17.8663 13.9016L13.8269 17.9406Z" fill="#FF8826"/>
</svg>
