<svg xmlns="http://www.w3.org/2000/svg" width="16" height="13" viewBox="0 0 16 13"><g><g><path fill="#555" d="M9.027 9.623c-.285.174-.65.27-1.027.27-.377 0-.742-.096-1.027-.27L2.323 6.77s-.419-.257-.419.326v2.846c0 1.5 2.73 3.118 6.096 3.118s6.096-1.617 6.096-3.117v-.2-2.808c0-.468-.299-.24-.299-.24z"/></g><g><path fill="#555" d="M15.732 4.503c.357-.22.357-.578 0-.797L8.65.164c-.358-.219-.942-.219-1.3 0L.268 3.706c-.357.22-.357.578 0 .797L7.35 8.847c.358.219.942.219 1.3 0"/></g><g><path fill="#555" d="M15.44 10.941V6.144s.003-.227-.132-.152c-.108.06-.374.208-.467.289-.108.094-.083.304-.083.304v4.356c0 .062-.054.092-.079.106a.827.827 0 0 0 .42 1.543.829.829 0 0 0 .416-1.544c-.025-.014-.076-.043-.076-.105z"/></g></g></svg>