<svg width="150" height="150" viewBox="0 0 150 150" fill="none" xmlns="http://www.w3.org/2000/svg">
<circle cx="75" cy="75" r="75" fill="#007FC6"/>
<path d="M47.8125 113.75C47.0625 113.75 46.3875 113.488 45.7875 112.963C45.2625 112.363 45 111.688 45 110.938V37.8125C45 36.9875 45.2625 36.3125 45.7875 35.7875C46.3875 35.2625 47.0625 35 47.8125 35H100.35C101.175 35 101.85 35.2625 102.375 35.7875C102.9 36.3125 103.163 36.9875 103.163 37.8125V48.3875C103.163 49.1375 102.9 49.8125 102.375 50.4125C101.85 50.9375 101.175 51.2 100.35 51.2H64.4625V66.3875H97.875C98.7 66.3875 99.375 66.6875 99.9 67.2875C100.425 67.8125 100.688 68.4875 100.688 69.3125V79.1C100.688 79.85 100.425 80.525 99.9 81.125C99.375 81.65 98.7 81.9125 97.875 81.9125H64.4625V97.55H101.25C102.075 97.55 102.75 97.8125 103.275 98.3375C103.8 98.8625 104.063 99.5375 104.063 100.363V110.938C104.063 111.688 103.8 112.363 103.275 112.963C102.75 113.488 102.075 113.75 101.25 113.75H47.8125Z" fill="white"/>
</svg>
