<svg width="20" height="19" viewBox="0 0 20 19" fill="none" xmlns="http://www.w3.org/2000/svg">
<ellipse cx="10" cy="9.5" rx="10" ry="9.5" fill="#007FC6"/>
<path d="M7.14 13.8506C7.06 13.8506 6.988 13.8226 6.924 13.7666C6.868 13.7026 6.84 13.6306 6.84 13.5506V5.75059C6.84 5.66259 6.868 5.59059 6.924 5.53459C6.988 5.47859 7.06 5.45059 7.14 5.45059H12.744C12.832 5.45059 12.904 5.47859 12.96 5.53459C13.016 5.59059 13.044 5.66259 13.044 5.75059V6.87859C13.044 6.95859 13.016 7.03059 12.96 7.09459C12.904 7.15059 12.832 7.17859 12.744 7.17859H8.916V8.79859H12.48C12.568 8.79859 12.64 8.83059 12.696 8.89459C12.752 8.95059 12.78 9.02259 12.78 9.11059V10.1546C12.78 10.2346 12.752 10.3066 12.696 10.3706C12.64 10.4266 12.568 10.4546 12.48 10.4546H8.916V12.1226H12.84C12.928 12.1226 13 12.1506 13.056 12.2066C13.112 12.2626 13.14 12.3346 13.14 12.4226V13.5506C13.14 13.6306 13.112 13.7026 13.056 13.7666C13 13.8226 12.928 13.8506 12.84 13.8506H7.14Z" fill="white"/>
</svg>
