<svg width="17" height="16" viewBox="0 0 17 16" fill="none" xmlns="http://www.w3.org/2000/svg">
<mask id="mask0" mask-type="alpha" maskUnits="userSpaceOnUse" x="0" y="0" width="17" height="16">
<path d="M8.34845 16C3.93324 16 0.354004 12.4183 0.354004 8C0.354004 3.58172 3.93324 0 8.34845 0C12.7637 0 16.3429 3.58172 16.3429 8C16.3429 12.4183 12.7637 16 8.34845 16ZM4.20133 8H3.35192V9H4.23649C4.44351 11.7475 5.5902 13.15 8.34845 13.15C10.6403 13.15 12.0853 12.1171 12.483 10.1275L11.2091 9.87252C10.9405 11.2162 10.0538 11.85 8.34845 11.85C6.44301 11.85 5.69751 11.0409 5.53576 9H9.34775V8H5.50043C5.50043 7.63816 5.51156 7.3053 5.53576 7H9.34775V6H5.68691C6.00949 4.68987 6.79199 4.15 8.34845 4.15C10.0538 4.15 10.9405 4.7838 11.2091 6.12748L12.483 5.87252C12.0853 3.88287 10.6403 2.85 8.34845 2.85C5.94754 2.85 4.76768 3.91265 4.36573 6H3.35192V7H4.23649C4.21271 7.31561 4.20133 7.64898 4.20133 8Z" fill="white"/>
</mask>
<g mask="url(#mask0)">
<path d="M16.3429 0H0.354004V16H16.3429V0Z" fill="#555555"/>
</g>
</svg>
