<svg width="16" height="16" viewBox="0 0 16 16" fill="none" xmlns="http://www.w3.org/2000/svg">
<mask id="mask0" mask-type="alpha" maskUnits="userSpaceOnUse" x="0" y="0" width="16" height="16">
<path d="M8 16C3.58172 16 0 12.4183 0 8C0 3.58172 3.58172 0 8 0C12.4183 0 16 3.58172 16 8C16 12.4183 12.4183 16 8 16ZM3.85 8H3V9H3.88519C4.09235 11.7475 5.23983 13.15 8 13.15C10.2934 13.15 11.7394 12.1171 12.1374 10.1275L10.8626 9.87252C10.5939 11.2162 9.70657 11.85 8 11.85C6.09324 11.85 5.34722 11.0409 5.18535 9H9V8H5.15C5.15 7.63816 5.16114 7.3053 5.18535 7H9V6H5.33661C5.65942 4.68987 6.44246 4.15 8 4.15C9.70657 4.15 10.5939 4.7838 10.8626 6.12748L12.1374 5.87252C11.7394 3.88287 10.2934 2.85 8 2.85C5.59742 2.85 4.41674 3.91265 4.01451 6H3V7H3.88519C3.86139 7.31561 3.85 7.64898 3.85 8Z" fill="white"/>
</mask>
<g mask="url(#mask0)">
<path d="M16 0H0V16H16V0Z" fill="#999999"/>
</g>
</svg>
