<svg width="38" height="38" viewBox="0 0 38 38" fill="none" xmlns="http://www.w3.org/2000/svg">
<path fill-rule="evenodd" clip-rule="evenodd" d="M32.8793 0H36C37.1046 0 38 0.895431 38 2V5.12058V32.8795V36C38 37.1046 37.1046 38 36 38H32.8795H32H24.7334L24.7568 24.4209H29.4468C29.8686 24.4209 30.2237 24.1053 30.2734 23.6865L30.7922 19.3094C30.8509 18.8143 30.4641 18.379 29.9656 18.379H24.7334V14.7174C24.7334 13.0569 25.1945 11.9255 27.5756 11.9255L29.7805 11.9244C30.24 11.9242 30.6125 11.5516 30.6125 11.092V7.4012C30.6125 6.94143 30.2397 6.56876 29.7801 6.56876H26.1872C21.8088 6.56876 18.8112 9.2413 18.8112 14.1495V18.3789H15.2897C14.8287 18.3789 14.4555 18.7535 14.4573 19.2145L14.4742 23.5916C14.4759 24.05 14.8481 24.4207 15.3065 24.4207H18.8344L18.8111 37.9998H6.02734C6.01824 37.9999 6.00913 38 6 38H2C0.895431 38 0 37.1046 0 36V32.8792V5.12058V2C0 0.89543 0.895431 0 2 0H5.12061H32.8793Z" fill="#475993"/>
</svg>
