<svg width="48" height="48" viewBox="0 0 48 48" fill="none" xmlns="http://www.w3.org/2000/svg">
<path d="M23.9439 0C37.1686 0 47.8881 10.7209 47.8881 23.9441C47.8881 37.1688 37.1686 47.8881 23.9439 47.8881C10.7193 47.8881 0 37.1686 0 23.9441C0 10.7209 10.7195 0 23.9439 0Z" fill="#4267B2"/>
<path d="M27 16.5H30V12C29.1216 12.0387 27.9549 12.0387 26.5 12C22.1824 12.058 21 14 21 16.5L20.9331 19.4395L18 19.5V24H21V36H25.5V24H29L30 19.5H25.5V18C25.5 17.123 26.1694 16.5 27 16.5Z" fill="white"/>
</svg>
