<svg width="16" height="16" viewBox="0 0 16 16" fill="none" xmlns="http://www.w3.org/2000/svg">
<path d="M7.99444 2.87939C8.79019 1.73084 10.1049 0.980469 11.5919 0.980469C14.0203 0.980469 15.9889 2.98138 15.9889 5.44962C15.9889 7.52215 13.5511 10.8296 8.67539 15.3721C8.29171 15.7296 7.6972 15.7296 7.31351 15.3721C2.43784 10.8296 0 7.52215 0 5.44962C0 2.98138 1.96858 0.980469 4.39694 0.980469C5.88404 0.980469 7.1987 1.73084 7.99444 2.87939ZM7.17321 3.44915C6.53881 2.53348 5.51345 1.98047 4.39694 1.98047C2.524 1.98047 0.999306 3.5302 0.999306 5.44962C0.999306 7.13362 3.32715 10.2919 7.99445 14.6402C12.6618 10.2919 14.9896 7.13361 14.9896 5.44962C14.9896 3.5302 13.4649 1.98047 11.5919 1.98047C10.4754 1.98047 9.45008 2.53348 8.81568 3.44915L7.99444 4.6345L7.17321 3.44915Z" fill="#ED146B"/>
<path d="M7.17321 3.44915C6.53881 2.53348 5.51345 1.98047 4.39694 1.98047C2.524 1.98047 0.999306 3.5302 0.999306 5.44962C0.999306 7.13362 3.32715 10.2919 7.99445 14.6402C12.6618 10.2919 14.9896 7.13361 14.9896 5.44962C14.9896 3.5302 13.4649 1.98047 11.5919 1.98047C10.4754 1.98047 9.45008 2.53348 8.81568 3.44915L7.99444 4.6345L7.17321 3.44915Z" fill="#ED146B"/>
</svg>
