<svg width="17" height="16" viewBox="0 0 17 16" fill="none" xmlns="http://www.w3.org/2000/svg">
<path d="M8.56964 2.87939C9.36538 1.73084 10.68 0.980469 12.1671 0.980469C14.5955 0.980469 16.5641 2.98138 16.5641 5.44962C16.5641 7.52215 14.1263 10.8296 9.25059 15.3721C8.8669 15.7296 8.27239 15.7296 7.8887 15.3721C3.01303 10.8296 0.575195 7.52215 0.575195 5.44962C0.575195 2.98138 2.54377 0.980469 4.97214 0.980469C6.45923 0.980469 7.7739 1.73084 8.56964 2.87939ZM7.7484 3.44915C7.114 2.53348 6.08864 1.98047 4.97214 1.98047C3.09919 1.98047 1.5745 3.5302 1.5745 5.44962C1.5745 7.13362 3.90234 10.2919 8.56964 14.6402C13.2369 10.2919 15.5648 7.13361 15.5648 5.44962C15.5648 3.5302 14.0401 1.98047 12.1671 1.98047C11.0506 1.98047 10.0253 2.53348 9.39088 3.44915L8.56964 4.6345L7.7484 3.44915Z" fill="#CCCCCC"/>
</svg>
