<svg width="18" height="18" viewBox="0 0 18 18" fill="none" xmlns="http://www.w3.org/2000/svg">
<mask id="mask0" mask-type="alpha" maskUnits="userSpaceOnUse" x="0" y="0" width="18" height="18">
<path d="M9 0C13.9706 0 18 4.02944 18 9C18 13.9706 13.9706 18 9 18C4.02944 18 0 13.9706 0 9C0 4.02944 4.02944 0 9 0Z" fill="white"/>
</mask>
<g mask="url(#mask0)">
<path d="M19 13H-1V18H19V13Z" fill="#FD150E"/>
<path d="M19 5H-1V13H19V5Z" fill="#FFCE1A"/>
<path d="M19 0H-1V5H19V0Z" fill="#FD150E"/>
<path d="M11.9712 9.17906L12.2686 7.84074C12.2961 7.71749 12.2022 7.60059 12.076 7.60059H11.8665C11.7402 7.60059 11.6465 7.71749 11.6738 7.84074L11.9712 9.17906Z" fill="#C8414B"/>
<path d="M12.6205 8.47705H11.6205V11.4584H12.6205V8.47705Z" fill="#F5F5F5"/>
<path d="M12.4972 8.12695H11.4449V9.12695H12.4972V8.12695Z" fill="#FAB446"/>
<path d="M12.4975 9.1792H10.7436V10.1792H12.4975V9.1792Z" fill="#C8414B"/>
<path d="M12.4974 10.5819L11.4451 10.2312V9.88037L12.4974 10.2312V10.5819Z" fill="#C8414B"/>
<path d="M6.70974 9.17906L7.00716 7.84074C7.03458 7.71749 6.94076 7.60059 6.81449 7.60059H6.605C6.47876 7.60059 6.38499 7.71749 6.41233 7.84074L6.70974 9.17906Z" fill="#C8414B"/>
<path d="M7.93742 8.12646C7.74371 8.12646 7.58664 8.28354 7.58664 8.47725V10.7572C7.58664 11.1834 7.98439 11.9849 9.34047 11.9849C10.6965 11.9849 11.0943 11.1834 11.0943 10.7572V8.47725C11.0943 8.28354 10.9372 8.12646 10.7435 8.12646H7.93742Z" fill="#F5F5F5"/>
<path d="M9.34047 9.88029H7.58664V8.47725C7.58664 8.28354 7.74371 8.12646 7.93742 8.12646H9.34047V9.88029Z" fill="#C8414B"/>
<path d="M9.34045 9.88037H11.0943V10.7573C11.0943 11.2416 10.7017 11.6342 10.2174 11.6342C9.73304 11.6342 9.34045 11.2416 9.34045 10.7573V9.88037Z" fill="#C8414B"/>
<path d="M7.58664 9.88037H9.34047V10.7573C9.34047 11.2416 8.94788 11.6342 8.46355 11.6342C7.97922 11.6342 7.58664 11.2416 7.58664 10.7573V9.88037Z" fill="#FAB446"/>
<path d="M8.9897 11.4549V9.88037H8.63892V11.6165C8.76941 11.5901 8.8873 11.5323 8.9897 11.4549Z" fill="#C8414B"/>
<path d="M8.28816 11.6165V9.88037H7.93738V11.4549C8.03982 11.5323 8.15771 11.5901 8.28816 11.6165Z" fill="#C8414B"/>
<path d="M8.98977 9.17871H7.93747V10.1787H8.98977V9.17871Z" fill="#FFB441"/>
<path d="M8.98977 8.479H7.93747V9.479H8.98977V8.479Z" fill="#FAB446"/>
<path d="M9.1127 8.71777H8.1127V9.71777H9.1127V8.71777Z" fill="#FAB446"/>
<path d="M7.3588 8.47705H6.3588V11.4584H7.3588V8.47705Z" fill="#F5F5F5"/>
<path d="M7.23587 11.2837H6.18356V12.2837H7.23587V11.2837Z" fill="#FAB446"/>
<path d="M7.23587 8.12695H6.18356V9.12695H7.23587V8.12695Z" fill="#FAB446"/>
<path d="M7.41138 11.6343H6.00833V12.6343H7.41138V11.6343Z" fill="#5064AA"/>
<path d="M12.6728 11.2837H11.6205V12.2837H12.6728V11.2837Z" fill="#FAB446"/>
<path d="M12.6727 11.6343H11.2697V12.6343H12.6727V11.6343Z" fill="#5064AA"/>
<path d="M10.3929 7.77588H8.28833V8.77588H10.3929V7.77588Z" fill="#FAB446"/>
<path d="M10.1653 6.72363H9.16528V7.77594H10.1653V6.72363Z" fill="#FFB441"/>
<path d="M8.98972 7.24953C8.69958 7.24953 8.46359 7.0135 8.46359 6.7234C8.46359 6.43325 8.69962 6.19727 8.98972 6.19727C9.27987 6.19727 9.51586 6.43329 9.51586 6.7234C9.5159 7.0135 9.27987 7.24953 8.98972 7.24953ZM8.98972 6.54801C8.89297 6.54801 8.81433 6.6266 8.81433 6.7234C8.81433 6.82015 8.89293 6.89879 8.98972 6.89879C9.08652 6.89879 9.16512 6.82019 9.16512 6.7234C9.16512 6.62664 9.08652 6.54801 8.98972 6.54801Z" fill="#F5F5F5"/>
<path d="M9.69126 7.24953C9.40112 7.24953 9.16513 7.0135 9.16513 6.7234C9.16513 6.43325 9.40116 6.19727 9.69126 6.19727C9.98141 6.19727 10.2174 6.43329 10.2174 6.7234C10.2174 7.0135 9.98137 7.24953 9.69126 7.24953ZM9.69126 6.54801C9.59451 6.54801 9.51587 6.6266 9.51587 6.7234C9.51587 6.82015 9.59447 6.89879 9.69126 6.89879C9.78802 6.89879 9.86665 6.82019 9.86665 6.7234C9.86661 6.62664 9.78802 6.54801 9.69126 6.54801Z" fill="#F5F5F5"/>
<path d="M10.3928 7.60012C10.1027 7.60012 9.86667 7.36409 9.86667 7.07398C9.86667 6.78384 10.1027 6.54785 10.3928 6.54785C10.6829 6.54785 10.9189 6.78388 10.9189 7.07398C10.9189 7.36409 10.6829 7.60012 10.3928 7.60012ZM10.3928 6.89859C10.296 6.89859 10.2174 6.97719 10.2174 7.07398C10.2174 7.17074 10.296 7.24937 10.3928 7.24937C10.4896 7.24937 10.5682 7.17078 10.5682 7.07398C10.5682 6.97719 10.4896 6.89859 10.3928 6.89859Z" fill="#F5F5F5"/>
<path d="M8.28819 7.60012C7.99804 7.60012 7.76205 7.36409 7.76205 7.07398C7.76205 6.78384 7.99808 6.54785 8.28819 6.54785C8.57833 6.54785 8.81432 6.78388 8.81432 7.07398C8.81436 7.36409 8.57833 7.60012 8.28819 7.60012ZM8.28819 6.89859C8.19143 6.89859 8.1128 6.97719 8.1128 7.07398C8.1128 7.17074 8.19139 7.24937 8.28819 7.24937C8.38498 7.24937 8.46358 7.17074 8.46358 7.07394C8.46358 6.97719 8.38498 6.89859 8.28819 6.89859Z" fill="#F5F5F5"/>
<path d="M10.3928 10.5822V10.7576C10.3928 10.8543 10.3141 10.933 10.2174 10.933C10.1207 10.933 10.042 10.8543 10.042 10.7576V10.5822H10.3928ZM10.7435 10.2314H9.69122V10.7576C9.69122 11.0477 9.92725 11.2837 10.2174 11.2837C10.5075 11.2837 10.7435 11.0477 10.7435 10.7576V10.2314H10.7435Z" fill="#FAB446"/>
<path d="M10.2174 9.52988C10.0237 9.52988 9.86661 9.37281 9.86661 9.1791V8.82832C9.86661 8.63461 10.0237 8.47754 10.2174 8.47754C10.4111 8.47754 10.5682 8.63461 10.5682 8.82832V9.1791C10.5682 9.37281 10.4111 9.52988 10.2174 9.52988Z" fill="#FFA0D2"/>
<path d="M9.34052 10.8804C9.8928 10.8804 10.3405 10.4327 10.3405 9.88037C10.3405 9.32809 9.8928 8.88037 9.34052 8.88037C8.78823 8.88037 8.34052 9.32809 8.34052 9.88037C8.34052 10.4327 8.78823 10.8804 9.34052 10.8804Z" fill="#5064AA"/>
<path d="M10.1653 6.02197H9.16528V7.07428H10.1653V6.02197Z" fill="#FAB446"/>
<path d="M8.28816 7.77594L7.93738 7.42516L8.14285 7.21969C8.46045 6.90208 8.89126 6.72363 9.34046 6.72363C9.78967 6.72363 10.2204 6.90208 10.5381 7.21969L10.7436 7.42516L10.3928 7.77594H8.28816Z" fill="#C8414B"/>
<path d="M9.34052 8.71777C9.8928 8.71777 10.3405 8.27006 10.3405 7.71777C10.3405 7.16549 9.8928 6.71777 9.34052 6.71777C8.78823 6.71777 8.34052 7.16549 8.34052 7.71777C8.34052 8.27006 8.78823 8.71777 9.34052 8.71777Z" fill="#FFD250"/>
<path d="M8.63879 8.71777C9.19108 8.71777 9.63879 8.27006 9.63879 7.71777C9.63879 7.16549 9.19108 6.71777 8.63879 6.71777C8.08651 6.71777 7.63879 7.16549 7.63879 7.71777C7.63879 8.27006 8.08651 8.71777 8.63879 8.71777Z" fill="#FFD250"/>
<path d="M10.0418 8.71777C10.5941 8.71777 11.0418 8.27006 11.0418 7.71777C11.0418 7.16549 10.5941 6.71777 10.0418 6.71777C9.48955 6.71777 9.04184 7.16549 9.04184 7.71777C9.04184 8.27006 9.48955 8.71777 10.0418 8.71777Z" fill="#FFD250"/>
<path d="M7.93747 9.17871H6.18356V10.1787H7.93747V9.17871Z" fill="#C8414B"/>
<path d="M6.18359 10.5819L7.23586 10.2312V9.88037L6.18359 10.2312V10.5819Z" fill="#C8414B"/>
<path fill-rule="evenodd" clip-rule="evenodd" d="M9 0.5C4.30558 0.5 0.5 4.30558 0.5 9C0.5 13.6944 4.30558 17.5 9 17.5C13.6944 17.5 17.5 13.6944 17.5 9C17.5 4.30558 13.6944 0.5 9 0.5Z" stroke="black" stroke-opacity="0.1"/>
</g>
</svg>
