<svg width="18" height="18" viewBox="0 0 18 18" fill="none" xmlns="http://www.w3.org/2000/svg">
<mask id="mask0" mask-type="alpha" maskUnits="userSpaceOnUse" x="0" y="0" width="18" height="18">
<path d="M9 0C13.9706 0 18 4.02944 18 9C18 13.9706 13.9706 18 9 18C4.02944 18 0 13.9706 0 9C0 4.02944 4.02944 0 9 0Z" fill="white"/>
</mask>
<g mask="url(#mask0)">
<path d="M19 12H-1V18H19V12Z" fill="#D52C3A"/>
<path d="M19 6H-1V12H19V6Z" fill="#54AF1A"/>
<path d="M19 0H-1V6H19V0Z" fill="#FDB80E"/>
<path fill-rule="evenodd" clip-rule="evenodd" d="M9 0.5C4.30558 0.5 0.5 4.30558 0.5 9C0.5 13.6944 4.30558 17.5 9 17.5C13.6944 17.5 17.5 13.6944 17.5 9C17.5 4.30558 13.6944 0.5 9 0.5Z" stroke="black" stroke-opacity="0.1"/>
</g>
</svg>
