<svg width="18" height="18" viewBox="0 0 18 18" fill="none" xmlns="http://www.w3.org/2000/svg">
<mask id="mask0" mask-type="alpha" maskUnits="userSpaceOnUse" x="0" y="0" width="18" height="18">
<path d="M9 0C13.9706 0 18 4.02944 18 9C18 13.9706 13.9706 18 9 18C4.02944 18 0 13.9706 0 9C0 4.02944 4.02944 0 9 0Z" fill="white"/>
</mask>
<g mask="url(#mask0)">
<path fill-rule="evenodd" clip-rule="evenodd" d="M1 0H17C18.1046 0 19 0.89543 19 2V18H-1V2C-1 0.89543 -0.10457 0 1 0Z" fill="#006ECC"/>
<path d="M11 0H7V18H11V0Z" fill="white"/>
<path d="M19 7H-1V11H19V7Z" fill="white"/>
<path d="M-1 0L18.5 17.5" stroke="white" stroke-width="4" stroke-linecap="square"/>
<path d="M-1 18L19 0" stroke="white" stroke-width="4"/>
<path d="M7 12.3824L-0.00378335 18.5623L-0.996216 17.4375L6.29976 10.9999H7V12.3824ZM11 12.3824V10.9999H11.7002L18.9962 17.4375L18.0038 18.5623L11 12.3824ZM11 5.61731L18.0038 -0.5625L18.9962 0.562257L11.7002 6.99988H11V5.61731ZM7 5.61731V6.99988H6.29976L-0.996216 0.562257L-0.00378335 -0.5625L7 5.61731Z" fill="#D90100"/>
<path fill-rule="evenodd" clip-rule="evenodd" d="M-1 8H19V10H-1V8Z" fill="#D90100"/>
<path d="M10 0H8V18H10V0Z" fill="#D90100"/>
<path fill-rule="evenodd" clip-rule="evenodd" d="M9 0.5C4.30558 0.5 0.5 4.30558 0.5 9C0.5 13.6944 4.30558 17.5 9 17.5C13.6944 17.5 17.5 13.6944 17.5 9C17.5 4.30558 13.6944 0.5 9 0.5Z" stroke="black" stroke-opacity="0.1"/>
</g>
</svg>
