<svg width="20" height="20" viewBox="0 0 20 20" fill="none" xmlns="http://www.w3.org/2000/svg">
<circle cx="10" cy="10" r="10" fill="#FFB82F"/>
<path d="M7.54723 14.1855C7.46723 14.1855 7.39523 14.1575 7.33123 14.1015C7.27523 14.0375 7.24723 13.9655 7.24723 13.8855V6.08555C7.24723 5.99755 7.27523 5.92555 7.33123 5.86955C7.39523 5.81355 7.46723 5.78555 7.54723 5.78555H13.0672C13.1552 5.78555 13.2272 5.81355 13.2832 5.86955C13.3392 5.92555 13.3672 5.99755 13.3672 6.08555V7.29755C13.3672 7.37755 13.3392 7.44955 13.2832 7.51355C13.2272 7.56955 13.1552 7.59755 13.0672 7.59755H9.35923V9.36155H12.8272C12.9152 9.36155 12.9872 9.39355 13.0432 9.45755C13.0992 9.51355 13.1272 9.58555 13.1272 9.67355V10.8735C13.1272 10.9535 13.0992 11.0255 13.0432 11.0895C12.9872 11.1455 12.9152 11.1735 12.8272 11.1735H9.35923V13.8855C9.35923 13.9735 9.33123 14.0455 9.27523 14.1015C9.21923 14.1575 9.14723 14.1855 9.05923 14.1855H7.54723Z" fill="white"/>
</svg>
