<svg width="150" height="150" viewBox="0 0 150 150" fill="none" xmlns="http://www.w3.org/2000/svg">
<circle cx="75" cy="75" r="75" fill="#FFB82F"/>
<path d="M48.9004 117.5C48.1004 117.5 47.3804 117.22 46.7404 116.66C46.1804 116.02 45.9004 115.3 45.9004 114.5V36.5C45.9004 35.62 46.1804 34.9 46.7404 34.34C47.3804 33.78 48.1004 33.5 48.9004 33.5H104.1C104.98 33.5 105.7 33.78 106.26 34.34C106.82 34.9 107.1 35.62 107.1 36.5V48.62C107.1 49.42 106.82 50.14 106.26 50.78C105.7 51.34 104.98 51.62 104.1 51.62H67.0204V69.26H101.7C102.58 69.26 103.3 69.58 103.86 70.22C104.42 70.78 104.7 71.5 104.7 72.38V84.38C104.7 85.18 104.42 85.9 103.86 86.54C103.3 87.1 102.58 87.38 101.7 87.38H67.0204V114.5C67.0204 115.38 66.7404 116.1 66.1804 116.66C65.6204 117.22 64.9004 117.5 64.0204 117.5H48.9004Z" fill="white"/>
</svg>
