<svg width="153" height="166" viewBox="0 0 153 166" fill="none" xmlns="http://www.w3.org/2000/svg">
<mask id="mask0" mask-type="alpha" maskUnits="userSpaceOnUse" x="0" y="0" width="150" height="150">
<circle cx="74.8769" cy="74.8769" r="74.8769" fill="#FF8826"/>
</mask>
<g mask="url(#mask0)">
<circle cx="74.8769" cy="74.8769" r="74.8769" fill="#FF8826"/>
</g>
<path d="M48.8212 117.309C48.0226 117.309 47.3037 117.03 46.6648 116.471C46.1057 115.832 45.8262 115.113 45.8262 114.314V36.4423C45.8262 35.5638 46.1057 34.845 46.6648 34.2859C47.3037 33.7268 48.0226 33.4473 48.8212 33.4473H103.931C104.809 33.4473 105.528 33.7268 106.087 34.2859C106.646 34.845 106.926 35.5638 106.926 36.4423V48.5425C106.926 49.3411 106.646 50.06 106.087 50.6989C105.528 51.258 104.809 51.5375 103.931 51.5375H66.9115V69.1486H101.535C102.413 69.1486 103.132 69.468 103.691 70.107C104.25 70.6661 104.53 71.3849 104.53 72.2635V84.2438C104.53 85.0424 104.25 85.7613 103.691 86.4002C103.132 86.9593 102.413 87.2388 101.535 87.2388H66.9115V114.314C66.9115 115.193 66.632 115.912 66.0729 116.471C65.5138 117.03 64.795 117.309 63.9164 117.309H48.8212Z" fill="white"/>
<path d="M111.942 165.603C111.027 165.603 110.237 165.271 109.571 164.605C108.906 163.939 108.573 163.149 108.573 162.234V142.142H89.2298C88.3147 142.142 87.5243 141.809 86.8587 141.144C86.1931 140.478 85.8604 139.688 85.8604 138.772V125.17C85.8604 124.255 86.1931 123.464 86.8587 122.799C87.5243 122.133 88.3147 121.8 89.2298 121.8H108.573V102.332C108.573 101.417 108.906 100.627 109.571 99.9613C110.237 99.2957 111.027 98.9629 111.942 98.9629H127.167C128.083 98.9629 128.873 99.2957 129.539 99.9613C130.204 100.627 130.537 101.417 130.537 102.332V121.8H149.631C150.546 121.8 151.336 122.133 152.002 122.799C152.667 123.464 153 124.255 153 125.17V138.772C153 139.688 152.667 140.478 152.002 141.144C151.336 141.809 150.546 142.142 149.631 142.142H130.537V162.234C130.537 163.149 130.204 163.939 129.539 164.605C128.873 165.271 128.083 165.603 127.167 165.603H111.942Z" fill="#FFB82F"/>
</svg>
