<svg width="25" height="29" viewBox="0 0 25 29" fill="none" xmlns="http://www.w3.org/2000/svg">
<path d="M14.0789 6.30992C16.3717 4.45671 17.9038 0.281676 16.9609 0.0990697C15.7082 -0.143654 12.9878 0.92066 11.6729 1.10818C9.80796 1.32484 7.77678 -0.837639 6.63665 0.367724C5.70964 1.34776 7.30125 4.91186 9.79137 6.46455C2.36223 9.97774 -8.07992 27.6142 10.137 28.8939C35.3431 30.6646 22.7215 9.73344 14.0789 6.30992ZM16.2436 20.2189C16.1661 20.9065 15.7874 21.5282 15.2213 21.9504C14.6236 22.3961 13.8739 22.6034 13.129 22.6615V23.4212C13.129 23.6245 13.0367 23.8211 12.8786 23.9556C12.6612 24.1407 12.3418 24.1863 12.0779 24.0694C11.8174 23.9541 11.6463 23.697 11.6463 23.4212V22.5909C11.5186 22.5675 11.3918 22.5397 11.2665 22.5066C10.5703 22.3226 9.92456 21.9639 9.45286 21.4331C9.2179 21.1686 9.02634 20.8684 8.89386 20.5443C8.85925 20.4596 8.8284 20.3734 8.80138 20.2862C8.77691 20.2072 8.75166 20.127 8.74294 20.0447C8.72826 19.9066 8.7567 19.7658 8.82358 19.6428C8.96102 19.3899 9.25066 19.2371 9.5464 19.2625C9.83746 19.2873 10.0926 19.4816 10.1842 19.7486C10.2124 19.8308 10.2316 19.9151 10.2633 19.9964C10.2947 20.0772 10.3326 20.1558 10.3772 20.2306C10.4653 20.3778 10.5757 20.5136 10.7028 20.6315C10.9648 20.8743 11.2984 21.0322 11.6463 21.126V18.3036C10.9661 18.1341 10.264 17.9153 9.70229 17.4951C9.42931 17.2908 9.19768 17.0369 9.04598 16.7365C8.88591 16.4194 8.8196 16.0661 8.81691 15.7152C8.81414 15.3589 8.8845 15.0058 9.03896 14.6812C9.18364 14.3773 9.39194 14.1044 9.64733 13.8782C10.1934 13.3946 10.9188 13.1248 11.6464 13.0257V12.9636V12.2371C11.6464 12.0339 11.7386 11.8372 11.8968 11.7027C12.1142 11.5177 12.4335 11.472 12.6974 11.5889C12.9579 11.7043 13.1291 11.9613 13.1291 12.2371V12.9636V13.0214C13.226 13.0332 13.3227 13.0472 13.4188 13.064C14.1333 13.1884 14.8321 13.4723 15.3546 13.9679C15.6021 14.2026 15.8047 14.4824 15.9472 14.7874C15.987 14.8725 16.0218 14.9595 16.0519 15.0483C16.08 15.1311 16.1082 15.2163 16.1216 15.3027C16.1431 15.4406 16.1212 15.5831 16.0599 15.7093C15.9342 15.9678 15.6524 16.1324 15.3558 16.1201C15.0645 16.1079 14.8005 15.9254 14.6962 15.6634C14.6651 15.5854 14.6496 15.5029 14.6179 15.4252C14.5859 15.3465 14.5445 15.2715 14.4968 15.2006C14.404 15.0627 14.2838 14.9445 14.1466 14.8472C13.8494 14.636 13.489 14.526 13.1288 14.4645V17.1656C13.5569 17.2642 13.9852 17.3717 14.3953 17.5273C15.0151 17.7624 15.6024 18.123 15.9407 18.6916C15.8882 18.603 15.8371 18.5167 15.9424 18.6945C16.0458 18.8692 15.9965 18.7859 15.9446 18.6984C16.2137 19.1548 16.3021 19.7005 16.2436 20.2189Z" fill="#555555"/>
</svg>
