<svg width="20" height="20" viewBox="0 0 20 20" fill="none" xmlns="http://www.w3.org/2000/svg">
<path d="M19.5319 10.1878C19.5319 9.36841 19.4654 8.77047 19.3215 8.15039H9.96484V11.8487H15.457C15.3463 12.7678 14.7484 14.1519 13.4196 15.082L13.401 15.2058L16.3593 17.4976L16.5643 17.5181C18.4467 15.7796 19.5319 13.2218 19.5319 10.1878Z" fill="#4285F4"/>
<path d="M9.96517 19.9322C12.6559 19.9322 14.9147 19.0463 16.5646 17.5183L13.4199 15.0822C12.5784 15.669 11.4489 16.0787 9.96517 16.0787C7.32983 16.0787 5.09311 14.3403 4.29578 11.9375L4.17891 11.9474L1.10273 14.3281L1.0625 14.4399C2.70128 17.6954 6.06746 19.9322 9.96517 19.9322Z" fill="#34A853"/>
<path d="M4.29626 11.9363C4.08588 11.3163 3.96412 10.6518 3.96412 9.96534C3.96412 9.27878 4.08588 8.61443 4.28519 7.99435L4.27962 7.86229L1.16489 5.44336L1.06298 5.49183C0.387557 6.84275 0 8.35977 0 9.96534C0 11.5709 0.387557 13.0879 1.06298 14.4388L4.29626 11.9363Z" fill="#FBBC05"/>
<path d="M9.96517 3.85336C11.8365 3.85336 13.0988 4.66168 13.8185 5.33718L16.6311 2.59107C14.9037 0.985496 12.6559 0 9.96517 0C6.06746 0 2.70128 2.23672 1.0625 5.49214L4.28471 7.99466C5.09311 5.59183 7.32983 3.85336 9.96517 3.85336Z" fill="#EB4335"/>
</svg>
