<svg width="140" height="44" viewBox="0 0 140 44" fill="none" xmlns="http://www.w3.org/2000/svg">
<path fill-rule="evenodd" clip-rule="evenodd" d="M4 1C2.34315 1 1 2.34315 1 4V40C1 41.6569 2.34315 43 4 43H136C137.657 43 139 41.6569 139 40V4C139 2.34315 137.657 1 136 1H4Z" fill="#111111" stroke="#555555" stroke-width="2"/>
<path d="M68.4849 24.6976C70.8725 24.6976 72.8189 26.4818 72.8189 28.9436C72.8189 31.3853 70.8725 33.1883 68.4849 33.1883C66.1024 33.1883 64.156 31.3853 64.156 28.9436C64.156 26.4818 66.1024 24.6976 68.4849 24.6976ZM68.4849 31.5163C69.7922 31.5163 70.922 30.4545 70.922 28.9436C70.922 27.4126 69.7922 26.3695 68.4849 26.3695C67.1776 26.3695 66.0529 27.4126 66.0529 28.9436C66.0529 30.4545 67.1776 31.5163 68.4849 31.5163ZM59.0397 24.6976C61.426 24.6976 63.3686 26.4818 63.3686 28.9436C63.3686 31.3853 61.426 33.1883 59.0397 33.1883C56.652 33.1883 54.7108 31.3853 54.7108 28.9436C54.7108 26.4818 56.652 24.6976 59.0397 24.6976ZM59.0397 31.5163C60.347 31.5163 61.4717 30.4545 61.4717 28.9436C61.4717 27.4126 60.347 26.3695 59.0397 26.3695C57.7311 26.3695 56.6026 27.4126 56.6026 28.9436C56.6026 30.4545 57.7311 31.5163 59.0397 31.5163ZM47.8002 25.999H53.9626C54.026 26.3209 54.0615 26.7064 54.0615 27.1257C54.0615 28.4757 53.685 30.1476 52.4766 31.3367C51.2973 32.5444 49.7973 33.1883 47.8002 33.1883C44.1053 33.1883 41 30.2299 41 26.5941C41 22.9583 44.1053 20 47.8002 20C49.8417 20 51.2973 20.7898 52.3916 21.8179L51.0995 23.0893C50.3172 22.3632 49.2571 21.8029 47.8002 21.8029C45.1057 21.8029 42.9958 23.9428 42.9958 26.5941C42.9958 29.2455 45.1057 31.3853 47.8002 31.3853C49.5488 31.3853 50.5441 30.6928 51.1832 30.069C51.7082 29.5524 52.0505 28.8113 52.1786 27.8032H47.8002V25.999ZM93.7597 27.3977L93.9588 27.8805L88.1882 30.2299C88.6294 31.0834 89.3179 31.5163 90.2778 31.5163C91.244 31.5163 91.9122 31.0484 92.403 30.3422L93.8738 31.3067C93.4034 31.9992 92.2597 33.1883 90.2778 33.1883C87.8268 33.1883 85.9984 31.3217 85.9984 28.9436C85.9984 26.4182 87.8458 24.6976 90.0648 24.6976C92.3041 24.6976 93.4034 26.4481 93.7597 27.3977ZM87.8762 28.8113L91.7347 27.2367C91.5217 26.7064 90.8826 26.3359 90.1295 26.3359C89.1683 26.3359 87.8268 27.1743 87.8762 28.8113ZM83.186 32.93V20.4529H85.0829V32.93H83.186ZM80.0794 25.6434V24.9559H81.8774V32.5794C81.8774 35.7124 80.0008 37 77.7767 37C75.6871 37 74.428 35.615 73.9525 34.4896L75.6021 33.8121C75.8988 34.5046 76.6178 35.3281 77.7767 35.3281C79.1981 35.3281 80.0794 34.4559 80.0794 32.8327V32.2238H80.016C79.5899 32.7353 78.7772 33.1883 77.7476 33.1883C75.5869 33.1883 73.6114 31.3367 73.6114 28.9573C73.6114 26.5642 75.5869 24.6976 77.7476 24.6976C78.7772 24.6976 79.5899 25.1468 80.016 25.6434H80.0794ZM77.9099 31.5163C79.1981 31.5163 80.2138 30.4396 80.2138 28.9573C80.2138 27.4613 79.1981 26.3695 77.9099 26.3695C76.6026 26.3695 75.5083 27.4613 75.5083 28.9573C75.5083 30.4396 76.6026 31.5163 77.9099 31.5163ZM102.641 20.4529C104.737 20.4529 106.802 21.9489 106.802 24.327C106.802 26.7064 104.742 28.2024 102.641 28.2024H99.9957V32.93H98.1038V20.4529H102.641ZM102.69 26.4669C104.103 26.4669 104.909 25.2928 104.909 24.327C104.909 23.3426 104.103 22.1885 102.69 22.1885H99.9957V26.4669H102.69ZM114.385 24.6739C116.559 24.6739 118.238 25.9116 118.238 28.1238V32.91H116.411V31.9455H116.346C115.905 32.6031 115.203 33.1683 113.93 33.1683C112.265 33.1683 110.784 32.0915 110.784 30.4196C110.784 28.5917 112.626 27.6123 114.434 27.6123C115.336 27.6123 116.069 27.9005 116.411 28.0951V27.9641C116.396 26.9397 115.4 26.3596 114.419 26.3596C113.717 26.3596 113.052 26.5841 112.691 27.2766L111.012 26.5841C111.596 25.2678 113.018 24.6739 114.385 24.6739ZM114.157 31.5113C115.252 31.5113 116.263 30.6928 116.411 29.5375C115.905 29.2992 115.515 29.1182 114.681 29.1182C113.751 29.1182 112.676 29.4888 112.676 30.4545C112.676 31.2094 113.538 31.5113 114.157 31.5113ZM124.895 24.9472H127L121.795 36.7118H119.818L121.745 32.5058L118.368 24.9472H120.408L122.656 30.356H122.721L124.895 24.9472ZM107.842 32.93V20.4529H109.739V32.93H107.842Z" fill="white"/>
<path d="M12.4475 33.2135L23.1883 22.0109L12.4475 10.7866C12.1829 11.233 12 11.9558 12 12.9972V22.0108V31.0025C12 32.044 12.1829 32.7668 12.4475 33.2135Z" fill="url(#paint0_linear)"/>
<path d="M13.7493 10L24.2052 20.9475L27.7247 17.2488L16.7599 11.0414C15.5192 10.3402 14.7462 10 13.8512 10C13.8102 10 13.7696 10 13.7493 10Z" fill="url(#paint1_linear)"/>
<path d="M29.0464 17.9927L25.2222 22.0107L29.0464 26.0071L31.3655 24.6889C32.2197 24.1997 33.5218 23.3069 33.5218 22.0107C33.5218 20.6924 32.2197 19.7997 31.3654 19.3105L29.0464 17.9927Z" fill="url(#paint2_linear)"/>
<path d="M27.7247 26.7505L24.2052 23.0522L13.7493 34C13.7696 34 13.8102 34 13.8512 34C14.7461 34 15.5192 33.6594 16.7599 32.9579L27.7247 26.7505Z" fill="url(#paint3_linear)"/>
<path d="M46.7606 15.0221C46.4986 15.3434 46.1354 15.5867 45.6711 15.752C45.2068 15.9173 44.6795 16 44.0892 16C43.4823 16 42.9451 15.8705 42.4775 15.6116C42.0098 15.3527 41.6492 14.9823 41.3955 14.5003C41.1418 14.0184 41.0099 13.4561 41 12.8135V12.2801C41 11.2507 41.262 10.4466 41.786 9.86798C42.31 9.28932 43.0412 9 43.9798 9C44.7857 9 45.4257 9.18716 45.9 9.5615C46.3742 9.93583 46.6594 10.4755 46.7556 11.1805H45.5219C45.3826 10.3601 44.8769 9.94987 44.0047 9.94987C43.4409 9.94987 43.0122 10.1409 42.7187 10.5231C42.4252 10.9052 42.2735 11.4659 42.2635 12.2052V12.7293C42.2635 13.4655 42.4285 14.0371 42.7585 14.4442C43.0885 14.8513 43.547 15.0548 44.134 15.0548C44.7774 15.0548 45.235 14.9176 45.507 14.643V13.3095H44.0146V12.4111H46.7606V15.0221ZM52.3769 12.865H49.4021V14.9612H52.8793V15.9064H48.1435V9.09358H52.8445V10.0481H49.4021V11.9291H52.3769V12.865ZM59.1373 10.0481H56.8789V15.9064H55.6303V10.0481H53.3917V9.09358H59.1373V10.0481ZM63.9527 15.9064H62.6991V9.09358H63.9527V15.9064ZM70.7331 10.0481H68.4746V15.9064H67.226V10.0481H64.9875V9.09358H70.7331V10.0481ZM80.0008 12.6778C80.0008 13.3454 79.8781 13.931 79.6326 14.4348C79.3872 14.9386 79.0365 15.3254 78.5805 15.5953C78.1245 15.8651 77.5997 16 77.0061 16C76.4191 16 75.8959 15.8651 75.4366 15.5953C74.9773 15.3254 74.6224 14.941 74.372 14.4418C74.1216 13.9427 73.9948 13.3672 73.9915 12.7152V12.3316C73.9915 11.6671 74.1166 11.0807 74.367 10.5722C74.6174 10.0637 74.9706 9.67458 75.4266 9.40475C75.8826 9.13491 76.4058 9 76.9961 9C77.5864 9 78.1096 9.13335 78.5656 9.40007C79.0216 9.66678 79.374 10.0505 79.6227 10.5511C79.8714 11.0518 79.9974 11.6344 80.0008 12.2988V12.6778ZM78.7422 12.3222C78.7422 11.5673 78.5905 10.9886 78.287 10.5862C77.9836 10.1838 77.5533 9.98262 76.9961 9.98262C76.4522 9.98262 76.0269 10.183 75.7201 10.5839C75.4134 10.9847 75.2567 11.5517 75.25 12.2848V12.6778C75.25 13.4265 75.4051 14.0051 75.7151 14.4138C76.0252 14.8224 76.4555 15.0267 77.0061 15.0267C77.5632 15.0267 77.9918 14.8271 78.292 14.4278C78.5921 14.0285 78.7422 13.4452 78.7422 12.6778V12.3222ZM87 15.9064H85.7414L82.5129 11.0729V15.9064H81.2544V9.09358H82.5129L85.7514 13.9459V9.09358H87V15.9064Z" fill="#DEDEDE"/>
<defs>
<linearGradient id="paint0_linear" x1="22.2362" y1="11.8991" x2="4.99134" y2="16.3362" gradientUnits="userSpaceOnUse">
<stop stop-color="#00A0FF"/>
<stop offset="0.0066" stop-color="#00A1FF"/>
<stop offset="0.2601" stop-color="#00BEFF"/>
<stop offset="0.5122" stop-color="#00D2FF"/>
<stop offset="0.7604" stop-color="#00DFFF"/>
<stop offset="1" stop-color="#00E3FF"/>
</linearGradient>
<linearGradient id="paint1_linear" x1="11.1217" y1="-6.87783" x2="17.2218" y2="3.22917" gradientUnits="userSpaceOnUse">
<stop stop-color="#32A071"/>
<stop offset="0.0685" stop-color="#2DA771"/>
<stop offset="0.4762" stop-color="#15CF74"/>
<stop offset="0.8009" stop-color="#06E775"/>
<stop offset="1" stop-color="#00F076"/>
</linearGradient>
<linearGradient id="paint2_linear" x1="34.1514" y1="22.0012" x2="14.3918" y2="22.0012" gradientUnits="userSpaceOnUse">
<stop stop-color="#FFE000"/>
<stop offset="0.4087" stop-color="#FFBD00"/>
<stop offset="0.7754" stop-color="#FFA500"/>
<stop offset="1" stop-color="#FF9C00"/>
</linearGradient>
<linearGradient id="paint3_linear" x1="25.8014" y1="35.9543" x2="12.1394" y2="58.5826" gradientUnits="userSpaceOnUse">
<stop stop-color="#FF3A44"/>
<stop offset="1" stop-color="#C31162"/>
</linearGradient>
</defs>
</svg>
