<svg width="21" height="16" viewBox="0 0 21 16" fill="none" xmlns="http://www.w3.org/2000/svg">
<mask id="mask0" mask-type="alpha" maskUnits="userSpaceOnUse" x="0" y="0" width="21" height="16">
<path d="M20.6532 1.80661L11.404 8.53793C10.966 8.8567 10.3726 8.8567 9.93462 8.53793L0.685493 1.80661C0.782699 0.79278 1.63627 0 2.67488 0H18.6638C19.7024 0 20.556 0.79278 20.6532 1.80661ZM20.6624 3.65465V14C20.6624 15.1046 19.7676 16 18.6638 16H2.67488C1.57108 16 0.67627 15.1046 0.67627 14V3.65465L9.05298 9.75103C10.0166 10.4523 11.3221 10.4523 12.2857 9.75103L20.6624 3.65465Z" fill="white"/>
</mask>
<g mask="url(#mask0)">
<path d="M22.6611 -4H-1.32227V20H22.6611V-4Z" fill="white"/>
</g>
</svg>
