<svg width="24" height="24" viewBox="0 0 24 24" fill="none" xmlns="http://www.w3.org/2000/svg">
<path d="M1.38858 11.1846L6.45782 13.0766L8.41993 19.3867C8.54548 19.7908 9.03967 19.9402 9.36769 19.672L12.1934 17.3685C12.4896 17.1272 12.9115 17.1151 13.221 17.3398L18.3175 21.04C18.6684 21.2951 19.1655 21.1028 19.2535 20.6788L22.987 2.72009C23.0831 2.25692 22.628 1.87053 22.1869 2.0411L1.38264 10.0668C0.869238 10.2648 0.873712 10.9917 1.38858 11.1846ZM8.10372 12.0694L18.0109 5.96759C18.189 5.85825 18.3721 6.099 18.2192 6.24083L10.0429 13.8411C9.75555 14.1086 9.57016 14.4666 9.51766 14.8552L9.23914 16.9193C9.20225 17.1948 8.81512 17.2222 8.73908 16.9555L7.6679 13.1917C7.54521 12.7624 7.724 12.3038 8.10372 12.0694Z" fill="#43A4F2"/>
</svg>
