<svg width="16" height="16" viewBox="0 0 16 16" fill="none" xmlns="http://www.w3.org/2000/svg">
<path d="M15.6537 7.25119C15.9687 6.93083 16.0799 6.46066 15.944 6.0236C15.8078 5.58653 15.4532 5.27454 15.0175 5.20832L11.1433 4.62078C10.9783 4.5957 10.8358 4.48769 10.7621 4.33152L9.03006 0.667468C8.83558 0.255818 8.44087 0 8.00098 0C7.56141 0 7.16669 0.255818 6.97221 0.667468L5.23988 4.33152C5.16619 4.48769 5.0233 4.5957 4.8583 4.62078L0.984178 5.20866C0.548772 5.27454 0.194104 5.58653 0.057939 6.0236C-0.0779052 6.46066 0.0332692 6.93083 0.34821 7.25119L3.15128 10.103C3.27078 10.2247 3.32557 10.3999 3.29737 10.5711L2.63577 14.5984C2.56144 15.0508 2.73605 15.4992 3.092 15.7694C3.44763 16.04 3.91059 16.0751 4.30051 15.8607L7.76517 13.9593C7.91287 13.8784 8.08908 13.8784 8.23678 13.9593L11.7018 15.8607C11.8709 15.9537 12.0542 15.9995 12.2365 15.9995C12.4733 15.9995 12.7091 15.9223 12.9103 15.7694C13.2662 15.4992 13.4408 15.0508 13.3665 14.5984L12.7046 10.5715C12.6764 10.3999 12.7312 10.225 12.8507 10.1033L15.6537 7.25119ZM12.0734 10.6845L12.735 14.7114C12.7683 14.914 12.693 15.1077 12.5335 15.2287C12.3736 15.3494 12.1747 15.3641 12 15.2692L8.53506 13.3674C8.36814 13.2761 8.18424 13.23 8.00098 13.23C7.81771 13.23 7.63413 13.2761 7.46689 13.3678L4.00254 15.2692C3.82729 15.3641 3.62833 15.3494 3.46878 15.2287C3.30923 15.1077 3.23426 14.9144 3.26726 14.7114L3.92886 10.6845C3.99261 10.2959 3.86926 9.89933 3.59886 9.62445L0.79547 6.77233C0.654179 6.62853 0.606121 6.42589 0.667315 6.23026C0.728189 6.0343 0.881014 5.89987 1.07613 5.87011L4.94993 5.28256C5.32382 5.22605 5.64709 4.98127 5.81401 4.62747L7.54635 0.963415C7.63349 0.778824 7.80362 0.668806 8.00066 0.668806C8.19801 0.668806 8.36782 0.778824 8.45529 0.963415L10.1876 4.62747C10.3545 4.98127 10.6775 5.22605 11.0514 5.28256L14.9255 5.87011C15.1206 5.89987 15.2734 6.0343 15.3343 6.23026C15.3952 6.42589 15.3475 6.62853 15.2062 6.77233L12.4031 9.62411C12.1327 9.89933 12.0093 10.2956 12.0734 10.6845Z" fill="#555555"/>
<path d="M12.0734 10.6845L12.735 14.7114C12.7683 14.914 12.693 15.1077 12.5335 15.2287C12.3736 15.3494 12.1747 15.3641 12 15.2692L8.53506 13.3674C8.36814 13.2761 8.18424 13.23 8.00098 13.23C7.81771 13.23 7.63413 13.2761 7.46689 13.3678L4.00254 15.2692C3.82729 15.3641 3.62833 15.3494 3.46878 15.2287C3.30923 15.1077 3.23426 14.9144 3.26726 14.7114L3.92886 10.6845C3.99261 10.2959 3.86926 9.89933 3.59886 9.62445L0.79547 6.77233C0.654179 6.62853 0.606121 6.42589 0.667315 6.23026C0.728189 6.0343 0.881014 5.89987 1.07613 5.87011L4.94993 5.28256C5.32382 5.22605 5.64709 4.98127 5.81401 4.62747L7.54635 0.963415C7.63349 0.778824 7.80362 0.668806 8.00066 0.668806C8.19801 0.668806 8.36782 0.778824 8.45529 0.963415L10.1876 4.62747C10.3545 4.98127 10.6775 5.22605 11.0514 5.28256L14.9255 5.87011C15.1206 5.89987 15.2734 6.0343 15.3343 6.23026C15.3952 6.42589 15.3475 6.62853 15.2062 6.77233L12.4031 9.62411C12.1327 9.89933 12.0093 10.2956 12.0734 10.6845Z" fill="#555555"/>
<path d="M8.00098 14C7.20098 14 4.00098 9.82107 4.00098 7.75C4.00098 5.67893 5.79184 4 8.00098 4C10.2101 4 12.001 5.67893 12.001 7.75C12.001 9.82107 8.80098 14 8.00098 14ZM8.00098 9.25C8.88463 9.25 9.60098 8.57843 9.60098 7.75C9.60098 6.92157 8.88463 6.25 8.00098 6.25C7.11732 6.25 6.40098 6.92157 6.40098 7.75C6.40098 8.57843 7.11732 9.25 8.00098 9.25Z" fill="white"/>
</svg>
