<svg width="12" height="16" viewBox="0 0 12 16" fill="none" xmlns="http://www.w3.org/2000/svg">
<mask id="mask0" mask-type="alpha" maskUnits="userSpaceOnUse" x="0" y="0" width="13" height="16">
<path d="M6.00098 8C4.34413 8 3.00098 5.5 3.00098 3.5C3.00098 1.5 3.50106 0 6.00102 0C8.50098 0 9.00098 1.50002 9.00098 3.5C9.00098 5.49998 7.65774 8 6.00098 8ZM12.001 12V13C11.4119 15 9.41197 16 6.00111 16C2.5902 16 0.590151 15 0.000976562 13V12C0.000976562 10 1.16764 8.66667 3.50098 8C3.50098 8 4.50098 9 6.00098 9C7.50098 9 8.50098 8 8.50098 8C10.8343 8.66667 12.001 10 12.001 12Z" fill="white"/>
</mask>
<g mask="url(#mask0)">
<path d="M6.00098 8C4.34413 8 3.00098 5.5 3.00098 3.5C3.00098 1.5 3.50106 0 6.00102 0C8.50098 0 9.00098 1.50002 9.00098 3.5C9.00098 5.49998 7.65774 8 6.00098 8ZM12.001 12V13C11.4119 15 9.41197 16 6.00111 16C2.5902 16 0.590151 15 0.000976562 13V12C0.000976562 10 1.16764 8.66667 3.50098 8C3.50098 8 4.50098 9 6.00098 9C7.50098 9 8.50098 8 8.50098 8C10.8343 8.66667 12.001 10 12.001 12Z" fill="black"/>
<path d="M12.001 0H-3.99902V16H12.001V0Z" fill="#555555"/>
</g>
</svg>
