<svg width="16" height="17" viewBox="0 0 16 17" fill="none" xmlns="http://www.w3.org/2000/svg">
<path d="M7.99987 0.99707C3.58171 0.99707 0 4.57889 0 8.99704C0 13.4151 3.58171 16.9972 7.99987 16.9972C12.418 16.9972 16 13.4151 16 8.99704C16 4.57878 12.418 0.99707 7.99987 0.99707ZM8.02424 12.7713V12.7712H7.97539H4.55816C4.55816 10.2722 6.75296 10.2727 7.24001 9.6193L7.29575 9.32132C6.61147 8.97454 6.12842 8.13847 6.12842 7.16064C6.12842 5.87241 6.96641 4.82791 7.99987 4.82791C9.03332 4.82791 9.87131 5.87241 9.87131 7.16064C9.87131 8.13015 9.39685 8.96099 8.72169 9.31326L8.78516 9.65188C9.31952 10.2737 11.4413 10.3142 11.4413 12.7713H8.02424Z" fill="#555555"/>
</svg>
