<svg width="45" height="45" viewBox="0 0 45 45" fill="none" xmlns="http://www.w3.org/2000/svg">
<circle cx="22.5" cy="22.5" r="22.5" fill="#DEDEDE"/>
<path d="M14.96 31C14.832 31 14.72 30.952 14.624 30.856C14.528 30.76 14.48 30.648 14.48 30.52C14.48 30.392 14.488 30.304 14.504 30.256L20.456 14.728C20.584 14.376 20.84 14.2 21.224 14.2H22.856C23.24 14.2 23.496 14.376 23.624 14.728L29.552 30.256L29.6 30.52C29.6 30.648 29.552 30.76 29.456 30.856C29.36 30.952 29.248 31 29.12 31H27.896C27.72 31 27.584 30.96 27.488 30.88C27.392 30.784 27.328 30.688 27.296 30.592L25.976 27.184H18.104L16.784 30.592C16.752 30.688 16.68 30.784 16.568 30.88C16.472 30.96 16.344 31 16.184 31H14.96ZM25.28 25.12L22.04 16.6L18.8 25.12H25.28Z" fill="#555555"/>
</svg>
