<svg width="49" height="48" viewBox="0 0 49 48" fill="none" xmlns="http://www.w3.org/2000/svg">
<path d="M24.5195 48C37.7651 48 48.5028 37.2548 48.5028 24C48.5028 10.7452 37.7651 0 24.5195 0C11.2738 0 0.536133 10.7452 0.536133 24C0.536133 37.2548 11.2738 48 24.5195 48Z" fill="#8B47C0"/>
<path d="M28.5167 12H20.5223C16.1071 12 12.5278 15.5817 12.5278 20V28C12.5278 32.4183 16.1071 36 20.5223 36H28.5167C32.9319 36 36.5112 32.4183 36.5112 28V20C36.5112 15.5817 32.9319 12 28.5167 12Z" stroke="white" stroke-width="2"/>
<path d="M24.5195 30C27.8309 30 30.5153 27.3137 30.5153 24C30.5153 20.6863 27.8309 18 24.5195 18C21.2081 18 18.5237 20.6863 18.5237 24C18.5237 27.3137 21.2081 30 24.5195 30Z" stroke="white" stroke-width="2"/>
<path d="M32.0141 18C32.8419 18 33.5131 17.3284 33.5131 16.5C33.5131 15.6716 32.8419 15 32.0141 15C31.1862 15 30.5151 15.6716 30.5151 16.5C30.5151 17.3284 31.1862 18 32.0141 18Z" fill="white"/>
</svg>
