<svg width="13" height="16" viewBox="0 0 13 16" fill="none" xmlns="http://www.w3.org/2000/svg">
<mask id="mask0" mask-type="alpha" maskUnits="userSpaceOnUse" x="0" y="0" width="13" height="16">
<path d="M6.34837 16C5.14921 16 0.352539 9.31371 0.352539 6C0.352539 2.68629 3.03697 0 6.34837 0C9.65978 0 12.3442 2.68629 12.3442 6C12.3442 9.31371 7.54754 16 6.34837 16ZM6.34837 8.4C7.67294 8.4 8.74671 7.32548 8.74671 6C8.74671 4.67452 7.67294 3.6 6.34837 3.6C5.02381 3.6 3.95004 4.67452 3.95004 6C3.95004 7.32548 5.02381 8.4 6.34837 8.4Z" fill="white"/>
</mask>
<g mask="url(#mask0)">
<path d="M14.3429 0H-1.646V16H14.3429V0Z" fill="#555555"/>
</g>
</svg>
