<svg width="176" height="40" viewBox="0 0 176 40" fill="none" xmlns="http://www.w3.org/2000/svg">
<path fill-rule="evenodd" clip-rule="evenodd" d="M54.3647 19.5693C54.4571 19.847 54.5496 20.1475 54.5496 20.4715C54.5496 20.8419 54.4805 21.1888 54.3647 21.4893H47.353V26.8572H53.2118C53.3037 27.1348 53.3962 27.4588 53.3962 27.7822C53.3962 28.1068 53.3266 28.4537 53.2118 28.7542H47.353V34.3075H54.5958C54.6877 34.6081 54.7801 34.9086 54.7801 35.2321C54.7801 35.5801 54.7111 35.9035 54.5958 36.2275H45V19.5693H54.3647Z" fill="#0080C9"/>
<path fill-rule="evenodd" clip-rule="evenodd" d="M65.5028 22.1373C65.5028 22.1373 65.2951 23.0629 64.903 24.2198L62.7811 30.0736H68.2707L66.1717 24.2198C65.7562 23.0166 65.5718 22.1373 65.5718 22.1373H65.5028ZM65.6181 19.5698C66.4947 19.5698 67.002 19.7313 67.002 19.7313L72.7918 36.066C72.7918 36.066 72.3763 36.2275 71.5231 36.2275C70.739 36.2275 70.3697 36.066 70.3697 36.066L68.9396 31.9936H62.1117L60.6592 36.066C60.6592 36.066 60.2666 36.2275 59.5287 36.2275C58.8136 36.2275 58.4443 36.066 58.4443 36.066L64.2341 19.7313C64.2341 19.7313 64.8105 19.5698 65.6181 19.5698Z" fill="#0080C9"/>
<path fill-rule="evenodd" clip-rule="evenodd" d="M82.3606 19.3384C85.1285 19.3384 86.8817 19.9858 86.8817 19.9858C86.8817 20.6567 86.6739 21.374 86.2356 21.8366C86.2356 21.8366 84.6673 21.3277 82.6836 21.3277C80.2387 21.3277 79.0624 22.2767 79.0624 23.9655C79.0624 25.7469 81.0462 26.1631 83.1909 26.8575C85.3362 27.5977 87.5043 28.5926 87.5043 31.6237C87.5043 34.724 85.4977 36.4591 81.7145 36.4591C78.6698 36.4591 76.7328 35.4877 76.7328 35.4877C76.7094 34.8626 76.94 34.1458 77.2859 33.6129C77.2859 33.6129 79.454 34.3307 81.5992 34.3307C83.9756 34.3307 85.1056 33.428 85.1056 31.6929C85.1056 30.0506 83.7907 29.4718 82.199 28.9629C79.8004 28.1535 76.7328 27.5747 76.7328 24.0811C76.7328 21.2355 78.6008 19.3384 82.3606 19.3384Z" fill="#0080C9"/>
<path fill-rule="evenodd" clip-rule="evenodd" d="M103.717 19.5693C104.501 19.5693 105.031 19.7313 105.031 19.7313L99.1959 29.2632V36.0655C99.1959 36.0655 98.8038 36.2275 98.0425 36.2275C97.2121 36.2275 96.8429 36.0655 96.8429 36.0655V29.3095L91.1689 19.7313C91.1689 19.7313 91.6763 19.5693 92.5991 19.5693C93.4529 19.5693 93.9369 19.7313 93.9369 19.7313L98.1578 26.8806L102.495 19.7313C102.495 19.7313 102.909 19.5693 103.717 19.5693Z" fill="#0080C9"/>
<path fill-rule="evenodd" clip-rule="evenodd" d="M115.339 19.3384C117.853 19.3384 119.145 20.0551 119.145 20.0551C119.145 20.1942 119.098 20.2864 119.006 20.3562C119.006 20.3562 117.645 19.6853 115.408 19.6853C112.063 19.6853 109.826 21.6053 109.826 27.9217C109.826 34.238 112.017 36.1122 115.408 36.1122C117.83 36.1122 119.237 35.4178 119.237 35.4178C119.352 35.4637 119.399 35.5569 119.399 35.696C119.399 35.696 118.06 36.4591 115.339 36.4591C111.372 36.4591 109.48 33.7749 109.48 27.9217C109.48 22.2075 111.348 19.3384 115.339 19.3384Z" fill="#0080C9"/>
<path fill-rule="evenodd" clip-rule="evenodd" d="M115.339 36.7971C111.17 36.7971 109.143 33.8936 109.143 27.9215C109.143 21.9182 111.17 19 115.339 19C117.91 19 119.252 19.7282 119.309 19.7593C119.416 19.8187 119.483 19.9322 119.483 20.0549C119.483 20.2982 119.39 20.4907 119.207 20.6271C119.106 20.7029 118.969 20.7144 118.858 20.6598C118.845 20.6533 117.53 20.0233 115.408 20.0233C112.966 20.0233 110.163 20.9216 110.163 27.9215C110.163 34.8405 112.815 35.7738 115.408 35.7738C117.725 35.7738 119.075 35.1209 119.088 35.1144C119.173 35.0718 119.274 35.0664 119.362 35.1035C119.502 35.1591 119.736 35.3102 119.736 35.6958C119.736 35.8175 119.671 35.9293 119.565 35.9898C119.508 36.0225 118.118 36.7971 115.339 36.7971Z" fill="#0080C9"/>
<path fill-rule="evenodd" clip-rule="evenodd" d="M125.716 28.1532H130.837C133.166 28.1532 134.711 26.603 134.711 24.035C134.711 21.4664 133.166 19.9162 130.837 19.9162H125.716V28.1532ZM130.79 19.5693C133.489 19.5693 135.058 21.3508 135.058 24.035C135.058 26.4175 133.789 28.0833 131.552 28.4537L135.519 36.1812C135.519 36.1812 135.403 36.2275 135.311 36.2275C135.173 36.2275 135.127 36.1812 135.127 36.1812L131.205 28.5001H125.716V36.1812C125.716 36.1812 125.67 36.2275 125.531 36.2275C125.416 36.2275 125.37 36.1812 125.37 36.1812V19.5693H130.79Z" fill="#0080C9"/>
<path fill-rule="evenodd" clip-rule="evenodd" d="M126.053 27.8148H130.836C133.019 27.8148 134.374 26.3666 134.374 24.0348C134.374 21.703 133.019 20.2548 130.836 20.2548H126.053V27.8148ZM135.311 36.5655C135.069 36.5655 134.942 36.4744 134.888 36.4204C134.863 36.3953 134.842 36.367 134.826 36.3353L130.999 28.838H126.053V36.181C126.053 36.271 126.018 36.3571 125.954 36.4204C125.9 36.4744 125.773 36.5655 125.532 36.5655C125.302 36.5655 125.175 36.464 125.131 36.4204C125.068 36.3571 125.033 36.271 125.033 36.181V19.5691C125.033 19.3826 125.184 19.231 125.37 19.231H130.79C133.63 19.231 135.394 21.0719 135.394 24.0348C135.394 26.4511 134.156 28.1617 132.054 28.694L135.818 36.0266C135.862 36.1111 135.868 36.2104 135.835 36.2993C135.801 36.3888 135.732 36.4602 135.643 36.4951C135.603 36.5115 135.456 36.5655 135.311 36.5655Z" fill="#0080C9"/>
<path fill-rule="evenodd" clip-rule="evenodd" d="M150.532 19.5693C150.578 19.685 150.578 19.8006 150.532 19.9162H142.136V27.5973H149.378C149.424 27.713 149.424 27.8286 149.378 27.9442H142.136V35.8806H150.762C150.808 35.9962 150.808 36.1119 150.762 36.2275H141.79V19.5693H150.532Z" fill="#0080C9"/>
<path fill-rule="evenodd" clip-rule="evenodd" d="M150.762 36.566H141.79C141.603 36.566 141.452 36.4149 141.452 36.2278V19.5696C141.452 19.3825 141.603 19.2314 141.79 19.2314H150.532C150.669 19.2314 150.794 19.3154 150.844 19.4442C150.923 19.6394 150.923 19.8467 150.844 20.042C150.794 20.1707 150.669 20.2547 150.532 20.2547H142.473V27.2594H149.378C149.516 27.2594 149.64 27.3434 149.691 27.4722C149.769 27.668 149.769 27.8747 149.691 28.07C149.64 28.1987 149.516 28.2827 149.378 28.2827H142.473V35.5427H150.762C150.9 35.5427 151.024 35.6262 151.075 35.7554C151.154 35.9507 151.154 36.1574 151.075 36.3533C151.024 36.482 150.9 36.566 150.762 36.566Z" fill="#0080C9"/>
<path fill-rule="evenodd" clip-rule="evenodd" d="M165.683 22.0216C165.313 20.8653 165.268 20.3793 165.268 20.3793H165.244C165.244 20.3793 165.175 20.8653 164.807 22.0216L160.355 36.3202C160.332 36.3431 160.308 36.3431 160.285 36.3202L155.119 19.6156C155.119 19.6156 155.165 19.5698 155.304 19.5698C155.419 19.5698 155.488 19.6156 155.488 19.6156L159.824 33.7058C160.193 34.9086 160.332 35.4878 160.332 35.4878H160.355C160.355 35.4878 160.47 34.9086 160.839 33.7058L165.175 19.6156C165.175 19.6156 165.198 19.5698 165.244 19.5698C165.291 19.5698 165.313 19.6156 165.313 19.6156L169.65 33.7058C170.019 34.8856 170.135 35.5336 170.135 35.5336H170.158C170.158 35.5336 170.273 34.8627 170.596 33.7058L174.656 19.6156C174.656 19.6156 174.656 19.5698 174.864 19.5698C175.002 19.5698 175.024 19.6156 175.024 19.6156L170.181 36.3202C170.158 36.3431 170.135 36.3431 170.112 36.3202L165.683 22.0216Z" fill="#0080C9"/>
<path fill-rule="evenodd" clip-rule="evenodd" d="M160.32 36.6762C160.223 36.6762 160.125 36.6374 160.047 36.5594C160.008 36.5202 159.98 36.4727 159.964 36.4204L154.797 19.7164C154.76 19.5958 154.792 19.4649 154.881 19.3765C154.935 19.3225 155.062 19.2314 155.303 19.2314C155.505 19.2314 155.639 19.31 155.675 19.334C155.739 19.3771 155.787 19.4414 155.81 19.5162L160.146 33.6058C160.217 33.8344 160.279 34.0405 160.333 34.2244C160.386 34.0405 160.447 33.8344 160.517 33.6064L164.853 19.5162C164.927 19.3569 165.057 19.2314 165.244 19.2314C165.432 19.2314 165.562 19.3569 165.615 19.4644L169.972 33.6058C170.031 33.7951 170.084 33.9713 170.132 34.1327C170.173 33.9729 170.219 33.8 170.271 33.6145L174.325 19.5451C174.35 19.4153 174.456 19.2314 174.864 19.2314C175.165 19.2314 175.283 19.3771 175.326 19.4644C175.364 19.5402 175.373 19.6285 175.349 19.7104L170.505 36.4144C170.489 36.4694 170.46 36.5191 170.42 36.5594C170.292 36.6876 170 36.686 169.873 36.5594C169.835 36.5202 169.806 36.4727 169.79 36.4204L165.362 22.1224C165.319 21.9893 165.28 21.8638 165.245 21.746C165.21 21.8638 165.171 21.9898 165.128 22.1245L160.677 36.4209C160.66 36.4733 160.632 36.5207 160.593 36.5594C160.516 36.6374 160.418 36.6762 160.32 36.6762Z" fill="#0080C9"/>
<path fill-rule="evenodd" clip-rule="evenodd" d="M15.7928 34.0911C15.4749 33.8339 15.1625 33.5655 14.8562 33.2865C13.166 31.7474 11.6742 29.8758 10.6874 27.6105C10.4666 27.1035 10.267 26.5004 10.1006 25.8335C8.09378 29.3285 8.28508 33.8311 9.1391 36.749C13.4055 39.1873 19.4882 40.7653 27.2868 39.6187C27.2868 39.6187 20.9207 38.2446 15.7928 34.0911Z" fill="#0080C9"/>
<path fill-rule="evenodd" clip-rule="evenodd" d="M4.53286 15.9528C2.47247 17.9731 0.965543 20.2483 0 22.7723C0.599789 27.0197 2.46602 30.6921 5.60233 33.7879C6.6299 34.8028 7.89997 35.7892 9.3932 36.6667C8.56421 33.7543 8.37851 29.2597 10.3261 25.7705C9.05806 20.5537 9.86006 11.2326 19.9658 10.3484C20.6478 10.2888 21.337 10.4006 22.0234 10.5033C25.658 11.5277 21.6645 16.812 17.926 20.8433C15.4704 23.491 13.1245 25.5994 13.1245 25.5994C13.1245 25.5994 17.0547 23.5862 21.6109 21.1747C25.4139 19.1619 29.6479 16.8741 32.4031 15.2437C30.1663 13.2782 27.5577 11.054 24.8205 10.2481C22.9253 9.68988 21.0325 10.2481 18.8964 10.2481C13.1982 10.2481 8.41034 12.1499 4.53286 15.9528Z" fill="#ED136A"/>
<path fill-rule="evenodd" clip-rule="evenodd" d="M3.75 15.0001C1.74879 17.0618 0.416667 18.9906 0 22.5001C0.166669 23.7398 1.29851 25.5227 1.66667 26.6668C2.23788 23.748 2.54073 20.9994 4.31697 18.427C6.75402 14.8967 12.9167 10.8334 17.0833 10.0001C12.9167 8.33343 6.39363 12.2757 3.75 15.0001Z" fill="#D5115F"/>
<path fill-rule="evenodd" clip-rule="evenodd" d="M32.403 15.3733C29.9999 11.6667 26.6666 8.75008 23.0232 10.8334C25.999 11.9629 28.5052 14.0282 30.1767 16.6667C30.9886 16.205 31.7404 15.7693 32.403 15.3733Z" fill="#D5115F"/>
<path d="M25.0001 8.3335H14.1667V10.8335H25.0001V8.3335Z" fill="#D81160"/>
<path fill-rule="evenodd" clip-rule="evenodd" d="M18.9051 10.1957C24.069 10.1957 28.5212 11.8355 32.2665 15.1035C32.8231 14.7767 33.3232 14.4743 33.7412 14.2096C35.3328 13.2001 37.0614 11.367 36.5868 9.4555C36.28 8.22049 35.4898 7.01536 34.4458 5.94802C30.4789 1.98254 25.6513 0 19.963 0C14.3261 0 9.58981 1.86843 5.75404 5.60453C1.91748 9.34062 0 13.9539 0 19.4443C0 20.4946 0.0713278 21.513 0.211593 22.5C1.16715 20.0203 2.65786 17.7851 4.69608 15.8002C8.53184 12.0641 13.2682 10.1957 18.9051 10.1957Z" fill="#982475"/>
</svg>
