<svg width="29" height="32" viewBox="0 0 29 32" fill="none" xmlns="http://www.w3.org/2000/svg">
<path fill-rule="evenodd" clip-rule="evenodd" d="M12.4371 27.1142C12.1983 26.9103 11.9635 26.6976 11.7334 26.4764C10.4633 25.2564 9.34225 23.7728 8.60073 21.977C8.43483 21.5751 8.28485 21.097 8.1598 20.5684C6.6518 23.3389 6.79556 26.9081 7.4373 29.2212C10.6432 31.1541 15.214 32.4049 21.0742 31.496C21.0742 31.496 16.2904 30.4068 12.4371 27.1142Z" fill="#0080C9"/>
<path fill-rule="evenodd" clip-rule="evenodd" d="M3.67489 12.7712C2.07989 14.3756 0.913345 16.1823 0.165894 18.1867C0.630205 21.5596 2.0749 24.4759 4.5028 26.9343C5.29827 27.7403 6.28146 28.5236 7.43741 29.2204C6.79567 26.9076 6.65192 23.3384 8.1596 20.5676C7.17797 16.4248 7.79882 9.02277 15.622 8.32065C16.1499 8.27328 16.6834 8.36206 17.2148 8.44363C20.0284 9.25712 16.9369 13.4535 14.0429 16.6548C12.142 18.7574 10.3259 20.4317 10.3259 20.4317C10.3259 20.4317 13.3684 18.833 16.8955 16.918C19.8394 15.3196 23.1171 13.5028 25.25 12.208C23.5184 10.6472 21.499 8.88096 19.3801 8.24096C17.913 7.79767 16.4477 8.24096 14.7941 8.24096C10.3829 8.24096 6.67655 9.75124 3.67489 12.7712Z" fill="#ED136A"/>
<path fill-rule="evenodd" clip-rule="evenodd" d="M14.7941 8.24125C18.835 8.24125 22.3191 9.56675 25.25 12.2083C25.6856 11.9442 26.0769 11.6998 26.404 11.4858C27.6495 10.6698 29.0022 9.18808 28.6308 7.64298C28.3907 6.64471 27.7723 5.67059 26.9553 4.80784C23.8511 1.60251 20.0733 0 15.622 0C11.2108 0 7.50445 1.51027 4.5028 4.5302C1.50052 7.55012 0 11.2791 0 15.717C0 16.566 0.0558172 17.3892 0.165581 18.187C0.913344 16.1826 2.07989 14.3758 3.67489 12.7715C6.67655 9.75153 10.3829 8.24125 14.7941 8.24125Z" fill="#982475"/>
<path fill-rule="evenodd" clip-rule="evenodd" d="M3.67508 12.7928C2.08008 14.3972 0.913223 16.2037 0.165771 18.2084C0.29861 19.1731 0.514395 20.0992 0.807825 20.9895C1.26309 18.7182 2.19078 16.5792 3.60648 14.5773C5.54886 11.83 8.02851 9.86326 11.0398 8.66797C8.23806 9.29981 5.7821 10.6727 3.67508 12.7928Z" fill="#D5115F"/>
<path fill-rule="evenodd" clip-rule="evenodd" d="M23.4513 13.2614C24.1074 12.8824 24.7148 12.5248 25.2502 12.1998C23.0394 10.2073 20.5133 8.96461 17.6713 8.47363C20.0758 9.40069 22.1008 11.0958 23.4513 13.2614Z" fill="#D5115F"/>
</svg>
