<svg width="26" height="21" viewBox="0 0 26 21" fill="none" xmlns="http://www.w3.org/2000/svg">
<path d="M11.2067 16.0098C10.3134 16.7717 8.99873 16.7724 8.10472 16.0111L1.84194e-06 9.14844V18.9697C-0.000434048 19.2768 0.0765005 19.5793 0.223831 19.8489L4.88981 15.0765C4.9868 14.9745 5.1313 14.9327 5.26773 14.9669C5.40438 15.0013 5.51183 15.1064 5.5491 15.2422C5.58658 15.3777 5.54801 15.5231 5.44819 15.6225L0.736438 20.4417C1.05485 20.6816 1.44258 20.8113 1.8412 20.8109H17.4635C17.861 20.8113 18.2479 20.6823 18.5659 20.4434L13.8282 15.6231C13.68 15.4688 13.6835 15.2241 13.836 15.0741C13.9886 14.924 14.2335 14.9248 14.3852 15.0757L19.0793 19.8517C19.2275 19.5815 19.3051 19.2781 19.3047 18.9697V13.3798C18.0238 13.3147 16.7857 12.8988 15.7254 12.1777L11.2067 16.0098Z" fill="#FFD467"/>
<path d="M10.7019 15.4145L15.0911 11.6922C14.8999 11.5281 14.7177 11.3542 14.5447 11.1711C13.3865 9.94911 12.7037 8.35332 12.6193 6.67188H1.84154C0.963 6.67296 0.207385 7.29367 0.0356445 8.15521L8.60981 15.4154C9.21287 15.9289 10.0995 15.9284 10.7019 15.4145Z" fill="#FDB80E"/>
<path d="M19.6951 0C17.1777 0 14.9014 1.4975 13.905 3.80946C12.9088 6.1212 13.3832 8.80432 15.112 10.6344C15.3583 10.8951 15.6259 11.1348 15.9123 11.3508C15.9308 11.3626 15.9482 11.3756 15.9644 11.3902C17.0445 12.1875 18.3528 12.6149 19.6951 12.6094C23.177 12.6094 25.9999 9.7866 25.9999 6.30471C25.9999 2.82282 23.177 0 19.6951 0ZM23.3434 4.99019L19.0497 8.48341C18.8851 8.61723 18.6441 8.59522 18.5063 8.43394L16.6625 6.27476C16.5226 6.11087 16.542 5.86415 16.7059 5.72423C16.87 5.5841 17.1165 5.60349 17.2566 5.7676L18.8526 7.6367L22.8504 4.38387C23.0178 4.24766 23.2636 4.27294 23.3998 4.44032C23.5361 4.6077 23.5108 4.85354 23.3434 4.98976V4.99019Z" fill="#0080C9"/>
</svg>
