<svg width="14" height="16" viewBox="0 0 14 16" fill="none" xmlns="http://www.w3.org/2000/svg">
<path d="M13.34 10.68C13.46 10.68 13.56 10.72 13.64 10.8C13.7333 10.88 13.7733 10.98 13.76 11.1C13.7333 11.7933 13.5067 12.4533 13.08 13.08C12.6533 13.7067 12.02 14.22 11.18 14.62C10.34 15.0067 9.32667 15.2 8.14 15.2C6.44667 15.2 5.13333 14.76 4.2 13.88C3.28 13 2.75333 11.7867 2.62 10.24H1.32C1.18667 10.24 1.07333 10.2 0.98 10.12C0.9 10.0267 0.86 9.91333 0.86 9.78V9.08C0.86 8.94667 0.9 8.84 0.98 8.76C1.07333 8.66667 1.18667 8.62 1.32 8.62H2.58V7.4H1.32C1.18667 7.4 1.07333 7.36 0.98 7.28C0.9 7.18667 0.86 7.07333 0.86 6.94V6.24C0.86 6.10667 0.9 6 0.98 5.92C1.07333 5.82667 1.18667 5.78 1.32 5.78H2.6C2.73333 4.22 3.26 3 4.18 2.12C5.11333 1.24 6.43333 0.799999 8.14 0.799999C9.32667 0.799999 10.34 0.999999 11.18 1.4C12.02 1.78667 12.6533 2.29333 13.08 2.92C13.5067 3.54667 13.7333 4.20667 13.76 4.9V4.94C13.76 5.04667 13.7133 5.14 13.62 5.22C13.54 5.28667 13.4467 5.32 13.34 5.32H12.24C12.1067 5.32 12 5.28667 11.92 5.22C11.8533 5.15333 11.7933 5.03333 11.74 4.86C11.5133 4.03333 11.1 3.43333 10.5 3.06C9.9 2.68667 9.11333 2.5 8.14 2.5C6.02 2.5 4.85333 3.59333 4.64 5.78H8.58C8.71333 5.78 8.82 5.82667 8.9 5.92C8.99333 6 9.04 6.10667 9.04 6.24V6.94C9.04 7.07333 8.99333 7.18667 8.9 7.28C8.82 7.36 8.71333 7.4 8.58 7.4H4.6V8.62H8.58C8.71333 8.62 8.82 8.66667 8.9 8.76C8.99333 8.84 9.04 8.94667 9.04 9.08V9.78C9.04 9.91333 8.99333 10.0267 8.9 10.12C8.82 10.2 8.71333 10.24 8.58 10.24H4.64C4.85333 12.4133 6.02 13.5 8.14 13.5C9.11333 13.5 9.9 13.3133 10.5 12.94C11.1 12.5667 11.5133 11.9667 11.74 11.14C11.7933 10.9667 11.8533 10.8467 11.92 10.78C12 10.7133 12.1067 10.68 12.24 10.68H13.34Z" fill="#555555"/>
</svg>
