<svg width="122" height="23" viewBox="0 0 122 23" fill="none" xmlns="http://www.w3.org/2000/svg">
<path d="M8.312 20C8.232 20 8.164 19.976 8.108 19.928C8.06 19.872 8.036 19.804 8.036 19.724V13.004L6.044 14.54C5.988 14.588 5.928 14.612 5.864 14.612C5.792 14.612 5.724 14.572 5.66 14.492L5.348 14.096C5.308 14.04 5.288 13.984 5.288 13.928C5.288 13.832 5.328 13.756 5.408 13.7L8.024 11.684C8.112 11.628 8.216 11.6 8.336 11.6H8.948C9.028 11.6 9.092 11.628 9.14 11.684C9.196 11.732 9.224 11.796 9.224 11.876V19.724C9.224 19.804 9.196 19.872 9.14 19.928C9.092 19.976 9.028 20 8.948 20H8.312Z" fill="#CCCCCC"/>
<path d="M30.864 20C30.784 20 30.716 19.976 30.66 19.928C30.612 19.872 30.588 19.804 30.588 19.724V19.34C30.588 19.156 30.688 18.98 30.888 18.812L33.432 16.268C34.048 15.756 34.472 15.34 34.704 15.02C34.936 14.692 35.052 14.348 35.052 13.988C35.052 13.524 34.92 13.16 34.656 12.896C34.4 12.632 34.024 12.5 33.528 12.5C33.064 12.5 32.692 12.64 32.412 12.92C32.132 13.192 31.96 13.556 31.896 14.012C31.88 14.108 31.84 14.18 31.776 14.228C31.72 14.268 31.656 14.288 31.584 14.288H30.96C30.888 14.288 30.828 14.268 30.78 14.228C30.732 14.18 30.708 14.124 30.708 14.06C30.724 13.628 30.84 13.216 31.056 12.824C31.272 12.424 31.588 12.1 32.004 11.852C32.428 11.596 32.936 11.468 33.528 11.468C34.432 11.468 35.112 11.704 35.568 12.176C36.032 12.64 36.264 13.232 36.264 13.952C36.264 14.456 36.136 14.912 35.88 15.32C35.632 15.72 35.244 16.152 34.716 16.616L32.412 18.956H36.156C36.244 18.956 36.312 18.984 36.36 19.04C36.416 19.088 36.444 19.152 36.444 19.232V19.724C36.444 19.804 36.416 19.872 36.36 19.928C36.304 19.976 36.236 20 36.156 20H30.864Z" fill="#CCCCCC"/>
<path d="M59.576 20.12C58.944 20.12 58.396 20.02 57.932 19.82C57.476 19.612 57.128 19.344 56.888 19.016C56.656 18.688 56.532 18.344 56.516 17.984C56.516 17.912 56.54 17.856 56.588 17.816C56.636 17.768 56.696 17.744 56.768 17.744H57.356C57.524 17.744 57.636 17.832 57.692 18.008C57.796 18.408 58.02 18.692 58.364 18.86C58.708 19.02 59.112 19.1 59.576 19.1C60.144 19.1 60.596 18.968 60.932 18.704C61.268 18.432 61.436 18.044 61.436 17.54C61.436 16.572 60.848 16.088 59.672 16.088H58.532C58.452 16.088 58.384 16.064 58.328 16.016C58.28 15.96 58.256 15.892 58.256 15.812V15.488C58.256 15.376 58.3 15.268 58.388 15.164L60.716 12.62H57.176C57.096 12.62 57.028 12.596 56.972 12.548C56.924 12.492 56.9 12.424 56.9 12.344V11.888C56.9 11.808 56.924 11.74 56.972 11.684C57.028 11.628 57.096 11.6 57.176 11.6H61.964C62.052 11.6 62.12 11.628 62.168 11.684C62.224 11.732 62.252 11.8 62.252 11.888V12.32C62.252 12.416 62.208 12.508 62.12 12.596L59.804 15.176L59.996 15.188C60.812 15.212 61.456 15.424 61.928 15.824C62.4 16.224 62.636 16.808 62.636 17.576C62.636 18.096 62.504 18.548 62.24 18.932C61.976 19.316 61.612 19.612 61.148 19.82C60.684 20.02 60.16 20.12 59.576 20.12Z" fill="#CCCCCC"/>
<path d="M86.812 20C86.732 20 86.664 19.976 86.608 19.928C86.56 19.872 86.536 19.804 86.536 19.724V17.996H82.648C82.568 17.996 82.5 17.972 82.444 17.924C82.396 17.868 82.372 17.8 82.372 17.72V17.24C82.372 17.12 82.416 17 82.504 16.88L86.104 11.804C86.144 11.74 86.204 11.692 86.284 11.66C86.364 11.62 86.452 11.6 86.548 11.6H87.412C87.492 11.6 87.556 11.628 87.604 11.684C87.66 11.732 87.688 11.796 87.688 11.876V16.952H88.768C88.848 16.952 88.916 16.98 88.972 17.036C89.028 17.084 89.056 17.148 89.056 17.228V17.72C89.056 17.8 89.028 17.868 88.972 17.924C88.924 17.972 88.86 17.996 88.78 17.996H87.688V19.724C87.688 19.804 87.66 19.872 87.604 19.928C87.556 19.976 87.492 20 87.412 20H86.812ZM86.548 16.976V12.86L83.656 16.976H86.548Z" fill="#CCCCCC"/>
<path d="M111.504 20.12C110.896 20.12 110.372 20.012 109.932 19.796C109.492 19.58 109.152 19.296 108.912 18.944C108.68 18.592 108.556 18.216 108.54 17.816V17.792C108.54 17.728 108.564 17.676 108.612 17.636C108.66 17.596 108.716 17.576 108.78 17.576H109.428C109.596 17.576 109.704 17.664 109.752 17.84C109.864 18.264 110.08 18.58 110.4 18.788C110.72 18.996 111.088 19.1 111.504 19.1C112.04 19.1 112.484 18.94 112.836 18.62C113.196 18.292 113.376 17.84 113.376 17.264C113.376 16.744 113.196 16.324 112.836 16.004C112.484 15.684 112.04 15.524 111.504 15.524C111.216 15.524 110.984 15.564 110.808 15.644C110.632 15.716 110.456 15.82 110.28 15.956C110.184 16.028 110.1 16.084 110.028 16.124C109.964 16.156 109.892 16.172 109.812 16.172H109.188C109.116 16.172 109.052 16.148 108.996 16.1C108.94 16.044 108.916 15.98 108.924 15.908L109.308 11.9C109.316 11.804 109.344 11.732 109.392 11.684C109.448 11.628 109.52 11.6 109.608 11.6H113.796C113.876 11.6 113.94 11.628 113.988 11.684C114.044 11.732 114.072 11.796 114.072 11.876V12.344C114.072 12.424 114.044 12.492 113.988 12.548C113.94 12.596 113.876 12.62 113.796 12.62H110.34L110.112 14.984C110.544 14.712 111.064 14.576 111.672 14.576C112.2 14.576 112.684 14.684 113.124 14.9C113.572 15.116 113.924 15.428 114.18 15.836C114.444 16.244 114.576 16.724 114.576 17.276C114.576 17.868 114.444 18.38 114.18 18.812C113.924 19.236 113.564 19.56 113.1 19.784C112.636 20.008 112.104 20.12 111.504 20.12Z" fill="#CCCCCC"/>
<rect y="2" width="122" height="1" fill="#F4F4F4"/>
<rect x="8" width="5" height="1" transform="rotate(90 8 0)" fill="#F4F4F4"/>
<rect x="34" width="5" height="1" transform="rotate(90 34 0)" fill="#F4F4F4"/>
<rect x="60" width="5" height="1" transform="rotate(90 60 0)" fill="#F4F4F4"/>
<rect x="86" width="5" height="1" transform="rotate(90 86 0)" fill="#F4F4F4"/>
<rect x="112" width="5" height="1" transform="rotate(90 112 0)" fill="#F4F4F4"/>
<rect x="73" y="1" width="3" height="1" transform="rotate(90 73 1)" fill="#F4F4F4"/>
<rect x="99" y="1" width="3" height="1" transform="rotate(90 99 1)" fill="#F4F4F4"/>
<rect x="47" y="1" width="3" height="1" transform="rotate(90 47 1)" fill="#F4F4F4"/>
<rect x="21" y="1" width="3" height="1" transform="rotate(90 21 1)" fill="#F4F4F4"/>
</svg>
