<svg width="136" height="21" viewBox="0 0 136 21" fill="none" xmlns="http://www.w3.org/2000/svg">
<path d="M29.3121 20C29.2321 20 29.1641 19.976 29.1081 19.928C29.0601 19.872 29.0361 19.804 29.0361 19.724V13.004L27.0441 14.54C26.9881 14.588 26.9281 14.612 26.8641 14.612C26.7921 14.612 26.7241 14.572 26.6601 14.492L26.3481 14.096C26.3081 14.04 26.2881 13.984 26.2881 13.928C26.2881 13.832 26.3281 13.756 26.4081 13.7L29.0241 11.684C29.1121 11.628 29.2161 11.6 29.3361 11.6H29.9481C30.0281 11.6 30.0921 11.628 30.1401 11.684C30.1961 11.732 30.2241 11.796 30.2241 11.876V19.724C30.2241 19.804 30.1961 19.872 30.1401 19.928C30.0921 19.976 30.0281 20 29.9481 20H29.3121Z" fill="#CCCCCC"/>
<path d="M3.63867 20.1406C2.6582 20.1406 1.89258 19.7461 1.3418 18.957C0.794922 18.1797 0.521484 17.1172 0.521484 15.7695C0.521484 14.4336 0.794922 13.375 1.3418 12.5938C1.90039 11.8008 2.66602 11.4043 3.63867 11.4043C4.61133 11.4043 5.375 11.7988 5.92969 12.5879C6.47266 13.3652 6.74414 14.4238 6.74414 15.7637C6.74414 17.1113 6.47266 18.1738 5.92969 18.9512C5.37891 19.7441 4.61523 20.1406 3.63867 20.1406ZM3.63867 19.2207C4.29102 19.2207 4.79688 18.9082 5.15625 18.2832C5.50781 17.6777 5.68359 16.8398 5.68359 15.7695C5.68359 14.7148 5.50586 13.8809 5.15039 13.2676C4.78711 12.6426 4.2832 12.3301 3.63867 12.3301C2.99414 12.3301 2.48828 12.6445 2.12109 13.2734C1.76172 13.8867 1.58203 14.7168 1.58203 15.7637C1.58203 16.834 1.75977 17.6738 2.11523 18.2832C2.47852 18.9082 2.98633 19.2207 3.63867 19.2207Z" fill="#CCCCCC"/>
<path d="M51.8639 20C51.7839 20 51.7159 19.976 51.6599 19.928C51.6119 19.872 51.5879 19.804 51.5879 19.724V19.34C51.5879 19.156 51.6879 18.98 51.8879 18.812L54.4319 16.268C55.0479 15.756 55.4719 15.34 55.7039 15.02C55.9359 14.692 56.0519 14.348 56.0519 13.988C56.0519 13.524 55.9199 13.16 55.6559 12.896C55.3999 12.632 55.0239 12.5 54.5279 12.5C54.0639 12.5 53.6919 12.64 53.4119 12.92C53.1319 13.192 52.9599 13.556 52.8959 14.012C52.8799 14.108 52.8399 14.18 52.7759 14.228C52.7199 14.268 52.6559 14.288 52.5839 14.288H51.9599C51.8879 14.288 51.8279 14.268 51.7799 14.228C51.7319 14.18 51.7079 14.124 51.7079 14.06C51.7239 13.628 51.8399 13.216 52.0559 12.824C52.2719 12.424 52.5879 12.1 53.0039 11.852C53.4279 11.596 53.9359 11.468 54.5279 11.468C55.4319 11.468 56.1119 11.704 56.5679 12.176C57.0319 12.64 57.2639 13.232 57.2639 13.952C57.2639 14.456 57.1359 14.912 56.8799 15.32C56.6319 15.72 56.2439 16.152 55.7159 16.616L53.4119 18.956H57.1559C57.2439 18.956 57.3119 18.984 57.3599 19.04C57.4159 19.088 57.4439 19.152 57.4439 19.232V19.724C57.4439 19.804 57.4159 19.872 57.3599 19.928C57.3039 19.976 57.2359 20 57.1559 20H51.8639Z" fill="#CCCCCC"/>
<path d="M80.5761 20.12C79.9441 20.12 79.3961 20.02 78.9321 19.82C78.4761 19.612 78.1281 19.344 77.8881 19.016C77.6561 18.688 77.5321 18.344 77.5161 17.984C77.5161 17.912 77.5401 17.856 77.5881 17.816C77.6361 17.768 77.6961 17.744 77.7681 17.744H78.3561C78.5241 17.744 78.6361 17.832 78.6921 18.008C78.7961 18.408 79.0201 18.692 79.3641 18.86C79.7081 19.02 80.1121 19.1 80.5761 19.1C81.1441 19.1 81.5961 18.968 81.9321 18.704C82.2681 18.432 82.4361 18.044 82.4361 17.54C82.4361 16.572 81.8481 16.088 80.6721 16.088H79.5321C79.4521 16.088 79.3841 16.064 79.3281 16.016C79.2801 15.96 79.2561 15.892 79.2561 15.812V15.488C79.2561 15.376 79.3001 15.268 79.3881 15.164L81.7161 12.62H78.1761C78.0961 12.62 78.0281 12.596 77.9721 12.548C77.9241 12.492 77.9001 12.424 77.9001 12.344V11.888C77.9001 11.808 77.9241 11.74 77.9721 11.684C78.0281 11.628 78.0961 11.6 78.1761 11.6H82.9641C83.0521 11.6 83.1201 11.628 83.1681 11.684C83.2241 11.732 83.2521 11.8 83.2521 11.888V12.32C83.2521 12.416 83.2081 12.508 83.1201 12.596L80.8041 15.176L80.9961 15.188C81.8121 15.212 82.4561 15.424 82.9281 15.824C83.4001 16.224 83.6361 16.808 83.6361 17.576C83.6361 18.096 83.5041 18.548 83.2401 18.932C82.9761 19.316 82.6121 19.612 82.1481 19.82C81.6841 20.02 81.1601 20.12 80.5761 20.12Z" fill="#CCCCCC"/>
<path d="M107.812 20C107.732 20 107.664 19.976 107.608 19.928C107.56 19.872 107.536 19.804 107.536 19.724V17.996H103.648C103.568 17.996 103.5 17.972 103.444 17.924C103.396 17.868 103.372 17.8 103.372 17.72V17.24C103.372 17.12 103.416 17 103.504 16.88L107.104 11.804C107.144 11.74 107.204 11.692 107.284 11.66C107.364 11.62 107.452 11.6 107.548 11.6H108.412C108.492 11.6 108.556 11.628 108.604 11.684C108.66 11.732 108.688 11.796 108.688 11.876V16.952H109.768C109.848 16.952 109.916 16.98 109.972 17.036C110.028 17.084 110.056 17.148 110.056 17.228V17.72C110.056 17.8 110.028 17.868 109.972 17.924C109.924 17.972 109.86 17.996 109.78 17.996H108.688V19.724C108.688 19.804 108.66 19.872 108.604 19.928C108.556 19.976 108.492 20 108.412 20H107.812ZM107.548 16.976V12.86L104.656 16.976H107.548Z" fill="#CCCCCC"/>
<path d="M132.504 20.12C131.896 20.12 131.372 20.012 130.932 19.796C130.492 19.58 130.152 19.296 129.912 18.944C129.68 18.592 129.556 18.216 129.54 17.816V17.792C129.54 17.728 129.564 17.676 129.612 17.636C129.66 17.596 129.716 17.576 129.78 17.576H130.428C130.596 17.576 130.704 17.664 130.752 17.84C130.864 18.264 131.08 18.58 131.4 18.788C131.72 18.996 132.088 19.1 132.504 19.1C133.04 19.1 133.484 18.94 133.836 18.62C134.196 18.292 134.376 17.84 134.376 17.264C134.376 16.744 134.196 16.324 133.836 16.004C133.484 15.684 133.04 15.524 132.504 15.524C132.216 15.524 131.984 15.564 131.808 15.644C131.632 15.716 131.456 15.82 131.28 15.956C131.184 16.028 131.1 16.084 131.028 16.124C130.964 16.156 130.892 16.172 130.812 16.172H130.188C130.116 16.172 130.052 16.148 129.996 16.1C129.94 16.044 129.916 15.98 129.924 15.908L130.308 11.9C130.316 11.804 130.344 11.732 130.392 11.684C130.448 11.628 130.52 11.6 130.608 11.6H134.796C134.876 11.6 134.94 11.628 134.988 11.684C135.044 11.732 135.072 11.796 135.072 11.876V12.344C135.072 12.424 135.044 12.492 134.988 12.548C134.94 12.596 134.876 12.62 134.796 12.62H131.34L131.112 14.984C131.544 14.712 132.064 14.576 132.672 14.576C133.2 14.576 133.684 14.684 134.124 14.9C134.572 15.116 134.924 15.428 135.18 15.836C135.444 16.244 135.576 16.724 135.576 17.276C135.576 17.868 135.444 18.38 135.18 18.812C134.924 19.236 134.564 19.56 134.1 19.784C133.636 20.008 133.104 20.12 132.504 20.12Z" fill="#CCCCCC"/>
<path d="M133 2H3V3H133V2Z" fill="#F4F4F4"/>
<path d="M29 5V0L28 0V5H29Z" fill="#F4F4F4"/>
<path d="M55 5V0L54 0V5H55Z" fill="#F4F4F4"/>
<path d="M81 5V0L80 0V5H81Z" fill="#F4F4F4"/>
<path d="M107 5V0L106 0V5H107Z" fill="#F4F4F4"/>
<path d="M133 5V0L132 0V5H133Z" fill="#F4F4F4"/>
<path d="M94 4V1H93V4H94Z" fill="#F4F4F4"/>
<path d="M120 4V1H119V4H120Z" fill="#F4F4F4"/>
<path d="M68 4V1H67V4H68Z" fill="#F4F4F4"/>
<path d="M42 4V1H41V4H42Z" fill="#F4F4F4"/>
<path d="M4 5V0L3 0L3 5H4Z" fill="#F4F4F4"/>
<path d="M17 4V1H16V4H17Z" fill="#F4F4F4"/>
</svg>
