<svg width="30" height="30" viewBox="0 0 30 30" fill="none" xmlns="http://www.w3.org/2000/svg">
<path d="M11.7155 21.0878H15.6988V23.4309H11.7155V21.0878ZM7.32216 20.7951C6.51329 20.7951 5.85777 21.4506 5.85777 22.2594C5.85777 23.0681 6.51329 23.7238 7.32216 23.7238C8.13103 23.7238 8.78654 23.0681 8.78654 22.2594C8.78654 21.4506 8.13103 20.7951 7.32216 20.7951ZM23.548 13.6485H11.7155V15.9915H23.548V13.6485ZM7.32216 13.3557C6.51329 13.3557 5.85777 14.0112 5.85777 14.8201C5.85777 15.629 6.51329 16.2845 7.32216 16.2845C8.13103 16.2845 8.78654 15.629 8.78654 14.8201C8.78654 14.0112 8.13103 13.3557 7.32216 13.3557ZM23.548 6.61926H11.7155V8.96233H23.548V6.61926ZM7.32216 6.32629C6.51329 6.32629 5.85777 6.98204 5.85777 7.79068C5.85777 8.59955 6.51329 9.25529 7.32216 9.25529C8.13103 9.25529 8.78654 8.59955 8.78654 7.79068C8.78654 6.98204 8.13103 6.32629 7.32216 6.32629ZM2.34306 26.4771V3.51471C2.34306 2.86858 2.86858 2.34306 3.51471 2.34306H26.4771C27.123 2.34306 27.6485 2.86858 27.6485 3.51471V16.7532H29.9915V3.51471C29.9915 1.57677 28.415 0 26.4771 0H3.51471C1.57677 0 0 1.57677 0 3.51471V26.4771C0 28.415 1.57677 29.9915 3.51471 29.9915H17.046V27.6485H3.51471C2.86858 27.6485 2.34306 27.123 2.34306 26.4771ZM28.3431 30L26.0099 27.6668C25.2205 28.1385 24.2983 28.41 23.3139 28.41C20.4069 28.41 18.0418 26.0449 18.0418 23.1381C18.0418 20.2311 20.4069 17.8661 23.3139 17.8661C26.2207 17.8661 28.5857 20.2311 28.5857 23.1381C28.5857 24.2136 28.2616 25.2148 27.7066 26.0497L30 28.3431L28.3431 30ZM23.3139 26.0669C24.9289 26.0669 26.2427 24.7531 26.2427 23.1381C26.2427 21.5231 24.9289 20.2091 23.3139 20.2091C21.6989 20.2091 20.3849 21.5231 20.3849 23.1381C20.3849 24.7531 21.6989 26.0669 23.3139 26.0669Z" fill="#555555"/>
</svg>
