<svg width="20" height="20" viewBox="0 0 20 20" fill="none" xmlns="http://www.w3.org/2000/svg">
<mask id="mask0" mask-type="alpha" maskUnits="userSpaceOnUse" x="0" y="0" width="20" height="20">
<path d="M12.4964 14.6178C11.215 15.4901 9.66706 16 8 16C3.58172 16 0 12.4183 0 8C0 3.58172 3.58172 0 8 0C12.4183 0 16 3.58172 16 8C16 9.66706 15.4901 11.215 14.6178 12.4964L19.5607 17.4393C20.1464 18.0251 20.1464 18.9749 19.5607 19.5607C18.9749 20.1464 18.0251 20.1464 17.4393 19.5607L12.4964 14.6178ZM8 14C11.3137 14 14 11.3137 14 8C14 4.68629 11.3137 2 8 2C4.68629 2 2 4.68629 2 8C2 11.3137 4.68629 14 8 14Z" fill="white"/>
</mask>
<g mask="url(#mask0)">
<path d="M21 -3H-3V21H21V-3Z" fill="#111111"/>
</g>
</svg>
