<svg width="30" height="30" viewBox="0 0 30 30" fill="none" xmlns="http://www.w3.org/2000/svg">
<path d="M29.8369 20.7115C29.6394 20.085 29.0553 19.6615 28.3985 19.6686H27.7378V3.53027C27.7378 3.25176 27.512 3.02594 27.2335 3.02594H20.173V0.504324C20.173 0.225813 19.9471 0 19.6686 0H0.504324C0.225813 0 0 0.225813 0 0.504324V26.7292C0 27.0077 0.225813 27.2335 0.504324 27.2335H17.1672L16.915 28.0111C16.7106 28.6351 16.932 29.3195 17.4632 29.7056C17.9941 30.0917 18.7134 30.0912 19.2441 29.7046L21.8876 27.7792C22.0661 27.6487 22.3087 27.6487 22.4872 27.7792L25.1357 29.7056C25.6636 30.0981 26.3866 30.0981 26.9148 29.7056C27.4519 29.3244 27.6755 28.6359 27.4645 28.0116L26.4519 24.8919C26.3854 24.6853 26.4603 24.4592 26.6368 24.3331L29.2902 22.4067C29.826 22.0238 30.0479 21.3353 29.8369 20.7115ZM26.7292 4.03459V19.6686H25.1204C25.0675 19.6684 25.0148 19.6598 24.9645 19.643C24.8126 19.5918 24.6934 19.4729 24.6419 19.3212L23.6281 16.2039C23.424 15.5831 22.8443 15.1635 22.1907 15.1635C21.5372 15.1635 20.9575 15.5831 20.7534 16.2039L20.173 17.9857V13.1124H24.2075C24.4861 13.1124 24.7119 12.8866 24.7119 12.6081C24.7119 12.3296 24.4861 12.1038 24.2075 12.1038H20.173V10.0865H24.2075C24.4861 10.0865 24.7119 9.86066 24.7119 9.58215C24.7119 9.30364 24.4861 9.07783 24.2075 9.07783H20.173V7.06053H24.2075C24.4861 7.06053 24.7119 6.83472 24.7119 6.55621C24.7119 6.2777 24.4861 6.05189 24.2075 6.05189H20.173V4.03459H26.7292ZM1.00865 26.2248V1.00865H19.1643V19.6686H15.982C15.3257 19.6669 14.7431 20.089 14.5397 20.713C14.3365 21.3372 14.5589 22.0213 15.0903 22.4067L17.7427 24.3326C17.9205 24.4592 17.9956 24.6863 17.9284 24.8938L17.4955 26.2248H1.00865ZM28.696 21.5911L26.0433 23.5175C25.5119 23.9005 25.2891 24.5831 25.4925 25.2056L26.5063 28.3224C26.5755 28.5305 26.5021 28.7598 26.3246 28.889C26.1473 29.0183 25.9067 29.0178 25.7296 28.8881L23.0795 26.9601C22.5473 26.5772 21.8297 26.5772 21.2976 26.9601L18.6504 28.8866C18.4736 29.0166 18.2327 29.0171 18.0552 28.8881C17.8776 28.7588 17.804 28.5298 17.8732 28.3214L18.8865 25.2061C19.0907 24.5826 18.8676 23.8987 18.3352 23.5156L15.6845 21.5916C15.5057 21.4636 15.4306 21.2345 15.4986 21.0255C15.5666 20.8164 15.7623 20.6756 15.982 20.6773H19.2601C19.4701 20.679 19.678 20.6339 19.8683 20.545L19.8779 20.5396L19.8871 20.5367C19.8942 20.5335 19.8991 20.5276 19.9063 20.5239C20.282 20.3493 20.5687 20.0267 20.698 19.6329L21.7118 16.5166C21.7797 16.3098 21.9731 16.1696 22.1907 16.1696C22.4087 16.1696 22.602 16.3098 22.6699 16.5166L23.684 19.6354C23.8877 20.2564 24.4668 20.6765 25.1204 20.6773H28.3985C28.6182 20.6756 28.8137 20.8164 28.8816 21.0252C28.9499 21.2341 28.875 21.4628 28.6965 21.5911H28.696Z" fill="#555555"/>
<path d="M4.53899 7.04325H15.6341C15.9126 7.04325 16.1384 6.81744 16.1384 6.53893C16.1384 6.26042 15.9126 6.03461 15.6341 6.03461H4.53899C4.26048 6.03461 4.03467 6.26042 4.03467 6.53893C4.03467 6.81744 4.26048 7.04325 4.53899 7.04325Z" fill="#555555"/>
<path d="M4.53899 11.0778H15.6341C15.9126 11.0778 16.1384 10.852 16.1384 10.5735C16.1384 10.295 15.9126 10.0692 15.6341 10.0692H4.53899C4.26048 10.0692 4.03467 10.295 4.03467 10.5735C4.03467 10.852 4.26048 11.0778 4.53899 11.0778Z" fill="#555555"/>
<path d="M4.53899 15.1124H15.6341C15.9126 15.1124 16.1384 14.8866 16.1384 14.6081C16.1384 14.3296 15.9126 14.1038 15.6341 14.1038H4.53899C4.26048 14.1038 4.03467 14.3296 4.03467 14.6081C4.03467 14.8866 4.26048 15.1124 4.53899 15.1124Z" fill="#555555"/>
<path d="M16.1384 18.6427C16.1384 18.3642 15.9126 18.1384 15.6341 18.1384H4.53899C4.26048 18.1384 4.03467 18.3642 4.03467 18.6427C4.03467 18.9212 4.26048 19.147 4.53899 19.147H15.6341C15.9126 19.147 16.1384 18.9212 16.1384 18.6427Z" fill="#555555"/>
</svg>
