<svg width="80" height="16" viewBox="0 0 80 16" fill="none" xmlns="http://www.w3.org/2000/svg">
<mask id="mask0" mask-type="alpha" maskUnits="userSpaceOnUse" x="64" y="0" width="16" height="16">
<path d="M72 12L67 16L68.8104 9.70304L64 6H70L72 0L74 6H80L75.1896 9.70304L77 16L72 12Z" fill="white"/>
</mask>
<g mask="url(#mask0)">
<path d="M80 0H64V16H80V0Z" fill="#FDB80E"/>
</g>
<mask id="mask1" mask-type="alpha" maskUnits="userSpaceOnUse" x="48" y="0" width="16" height="16">
<path d="M56 12L51 16L52.8104 9.70304L48 6H54L56 0L58 6H64L59.1896 9.70304L61 16L56 12Z" fill="white"/>
</mask>
<g mask="url(#mask1)">
<path d="M64 0H48V16H64V0Z" fill="#FDB80E"/>
</g>
<mask id="mask2" mask-type="alpha" maskUnits="userSpaceOnUse" x="32" y="0" width="16" height="16">
<path d="M40 12L35 16L36.8104 9.70304L32 6H38L40 0L42 6H48L43.1896 9.70304L45 16L40 12Z" fill="white"/>
</mask>
<g mask="url(#mask2)">
<path d="M48 0H32V16H48V0Z" fill="#FDB80E"/>
</g>
<mask id="mask3" mask-type="alpha" maskUnits="userSpaceOnUse" x="16" y="0" width="16" height="16">
<path d="M24 12L19 16L20.8104 9.70304L16 6H22L24 0L26 6H32L27.1896 9.70304L29 16L24 12Z" fill="white"/>
</mask>
<g mask="url(#mask3)">
<path d="M32 0H16V16H32V0Z" fill="#FDB80E"/>
</g>
<mask id="mask4" mask-type="alpha" maskUnits="userSpaceOnUse" x="0" y="0" width="16" height="16">
<path d="M8 12L3 16L4.81037 9.70304L0 6H6L8 0L10 6H16L11.1896 9.70304L13 16L8 12Z" fill="white"/>
</mask>
<g mask="url(#mask4)">
<path d="M16 0H0V16H16V0Z" fill="#FDB80E"/>
</g>
</svg>
