<svg width="120" height="24" viewBox="0 0 120 24" fill="none" xmlns="http://www.w3.org/2000/svg">
<path fill-rule="evenodd" clip-rule="evenodd" d="M100.429 24L108 18L111 20.4263V9L107.924 0L105 9H95.9324L103.143 14.5546L100.429 24Z" fill="#FDB80E"/>
<mask id="mask0" mask-type="alpha" maskUnits="userSpaceOnUse" x="71" y="0" width="25" height="24">
<path d="M83.9421 18L76.4473 24L79.161 14.5546L71.9504 9H80.9442L83.9421 0L86.94 9H95.9338L88.7232 14.5546L91.4369 24L83.9421 18Z" fill="white"/>
</mask>
<g mask="url(#mask0)">
<path d="M95.9338 0H71.9504V24H95.9338V0Z" fill="#FDB80E"/>
</g>
<mask id="mask1" mask-type="alpha" maskUnits="userSpaceOnUse" x="47" y="0" width="25" height="24">
<path d="M59.9577 18L52.4629 24L55.1766 14.5546L47.9661 9H56.9598L59.9577 0L62.9556 9H71.9494L64.7389 14.5546L67.4525 24L59.9577 18Z" fill="white"/>
</mask>
<g mask="url(#mask1)">
<path d="M71.9494 0H47.9661V24H71.9494V0Z" fill="#FDB80E"/>
</g>
<mask id="mask2" mask-type="alpha" maskUnits="userSpaceOnUse" x="23" y="0" width="25" height="24">
<path d="M35.9748 18L28.48 24L31.1937 14.5546L23.9832 9H32.9769L35.9748 0L38.9727 9H47.9665L40.7559 14.5546L43.4696 24L35.9748 18Z" fill="white"/>
</mask>
<g mask="url(#mask2)">
<path d="M47.9665 0H23.9832V24H47.9665V0Z" fill="#FDB80E"/>
</g>
<mask id="mask3" mask-type="alpha" maskUnits="userSpaceOnUse" x="0" y="0" width="24" height="24">
<path d="M11.9917 18L4.49687 24L7.21054 14.5546L0 9H8.99375L11.9917 0L14.9896 9H23.9833L16.7728 14.5546L19.4865 24L11.9917 18Z" fill="white"/>
</mask>
<g mask="url(#mask3)">
<path d="M23.9833 0H0V24H23.9833V0Z" fill="#FDB80E"/>
</g>
</svg>
