<svg width="134" height="28" viewBox="0 0 134 28" fill="none" xmlns="http://www.w3.org/2000/svg">
<path fill-rule="evenodd" clip-rule="evenodd" d="M134 0H0V28H134V0ZM10.4969 26L17.9917 20L25.4865 26L22.7728 16.5546L29.9833 11H20.9896L17.9917 2L14.9937 11H6L13.2105 16.5546L10.4969 26ZM41.9917 20L34.4969 26L37.2105 16.5546L30 11H38.9937L41.9917 2L44.9896 11H53.9833L46.7728 16.5546L49.4865 26L41.9917 20ZM58.4969 26L65.9917 20L73.4865 26L70.7728 16.5546L77.9833 11H68.9896L65.9917 2L62.9937 11H54L61.2105 16.5546L58.4969 26ZM89.9917 20L82.4969 26L85.2105 16.5546L78 11H86.9938L89.9917 2L92.9896 11H101.983L94.7728 16.5546L97.4865 26L89.9917 20ZM106.497 26L113.992 20L121.486 26L118.773 16.5546L125.983 11H116.99L113.992 2L110.994 11H102L109.211 16.5546L106.497 26Z" fill="white"/>
</svg>
