<svg width="31" height="30" viewBox="0 0 31 30" fill="none" xmlns="http://www.w3.org/2000/svg">
<path d="M4.86558 18.2361C5.06618 18.3704 5.29303 18.4346 5.51748 18.4346C5.89614 18.4346 6.26795 18.2516 6.49438 17.9133C8.39166 15.0781 11.5633 13.3855 14.9784 13.3855C18.3834 13.3855 21.5498 15.0704 23.4484 17.8926C23.8105 18.4306 24.5401 18.5733 25.0781 18.2114C25.6161 17.8494 25.7588 17.1197 25.3968 16.5817C23.8799 14.327 21.705 12.6632 19.2196 11.7732C20.7101 10.5557 21.6634 8.70417 21.6634 6.63405C21.6634 2.97599 18.6874 0 15.0294 0C11.3713 0 8.3953 2.97599 8.3953 6.63405C8.3953 8.68931 9.33476 10.5292 10.8068 11.747C8.28258 12.6338 6.07497 14.3176 4.54274 16.6073C4.18209 17.1462 4.32663 17.8755 4.86558 18.2361ZM15.0294 2.34834C17.3925 2.34834 19.3151 4.27092 19.3151 6.63405C19.3151 8.99718 17.3925 10.9198 15.0294 10.9198C12.6662 10.9198 10.7436 8.99718 10.7436 6.63405C10.7436 4.27092 12.6662 2.34834 15.0294 2.34834ZM19.7118 20.7904L17.9614 22.0532C17.7009 22.241 17.5919 22.5741 17.6914 22.8781L18.3963 24.9213C18.4261 25.0123 18.4376 25.1011 18.4337 25.1859C18.4088 25.7347 17.721 26.11 17.2166 25.7462L15.4662 24.4831C15.336 24.3891 15.1827 24.3422 15.0294 24.3422C14.8761 24.3422 14.7228 24.3891 14.5926 24.4831L12.8422 25.7462C12.3378 26.11 11.6468 25.7347 11.6249 25.1859C11.6216 25.1011 11.6333 25.0122 11.6631 24.9213L12.3673 22.8781C12.4668 22.5741 12.3578 22.241 12.0974 22.0532L10.3469 20.7904C9.76456 20.3703 10.0639 19.3738 10.7837 19.3738H12.9474C13.2693 19.3738 13.5547 19.2498 13.6541 18.9459L14.3227 16.8895C14.4339 16.5496 14.7316 16.3796 15.0294 16.3796C15.3272 16.3796 15.6249 16.5496 15.7361 16.8895L16.4047 18.9459C16.5042 19.2498 16.7895 19.3738 17.1114 19.3738H19.2751C19.9949 19.3738 20.2942 20.3703 19.7118 20.7904ZM29.751 24.9L28.0005 26.1628C27.7401 26.3506 27.6311 26.6837 27.7306 26.9877L28.4355 29.0308C28.4652 29.1218 28.4767 29.2107 28.4729 29.2955C28.4479 29.8442 27.7602 30.2196 27.2557 29.8558L25.5053 28.5926C25.3751 28.4987 25.2218 28.4517 25.0686 28.4517C24.9153 28.4517 24.762 28.4987 24.6318 28.5926L22.8814 29.8558C22.3769 30.2196 21.6859 29.8442 21.664 29.2955C21.6607 29.2107 21.6724 29.1218 21.7022 29.0308L22.4065 26.9877C22.506 26.6837 22.397 26.3506 22.1365 26.1628L20.3861 24.9C19.8037 24.4799 20.103 23.4834 20.8229 23.4834H22.9865C23.3085 23.4834 23.5938 23.3594 23.6932 23.0554L24.3618 20.9991C24.4731 20.6592 24.7708 20.4892 25.0686 20.4892C25.3663 20.4892 25.664 20.6592 25.7753 20.9991L26.4439 23.0554C26.5434 23.3594 26.8286 23.4834 27.1506 23.4834H29.3142C30.034 23.4834 30.3333 24.4799 29.751 24.9ZM9.67268 24.9L7.92223 26.1628C7.6618 26.3506 7.55278 26.6837 7.65229 26.9877L8.3572 29.0308C8.38697 29.1218 8.39842 29.2107 8.3946 29.2955C8.36965 29.8442 7.68188 30.2196 7.17746 29.8558L5.42701 28.5926C5.29679 28.4987 5.1435 28.4517 4.99022 28.4517C4.83693 28.4517 4.68364 28.4987 4.55342 28.5926L2.80303 29.8558C2.29861 30.2196 1.60755 29.8442 1.58571 29.2955C1.58237 29.2107 1.59411 29.1218 1.62387 29.0308L2.32814 26.9877C2.42765 26.6837 2.31863 26.3506 2.0582 26.1628L0.307749 24.9C-0.274638 24.4799 0.0246575 23.4834 0.74454 23.4834H2.90818C3.23014 23.4834 3.51546 23.3594 3.61491 23.0554L4.28348 20.9991C4.39474 20.6592 4.69245 20.4892 4.99022 20.4892C5.28798 20.4892 5.58569 20.6592 5.69695 20.9991L6.36552 23.0554C6.46503 23.3594 6.75029 23.4834 7.07225 23.4834H9.23589C9.95577 23.4834 10.2551 24.4799 9.67268 24.9Z" fill="#555555"/>
</svg>
