<svg width="48" height="48" viewBox="0 0 48 48" fill="none" xmlns="http://www.w3.org/2000/svg">
<path d="M23.9997 47.9999C37.2544 47.9999 47.9994 37.2549 47.9994 24.0002C47.9994 10.7455 37.2544 0.000488281 23.9997 0.000488281C10.745 0.000488281 0 10.7455 0 24.0002C0 37.2549 10.745 47.9999 23.9997 47.9999Z" fill="#43A4F2"/>
<path d="M19.6692 27.4973L30.5152 35.6861L35.9901 12.3154L8.00977 23.3216L16.5239 26.1417L32.0623 15.7189L19.6692 27.4973Z" fill="white"/>
<path d="M16.5239 26.1415L18.8558 34.5325L19.6692 27.4971L32.0623 15.7188L16.5239 26.1415Z" fill="#D2D2D7"/>
<path d="M23.1942 30.1584L18.8557 34.5324L19.6692 27.4971L23.1942 30.1584Z" fill="#B9B9BE"/>
</svg>
