<svg width="21" height="20" viewBox="0 0 21 20" fill="none" xmlns="http://www.w3.org/2000/svg">
<ellipse cx="10.5" cy="10" rx="10.5" ry="10" fill="#52B02E"/>
<path d="M9.988 14C9.908 14 9.836 13.972 9.772 13.916C9.716 13.852 9.688 13.78 9.688 13.7V7.484H7.552C7.472 7.484 7.4 7.456 7.336 7.4C7.28 7.336 7.252 7.264 7.252 7.184V5.9C7.252 5.812 7.28 5.74 7.336 5.684C7.4 5.628 7.472 5.6 7.552 5.6H14.008C14.096 5.6 14.168 5.628 14.224 5.684C14.28 5.74 14.308 5.812 14.308 5.9V7.184C14.308 7.272 14.28 7.344 14.224 7.4C14.168 7.456 14.096 7.484 14.008 7.484H11.872V13.7C11.872 13.78 11.844 13.852 11.788 13.916C11.732 13.972 11.66 14 11.572 14H9.988Z" fill="white"/>
</svg>
