<svg width="150" height="150" viewBox="0 0 150 150" fill="none" xmlns="http://www.w3.org/2000/svg">
<circle cx="75" cy="75" r="75" fill="#52B02E"/>
<path d="M67.36 116C66.56 116 65.84 115.72 65.2 115.16C64.64 114.52 64.36 113.8 64.36 113V50.84H43C42.2 50.84 41.48 50.56 40.84 50C40.28 49.36 40 48.64 40 47.84V35C40 34.12 40.28 33.4 40.84 32.84C41.48 32.28 42.2 32 43 32H107.56C108.44 32 109.16 32.28 109.72 32.84C110.28 33.4 110.56 34.12 110.56 35V47.84C110.56 48.72 110.28 49.44 109.72 50C109.16 50.56 108.44 50.84 107.56 50.84H86.2V113C86.2 113.8 85.92 114.52 85.36 115.16C84.8 115.72 84.08 116 83.2 116H67.36Z" fill="white"/>
</svg>
