<svg width="16" height="14" viewBox="0 0 16 14" fill="none" xmlns="http://www.w3.org/2000/svg">
<path d="M9.02704 9.62211C8.74226 9.79676 8.37757 9.89297 8.00011 9.89297C7.62266 9.89297 7.25796 9.7968 6.97319 9.62211L2.32394 6.77069C2.32394 6.77069 1.9043 6.51347 1.9043 7.09617C1.9043 7.75787 1.9043 9.74298 1.9043 9.74298C1.9043 9.76945 1.9043 9.90231 1.9043 9.9435C1.9043 11.4434 4.63344 13.0605 7.99999 13.0605C11.3665 13.0605 14.0957 11.4435 14.0957 9.9435C14.0957 9.90231 14.0957 9.76945 14.0957 9.74298C14.0957 9.74298 14.0957 7.63748 14.0957 6.93563C14.0957 6.46791 13.7974 6.69646 13.7974 6.69646L9.02704 9.62211Z" fill="#555555"/>
<path d="M15.7321 4.50276C16.0893 4.28368 16.0893 3.92516 15.7321 3.70603L8.64951 0.164313C8.29227 -0.054771 7.70769 -0.054771 7.35045 0.164313L0.26793 3.70603C-0.08931 3.92512 -0.08931 4.28364 0.26793 4.50276L7.35045 8.84655C7.70769 9.06563 8.29227 9.06563 8.64951 8.84655" fill="#555555"/>
<path d="M15.4392 10.9413C15.4392 9.74197 15.4392 6.14395 15.4392 6.14395C15.4392 6.14395 15.4425 5.91673 15.3077 5.99176C15.1995 6.05195 14.9344 6.19973 14.841 6.28098C14.7332 6.3747 14.7575 6.58509 14.7575 6.58509C14.7575 6.58509 14.7575 9.85226 14.7575 10.9413C14.7575 11.0031 14.7043 11.0327 14.679 11.0476C14.4342 11.1915 14.2695 11.4572 14.2695 11.7618C14.2695 12.2195 14.6406 12.5906 15.0983 12.5906C15.5561 12.5906 15.9271 12.2195 15.9271 11.7618C15.9271 11.456 15.7613 11.1895 15.5149 11.0459C15.4904 11.0317 15.4392 11.0031 15.4392 10.9413Z" fill="#555555"/>
</svg>
