<svg width="16" height="12" viewBox="0 0 16 12" fill="none" xmlns="http://www.w3.org/2000/svg">
<mask id="mask0" mask-type="alpha" maskUnits="userSpaceOnUse" x="0" y="0" width="16" height="12">
<path d="M8 12C3 12 0 7.5 0 6C0 4.5 3 0 8 0C13 0 16 4.5 16 6C16 7.5 13 12 8 12ZM8 11C10.7614 11 13 8.76142 13 6C13 3.23858 10.7614 1 8 1C5.23858 1 3 3.23858 3 6C3 8.76142 5.23858 11 8 11ZM8.88341 3.13218C8.36251 3.36736 8 3.89135 8 4.5C8 5.32843 8.67157 6 9.5 6C10.1087 6 10.6326 5.63749 10.8678 5.11659C10.9537 5.39587 11 5.69253 11 6C11 7.65685 9.65685 9 8 9C6.34315 9 5 7.65685 5 6C5 4.34315 6.34315 3 8 3C8.30747 3 8.60413 3.04625 8.88341 3.13218Z" fill="white"/>
</mask>
<g mask="url(#mask0)">
<path d="M8 12C3 12 0 7.5 0 6C0 4.5 3 0 8 0C13 0 16 4.5 16 6C16 7.5 13 12 8 12ZM8 11C10.7614 11 13 8.76142 13 6C13 3.23858 10.7614 1 8 1C5.23858 1 3 3.23858 3 6C3 8.76142 5.23858 11 8 11ZM8.88341 3.13218C8.36251 3.36736 8 3.89135 8 4.5C8 5.32843 8.67157 6 9.5 6C10.1087 6 10.6326 5.63749 10.8678 5.11659C10.9537 5.39587 11 5.69253 11 6C11 7.65685 9.65685 9 8 9C6.34315 9 5 7.65685 5 6C5 4.34315 6.34315 3 8 3C8.30747 3 8.60413 3.04625 8.88341 3.13218Z" fill="#111111"/>
<path d="M16 -2H0V14H16V-2Z" fill="#0080C9"/>
</g>
</svg>
